<svg xmlns="http://www.w3.org/2000/svg" xmlns:xlink="http://www.w3.org/1999/xlink" width="688.146" height="804.353" viewBox="0 0 688.146 804.353"><defs><linearGradient id="a" x1="0.901" y1="0.913" x2="-0.202" y2="-0.224" gradientUnits="objectBoundingBox"><stop offset="0.07" stop-color="#87d0fd"/><stop offset="0.16" stop-color="#7fc3ec" stop-opacity="0.929"/><stop offset="0.35" stop-color="#68a1c0" stop-opacity="0.761"/><stop offset="0.61" stop-color="#456a79" stop-opacity="0.478"/><stop offset="0.92" stop-color="#141f19" stop-opacity="0.102"/><stop offset="1" stop-color="#080c01" stop-opacity="0"/></linearGradient><linearGradient id="b" x1="0.701" y1="1.034" x2="0.254" y2="-0.154" xlink:href="#a"/><linearGradient id="c" x1="0.99" y1="0.925" x2="-0.172" y2="0.241" gradientUnits="objectBoundingBox"><stop offset="0.07" stop-color="#4556c5"/><stop offset="0.19" stop-color="#4050b4" stop-opacity="0.91"/><stop offset="0.41" stop-color="#323f88" stop-opacity="0.69"/><stop offset="0.73" stop-color="#1c2543" stop-opacity="0.329"/><stop offset="1" stop-color="#080c01" stop-opacity="0"/></linearGradient><linearGradient id="d" x1="0.5" y1="1.206" x2="0.5" y2="-0.086" gradientUnits="objectBoundingBox"><stop offset="0" stop-color="#87d0fd"/><stop offset="0.08" stop-color="#82c9f3" stop-opacity="0.961"/><stop offset="0.22" stop-color="#75b4da" stop-opacity="0.859"/><stop offset="0.39" stop-color="#6094b0" stop-opacity="0.69"/><stop offset="0.59" stop-color="#436675" stop-opacity="0.459"/><stop offset="0.82" stop-color="#1e2d2c" stop-opacity="0.169"/><stop offset="0.94" stop-color="#080c01" stop-opacity="0"/></linearGradient><linearGradient id="e" x1="0.691" y1="1.032" x2="0.267" y2="-0.151" gradientUnits="objectBoundingBox"><stop offset="0.07" stop-color="#87d0fd"/><stop offset="0.21" stop-color="#74aee6"/><stop offset="0.44" stop-color="#577ac4"/><stop offset="0.64" stop-color="#4255ab"/><stop offset="0.8" stop-color="#363d9c"/><stop offset="0.9" stop-color="#313596"/></linearGradient><linearGradient id="f" x1="0.524" y1="1.102" x2="0.524" y2="-0.031" xlink:href="#a"/><linearGradient id="g" x1="1.11" y1="0.499" x2="-0.055" y2="0.499" gradientUnits="objectBoundingBox"><stop offset="0.07" stop-color="#7abb93"/><stop offset="0.33" stop-color="#71aa95"/><stop offset="0.83" stop-color="#597f9a"/><stop offset="1" stop-color="#506e9c"/></linearGradient><linearGradient id="h" x1="1.106" y1="0.5" x2="-0.029" y2="0.5" xlink:href="#g"/><linearGradient id="i" x1="0.596" y1="0.826" x2="0.208" y2="-0.08" gradientUnits="objectBoundingBox"><stop offset="0" stop-color="#fff"/><stop offset="0.31" stop-color="#fff"/><stop offset="0.71" stop-color="#5c5c5b"/></linearGradient><linearGradient id="j" x1="0.961" y1="0.716" x2="0.234" y2="0.215" gradientUnits="objectBoundingBox"><stop offset="0" stop-color="#7b7b7a"/><stop offset="0.72" stop-color="#1f211d"/><stop offset="1"/></linearGradient><linearGradient id="k" x1="0.836" y1="-0.063" x2="-0.153" y2="0.887" xlink:href="#j"/><linearGradient id="l" x1="1.013" y1="-0.017" x2="-0.065" y2="1.071" gradientUnits="objectBoundingBox"><stop offset="0" stop-color="#f2f2f2"/><stop offset="0.25" stop-color="#eff0f1"/><stop offset="0.46" stop-color="#e5e8ef"/><stop offset="0.66" stop-color="#d3dbeb"/><stop offset="0.84" stop-color="#bbc9e5"/><stop offset="1" stop-color="#a0b5de"/></linearGradient><linearGradient id="m" x1="1.004" y1="0.044" x2="-0.084" y2="0.998" gradientUnits="objectBoundingBox"><stop offset="0" stop-color="#a0eafe"/><stop offset="0.2" stop-color="#9ee7fd"/><stop offset="0.36" stop-color="#98ddf9"/><stop offset="0.51" stop-color="#8dcbf2"/><stop offset="0.65" stop-color="#7eb3e9"/><stop offset="0.79" stop-color="#6b94dd"/><stop offset="0.92" stop-color="#546ece"/><stop offset="1" stop-color="#4556c5"/></linearGradient><linearGradient id="n" x1="0.982" y1="0.04" x2="0.021" y2="0.957" xlink:href="#m"/><linearGradient id="o" x1="1.013" y1="0.012" x2="0.034" y2="0.944" xlink:href="#m"/><linearGradient id="p" x1="0.962" y1="-0.05" x2="-0.206" y2="1.342" gradientUnits="objectBoundingBox"><stop offset="0" stop-color="#fff"/><stop offset="0.3" stop-color="#fcfdff"/><stop offset="0.55" stop-color="#f2f6ff"/><stop offset="0.78" stop-color="#e0e9fe"/><stop offset="1" stop-color="#c9d9fe"/></linearGradient><linearGradient id="q" x1="1.144" y1="0.014" x2="-0.038" y2="0.906" xlink:href="#m"/><linearGradient id="r" x1="0.169" y1="0.941" x2="0.64" y2="0.005" gradientUnits="objectBoundingBox"><stop offset="0" stop-color="#17193c"/><stop offset="0.53" stop-color="#222560"/><stop offset="0.97" stop-color="#4556c5"/></linearGradient><linearGradient id="s" x1="1.123" y1="0.391" x2="-0.04" y2="0.593" gradientUnits="objectBoundingBox"><stop offset="0.07" stop-color="#fff"/><stop offset="0.41" stop-color="#eef3ff"/><stop offset="1" stop-color="#c9d9fe"/></linearGradient><linearGradient id="t" x1="0.5" y1="1.206" x2="0.5" y2="-0.086" xlink:href="#a"/><linearGradient id="u" x1="0.5" y1="0.11" x2="0.5" y2="0.967" gradientUnits="objectBoundingBox"><stop offset="0.07" stop-color="#becff4"/><stop offset="0.64" stop-color="#adc0e8"/><stop offset="1" stop-color="#a0b5de"/></linearGradient><linearGradient id="v" x1="0.22" y1="0.078" x2="1.671" y2="1.272" xlink:href="#a"/><linearGradient id="w" x1="0.153" y1="0.019" x2="1.613" y2="1.217" xlink:href="#a"/><linearGradient id="x" x1="0.082" y1="-0.034" x2="1.534" y2="1.161" xlink:href="#a"/><linearGradient id="y" x1="0" y1="0.5" x2="1" y2="0.5" xlink:href="#r"/><linearGradient id="z" x1="0.5" y1="0.201" x2="0.5" y2="0.687" xlink:href="#u"/><linearGradient id="aa" x1="0.986" y1="0.295" x2="-0.037" y2="0.727" xlink:href="#s"/><linearGradient id="ab" x1="1.014" y1="0.283" x2="-0.004" y2="0.713" xlink:href="#s"/><linearGradient id="ac" x1="0.5" y1="0.136" x2="0.5" y2="0.832" xlink:href="#u"/><linearGradient id="ad" x1="0" y1="0.499" x2="1" y2="0.499" xlink:href="#r"/><linearGradient id="ae" x1="-9.913" y1="-16.202" x2="-8.752" y2="-16.202" gradientUnits="objectBoundingBox"><stop offset="0" stop-color="#fff" stop-opacity="0"/><stop offset="0.4" stop-color="#faeb37"/><stop offset="0.87" stop-color="#fff" stop-opacity="0"/></linearGradient><linearGradient id="af" x1="-9.865" y1="-16.226" x2="-8.704" y2="-16.226" xlink:href="#ae"/><linearGradient id="ag" x1="-9.817" y1="-16.243" x2="-8.656" y2="-16.243" xlink:href="#ae"/><linearGradient id="ah" x1="1.276" y1="-0.551" x2="-0.582" y2="1.966" gradientUnits="objectBoundingBox"><stop offset="0" stop-color="#fff"/><stop offset="0.1" stop-color="#efefee" stop-opacity="0.929"/><stop offset="0.3" stop-color="#c4c5c2" stop-opacity="0.761"/><stop offset="0.57" stop-color="#7f817b" stop-opacity="0.478"/><stop offset="0.91" stop-color="#21251b" stop-opacity="0.102"/><stop offset="1" stop-color="#080c01" stop-opacity="0"/></linearGradient><linearGradient id="ai" x1="6.762" y1="-22.821" x2="-9.654" y2="38.312" xlink:href="#ah"/><linearGradient id="aj" x1="6.883" y1="-23.248" x2="-9.533" y2="37.822" xlink:href="#ah"/><linearGradient id="ak" x1="2.149" y1="-6.566" x2="-2.708" y2="14.244" xlink:href="#ah"/><linearGradient id="al" x1="3.166" y1="-9.802" x2="-6.012" y2="25.66" xlink:href="#ah"/><linearGradient id="am" x1="1.721" y1="-4.918" x2="-1.809" y2="10.742" xlink:href="#ah"/><linearGradient id="an" x1="1.755" y1="-5.105" x2="-1.948" y2="11.43" xlink:href="#ah"/><linearGradient id="ao" x1="5.31" y1="-15.935" x2="-11.461" y2="41.374" xlink:href="#ah"/><linearGradient id="ap" x1="7.286" y1="-24.799" x2="-9.128" y2="36.384" xlink:href="#ah"/><linearGradient id="aq" x1="7.408" y1="-25.248" x2="-9.008" y2="35.933" xlink:href="#ah"/><linearGradient id="ar" x1="7.578" y1="-25.863" x2="-8.838" y2="35.27" xlink:href="#ah"/><linearGradient id="as" x1="2.305" y1="-7.237" x2="-2.553" y2="13.587" xlink:href="#ah"/><linearGradient id="at" x1="2.637" y1="-8.233" x2="-4.11" y2="19.338" xlink:href="#ah"/><linearGradient id="au" x1="1.693" y1="-4.84" x2="-1.501" y2="9.455" xlink:href="#ah"/><linearGradient id="av" x1="1.874" y1="-5.634" x2="-1.829" y2="10.9" xlink:href="#ah"/><linearGradient id="aw" x1="1.941" y1="-5.933" x2="-1.761" y2="10.593" xlink:href="#ah"/><linearGradient id="ax" x1="5.846" y1="-17.77" x2="-10.925" y2="39.539" xlink:href="#ah"/><linearGradient id="ay" x1="7.934" y1="-27.21" x2="-8.482" y2="33.973" xlink:href="#ah"/><linearGradient id="az" x1="8.055" y1="-27.352" x2="-8.361" y2="33.153" xlink:href="#ah"/><linearGradient id="ba" x1="2.496" y1="-8.057" x2="-2.361" y2="12.765" xlink:href="#ah"/><linearGradient id="bb" x1="3.822" y1="-12.32" x2="-5.356" y2="23.102" xlink:href="#ah"/><linearGradient id="bc" x1="1.974" y1="-6.036" x2="-1.557" y2="9.623" xlink:href="#ah"/><linearGradient id="bd" x1="2.02" y1="-6.286" x2="-1.683" y2="10.249" xlink:href="#ah"/><linearGradient id="be" x1="6.507" y1="-20.028" x2="-10.264" y2="37.279" xlink:href="#ah"/><linearGradient id="bf" x1="8.458" y1="-29.113" x2="-7.956" y2="31.958" xlink:href="#ah"/><linearGradient id="bg" x1="8.581" y1="-29.589" x2="-7.835" y2="31.545" xlink:href="#ah"/><linearGradient id="bh" x1="8.75" y1="-30.254" x2="-7.664" y2="30.928" xlink:href="#ah"/><linearGradient id="bi" x1="3.408" y1="-11.477" x2="-3.048" y2="15.113" xlink:href="#ah"/><linearGradient id="bj" x1="2.576" y1="-8.302" x2="-2.69" y2="14.022" xlink:href="#ah"/><linearGradient id="bk" x1="1.922" y1="-5.862" x2="-1.273" y2="8.434" xlink:href="#ah"/><linearGradient id="bl" x1="2.892" y1="-9.8" x2="-2.374" y2="12.878" xlink:href="#ah"/><linearGradient id="bm" x1="1.849" y1="-5.625" x2="-1.141" y2="7.95" xlink:href="#ah"/><linearGradient id="bn" x1="3.54" y1="-11.94" x2="-4.046" y2="19.098" xlink:href="#ah"/><linearGradient id="bo" x1="9.106" y1="-31.52" x2="-7.309" y2="29.55" xlink:href="#ah"/><linearGradient id="bp" x1="9.227" y1="-32.004" x2="-7.189" y2="29.131" xlink:href="#ah"/><linearGradient id="bq" x1="2.843" y1="-9.545" x2="-2.015" y2="11.278" xlink:href="#ah"/><linearGradient id="br" x1="3.444" y1="-11.491" x2="-3.434" y2="16.526" xlink:href="#ah"/><linearGradient id="bs" x1="2.729" y1="-9.145" x2="-1.751" y2="10.239" xlink:href="#ah"/><linearGradient id="bt" x1="3.585" y1="-12.514" x2="-2.612" y2="13.631" xlink:href="#ah"/><linearGradient id="bu" x1="3.057" y1="-10.401" x2="-2.67" y2="14.013" xlink:href="#ah"/><linearGradient id="bv" x1="9.632" y1="-33.509" x2="-6.784" y2="27.624" xlink:href="#ah"/><linearGradient id="bw" x1="9.752" y1="-33.924" x2="-6.663" y2="27.147" xlink:href="#ah"/><linearGradient id="bx" x1="2.998" y1="-10.204" x2="-1.859" y2="10.606" xlink:href="#ah"/><linearGradient id="by" x1="3.601" y1="-12.182" x2="-3.146" y2="15.413" xlink:href="#ah"/><linearGradient id="bz" x1="2.15" y1="-6.882" x2="-1.045" y2="7.413" xlink:href="#ah"/><linearGradient id="ca" x1="2.403" y1="-7.995" x2="-1.3" y2="8.539" xlink:href="#ah"/><linearGradient id="cb" x1="2.471" y1="-8.298" x2="-1.233" y2="8.236" xlink:href="#ah"/><linearGradient id="cc" x1="8.241" y1="-25.955" x2="-8.529" y2="31.354" xlink:href="#ah"/><linearGradient id="cd" x1="1.791" y1="-3.42" x2="-3.483" y2="12.6" xlink:href="#ah"/><linearGradient id="ce" x1="8.77" y1="-10.682" x2="-23.561" y2="34.362" xlink:href="#ah"/><linearGradient id="cf" x1="8.075" y1="-10.345" x2="-24.255" y2="34.637" xlink:href="#ah"/><linearGradient id="cg" x1="0.346" y1="0.105" x2="0.725" y2="1.077" gradientUnits="objectBoundingBox"><stop offset="0" stop-color="#fff" stop-opacity="0"/><stop offset="0.4" stop-color="#9bffd6"/><stop offset="1" stop-color="#fff" stop-opacity="0"/></linearGradient><linearGradient id="ch" x1="1.067" y1="0.257" x2="0.083" y2="0.678" xlink:href="#s"/><linearGradient id="ci" x1="0.5" y1="1.206" x2="0.5" y2="-0.087" xlink:href="#a"/><linearGradient id="cj" x1="0.5" y1="0.103" x2="0.5" y2="0.962" xlink:href="#u"/><linearGradient id="ck" x1="0.216" y1="0.073" x2="1.676" y2="1.274" xlink:href="#a"/><linearGradient id="cl" x1="0.153" y1="0.022" x2="1.605" y2="1.217" xlink:href="#a"/><linearGradient id="cm" x1="0.084" y1="-0.034" x2="1.537" y2="1.161" xlink:href="#a"/><linearGradient id="cn" x1="0.001" y1="0.5" x2="1.001" y2="0.5" xlink:href="#r"/><linearGradient id="co" x1="1.094" y1="0.861" x2="0.124" y2="-0.037" gradientUnits="objectBoundingBox"><stop offset="0.07" stop-color="#edc3b6"/><stop offset="0.32" stop-color="#e6b7a5"/><stop offset="0.82" stop-color="#d4987a"/><stop offset="1" stop-color="#cd8b68"/></linearGradient><linearGradient id="cp" x1="1.25" y1="0.87" x2="0.285" y2="0.214" xlink:href="#co"/><linearGradient id="cq" x1="0.97" y1="0.964" x2="0.175" y2="0.179" xlink:href="#co"/><linearGradient id="cr" x1="0.935" y1="0.604" x2="0.006" y2="0.383" gradientUnits="objectBoundingBox"><stop offset="0.07" stop-color="#a0eafe"/><stop offset="0.22" stop-color="#96d9f8"/><stop offset="0.51" stop-color="#7bade7"/><stop offset="0.91" stop-color="#4f67cc"/><stop offset="1" stop-color="#4556c5"/></linearGradient><linearGradient id="cs" x1="0.937" y1="0.825" x2="0.171" y2="0.285" gradientUnits="objectBoundingBox"><stop offset="0.07" stop-color="#fefac1"/><stop offset="0.25" stop-color="#fbf2b0"/><stop offset="0.62" stop-color="#f2de84"/><stop offset="1" stop-color="#e7c650"/></linearGradient><linearGradient id="ct" x1="1.998" y1="0.176" x2="-1.257" y2="0.88" xlink:href="#co"/><linearGradient id="cu" x1="1.068" y1="0.748" x2="0.219" y2="0.377" xlink:href="#co"/><linearGradient id="cv" x1="0.158" y1="0.918" x2="0.85" y2="0.071" xlink:href="#co"/><linearGradient id="cw" x1="0.141" y1="0.75" x2="0.904" y2="0.302" gradientUnits="objectBoundingBox"><stop offset="0.07" stop-color="#78156b"/><stop offset="0.38" stop-color="#670f61"/><stop offset="0.99" stop-color="#3c0047"/><stop offset="1" stop-color="#3b0047"/></linearGradient><linearGradient id="cx" x1="1.065" y1="0.988" x2="0.305" y2="0.363" gradientUnits="objectBoundingBox"><stop offset="0.07" stop-color="#87d0fd"/><stop offset="0.24" stop-color="#7ebff5"/><stop offset="0.58" stop-color="#6693e1"/><stop offset="1" stop-color="#4556c5"/></linearGradient><linearGradient id="cy" x1="0.501" y1="1.061" x2="0.501" y2="-0.033" xlink:href="#cx"/><linearGradient id="cz" x1="0.004" y1="0.4" x2="1.005" y2="0.592" gradientUnits="objectBoundingBox"><stop offset="0.07" stop-color="#941582"/><stop offset="0.37" stop-color="#830f7a"/><stop offset="0.97" stop-color="#580166"/><stop offset="1" stop-color="#550065"/></linearGradient><linearGradient id="da" x1="0.945" y1="0.981" x2="0.15" y2="0.122" xlink:href="#co"/><linearGradient id="db" x1="0.151" y1="0.607" x2="0.788" y2="0.391" xlink:href="#cw"/><linearGradient id="dc" x1="0.15" y1="0.843" x2="0.762" y2="0.242" xlink:href="#co"/><linearGradient id="dd" x1="1.164" y1="1.014" x2="0.268" y2="0.31" gradientUnits="objectBoundingBox"><stop offset="0.07" stop-color="#7549dd"/><stop offset="0.28" stop-color="#6a3ccc"/><stop offset="0.69" stop-color="#4e1ca1"/><stop offset="1" stop-color="#36007b"/></linearGradient><linearGradient id="de" x1="0.5" y1="0.936" x2="0.5" y2="0.256" gradientUnits="objectBoundingBox"><stop offset="0.07" stop-color="#73a1f9"/><stop offset="0.23" stop-color="#6b94e8"/><stop offset="0.55" stop-color="#5571bc"/><stop offset="0.99" stop-color="#323b76"/><stop offset="1" stop-color="#313974"/></linearGradient><linearGradient id="df" x1="0.499" y1="0.939" x2="0.499" y2="0.206" gradientUnits="objectBoundingBox"><stop offset="0.07" stop-color="#4556c5"/><stop offset="0.27" stop-color="#3f4eb4"/><stop offset="0.67" stop-color="#303989"/><stop offset="1" stop-color="#222560"/></linearGradient><linearGradient id="dg" x1="0.973" y1="0.862" x2="0.202" y2="0.301" gradientUnits="objectBoundingBox"><stop offset="0.07" stop-color="#7549dd"/><stop offset="0.53" stop-color="#6a3ccc"/><stop offset="1" stop-color="#5c2cb7"/></linearGradient><linearGradient id="dh" x1="0.749" y1="0.627" x2="-0.195" y2="0.145" xlink:href="#co"/><linearGradient id="di" x1="0.501" y1="0.947" x2="0.501" y2="-0.082" xlink:href="#co"/><linearGradient id="dj" x1="1.333" y1="0.828" x2="0.174" y2="0.391" xlink:href="#dd"/><linearGradient id="dk" x1="1.056" y1="0.756" x2="0.06" y2="0.302" xlink:href="#co"/><linearGradient id="dl" x1="0.385" y1="3.46" x2="1.045" y2="4.054" xlink:href="#co"/><linearGradient id="dm" y1="0.5" x2="1" y2="0.5" gradientUnits="objectBoundingBox"><stop offset="0.07" stop-color="#c7ebf3"/><stop offset="0.2" stop-color="#bee7f2"/><stop offset="0.53" stop-color="#a0d9ef"/><stop offset="1" stop-color="#70c3e9"/></linearGradient><linearGradient id="dn" x1="81.884" y1="1.121" x2="81.884" y2="-0.1" xlink:href="#df"/><linearGradient id="do" x1="81.978" y1="0.939" x2="81.978" y2="0.205" xlink:href="#df"/><linearGradient id="dp" x1="-1.551" y1="1.04" x2="1.122" y2="0.334" xlink:href="#dm"/><linearGradient id="dq" x1="35.837" y1="0.627" x2="34.895" y2="0.146" xlink:href="#co"/><linearGradient id="dr" x1="53.312" y1="-15.803" x2="53.312" y2="-17.004" xlink:href="#co"/><linearGradient id="ds" x1="0" y1="0.499" x2="1" y2="0.499" xlink:href="#dm"/></defs><g transform="translate(-0.01 -0.06)"><g transform="translate(0.01 0.06)"><path d="M221.31,476.421a61.478,61.478,0,0,1-30.294-7.711L65.508,396.247c-11.6-6.713-18.248-17-18.248-28.042,0-10.282,5.672-19.459,15.572-25.174l130.883-75.564a50.708,50.708,0,0,1,25.344-6.161,61.2,61.2,0,0,1,30.294,7.711L374.882,341.4c11.6,6.692,18.248,17,18.248,28.021,0,10.3-5.672,19.481-15.572,25.2L246.675,470.175A50.793,50.793,0,0,1,221.31,476.421Zm-2.252-213.1a48.86,48.86,0,0,0-24.324,5.842L63.83,344.773c-9.241,5.353-14.552,13.893-14.552,23.368,0,10.367,6.373,19.948,17.25,26.279l125.508,72.463a59.334,59.334,0,0,0,29.274,7.435,48.649,48.649,0,0,0,24.345-5.884l130.883-75.564C385.8,387.537,391.091,379,391.091,369.5c0-10.367-6.373-19.948-17.229-26.279L248.333,270.76A59.27,59.27,0,0,0,219.059,263.324Z" transform="translate(-31.837 165.034)" fill="url(#a)"/><path d="M217.735,466.035a54.383,54.383,0,0,1-26.895-6.819L65.311,386.753c-9.453-5.46-14.871-13.532-14.871-22.179,0-7.818,4.44-14.871,12.194-19.332l130.883-75.458a44,44,0,0,1,21.966-5.247,54.725,54.725,0,0,1,26.916,6.8L367.907,343.8c9.453,5.46,14.871,13.554,14.871,22.179,0,7.818-4.44,14.871-12.173,19.332L239.722,460.766a44.125,44.125,0,0,1-21.987,5.269Z" transform="translate(-28.261 168.665)" fill="url(#b)"/><path d="M62.634,364.65l130.883-75.585a44.208,44.208,0,0,1,21.966-5.247,54.724,54.724,0,0,1,26.916,6.8L367.907,363.1a30.888,30.888,0,0,1,12.428,12.364,20.16,20.16,0,0,0,2.443-9.538c0-8.625-5.417-16.719-14.871-22.179L242.4,271.283a54.724,54.724,0,0,0-26.916-6.8,44,44,0,0,0-21.966,5.353L62.634,345.3c-7.754,4.482-12.194,11.514-12.194,19.332a21.371,21.371,0,0,0,2.443,9.815,24.792,24.792,0,0,1,9.751-9.793Z" transform="translate(-28.261 168.611)" fill="url(#c)"/><path d="M365.024,394.2V237.335h0a11.9,11.9,0,0,1-6.267,7.626L227.874,320.547c-9.538,5.5-26.364,4.8-37.389-1.551L64.977,246.512c-5.268-3.017-8.264-6.819-8.944-10.622V392.754c-.977,4.737,2.124,9.985,8.944,13.957l125.508,72.463c11.026,6.373,27.851,7.053,37.389,1.551L358.757,405.16C363.75,402.335,365.768,398.3,365.024,394.2Z" transform="translate(-22.171 136.47)" fill="url(#d)"/><path d="M358.763,292.721,227.88,368.306c-9.538,5.5-26.364,4.8-37.389-1.551L64.982,294.271c-11.026-6.373-12.236-16.06-2.7-21.584l130.9-75.564c9.538-5.5,26.364-4.8,37.368,1.551l125.53,72.463C367.09,277.51,368.3,287.218,358.763,292.721Z" transform="translate(-22.176 88.711)" fill="url(#e)"/><path d="M130.424,408.24a2.124,2.124,0,0,1-2.124-2.018V286.471a2.124,2.124,0,0,1,4.058,0V406.265A2.124,2.124,0,0,1,130.424,408.24Z" transform="translate(59.283 191.662)" fill="url(#f)"/><path d="M211.682,314.533c-.722.319-1,1.19-1.062,2.4,0,.361,3.633-2.124,3.505-.829,0,.34-2.656,17.972,2.953,23.814a1.721,1.721,0,0,0,2.124.191l1.53-.871c1.784-.892,2.974-4.971,4.567-11.026,1.763-6.692,2.847-10.919-4.525-15.274-2.124-1.232-3.314-1.53-3.994-1.147Z" transform="translate(151.842 221.638)"/><path d="M222.655,328.226c-2.124,8.073-3.526,12.619-6.586,10.813s-3.739-8.5-2.7-16.294c.913-6.862-2.592-14.127,4.759-9.793S224.418,321.534,222.655,328.226Z" transform="translate(154.423 221.647)" fill="#39355f"/><path d="M268.814,295.13l-15.126,5.523-6.139,6.947a64.9,64.9,0,0,0-19.438,13.575s-3.25,4.759-14.021,10.261c0,0,0,7.52,6.713,8.731l43.082-24.813a10.877,10.877,0,0,0,5.4-8.264,48.69,48.69,0,0,0-.467-11.96Z" transform="translate(155.743 203.078)" fill="#cd8b68"/><path d="M224.88,336.7c0,.786.552,1.445,1.593,2.124.3.191,0-4.249.977-3.441.3.191,14.34,11.153,22.179,9.114a1.678,1.678,0,0,0,1.19-1.678v-1.869c0-2-2.868-5.035-7.35-9.411-4.95-4.822-8.115-7.839-15.529-3.569-2.124,1.232-2.953,2.124-2.974,2.932Z" transform="translate(167.875 237.707)"/><path d="M243.423,331.556c5.97,5.842,9.241,9.284,6.161,11.047s-9.2-.892-15.508-5.651c-5.523-4.249-13.575-4.674-6.182-8.965S238.473,326.734,243.423,331.556Z" transform="translate(167.92 237.713)" fill="#39355f"/><path d="M238.975,355.773l-.446-53.853-14.616,4.737-.127,9.815a64.772,64.772,0,0,0,2.252,23.6s2.528,5.184,2.018,17.25C228.055,357.324,234.6,361.041,238.975,355.773Z" transform="translate(166.357 210.713)" fill="#dfaa86"/><path d="M266.129,324.651h0a5.842,5.842,0,0,1-7.711-2.91L235.3,270.756a5.863,5.863,0,0,1,2.889-7.733h0a5.863,5.863,0,0,1,7.733,2.91l23.113,50.985A5.842,5.842,0,0,1,266.129,324.651Z" transform="translate(179.013 166.398)" fill="#cd8b68"/><path d="M219.25,306.119V326s23.368,7.86,45.207-19.884V287Z" transform="translate(161.545 193.937)" fill="url(#g)"/><path d="M230.409,342.063a1.72,1.72,0,0,0,.744.255c3.909.3,17.951-2.762,31.993-18.588a7.35,7.35,0,0,0,1.912-4.567V274.274a7.393,7.393,0,0,0-3.165-6.862l-10.622-6.161a7.35,7.35,0,0,0-7.52.7l-14.4,8.306a23.368,23.368,0,0,0-10.622,18.312v45.186a2.294,2.294,0,0,0,1.02,2.124Z" transform="translate(160.944 164.176)" fill="url(#h)"/><path d="M226.14,273.9a3.7,3.7,0,0,0,2.124,3.1,11.663,11.663,0,0,0,10.622,0,3.675,3.675,0,0,0,2.124-3.1v-9.772a3.675,3.675,0,0,0-2.124-3.1,11.662,11.662,0,0,0-10.622,0,3.7,3.7,0,0,0-2.124,3.1Z" transform="translate(169.292 163.295)" fill="#ca9270"/><path d="M209.136,329.148h0a5.821,5.821,0,0,1-2.571-7.839l25.493-50.327a5.842,5.842,0,0,1,7.839-2.57h0a5.842,5.842,0,0,1,2.571,7.839l-25.493,50.326a5.885,5.885,0,0,1-7.839,2.57Z" transform="translate(146.57 172.332)" fill="#e6a984"/><path d="M247.174,256.643l7.287,28.573a3.335,3.335,0,0,1-4.5,3.909l-16.995-7.053a3.293,3.293,0,0,1-1.976-3.718l5.545-28.106a3.335,3.335,0,0,1,6.118-1.1l4.015,6.586a2.933,2.933,0,0,1,.51.913Z" transform="translate(174.663 149.58)" fill="#813db6"/><path d="M230.489,263.719c0,2.443-1.721,3.441-3.845,2.124a8.5,8.5,0,0,1-3.824-6.628c0-2.464,1.721-3.441,3.824-2.231A8.5,8.5,0,0,1,230.489,263.719Z" transform="translate(165.559 159.605)" fill="#e6a984"/><circle cx="20.5" cy="20.5" r="20.5" transform="translate(382.303 391.161)" fill="#e6a984"/><path d="M220.505,269.745s17.335,9.5,25.769-15.232c0,0,4.525,10.452,15.784,8.136,0,0,0-16.251-16.761-19.4C245.3,243.254,215.641,240.28,220.505,269.745Z" transform="translate(162.35 144.656)" fill="#813db6"/><path d="M233.289,260.873l7.35,28.573a3.335,3.335,0,0,1-4.5,3.909L219.141,286.3a3.314,3.314,0,0,1-1.976-3.718l5.545-28.105a3.335,3.335,0,0,1,6.118-1.1l4.036,6.586a3.463,3.463,0,0,1,.425.913Z" transform="translate(159.126 154.336)" fill="#813db6"/><path d="M109.328,248.553,98.408,282.84a6.373,6.373,0,0,0,2.74,7.287l33.99,20.288a6.373,6.373,0,0,0,6.373,0l85.931-49.456a6.246,6.246,0,0,0-.106-10.919L195.471,232.6a6.373,6.373,0,0,1-2.592-2.677l-9.3-18.461a6.224,6.224,0,0,0-8.71-2.613l-62.69,36.114A6.182,6.182,0,0,0,109.328,248.553Z" transform="translate(25.358 105.113)" fill="url(#i)"/><path d="M227.52,234.729l-86.1,49.5a6.373,6.373,0,0,1-6.373,0l-33.99-20.288a6.373,6.373,0,0,1-2.7-3.378v.17A6.246,6.246,0,0,0,101.1,268l33.99,20.288a6.246,6.246,0,0,0,6.373,0l86.059-49.477a6.246,6.246,0,0,0,2.762-7.478A6.054,6.054,0,0,1,227.52,234.729Z" transform="translate(25.281 131.343)" fill="url(#j)"/><path d="M356.4,310.9,57.432,483.572c-7.711,4.461-14.042-.319-14.042-10.622V263.635c0-10.282,6.373-22.37,14.042-26.831L356.4,64.135c7.733-4.461,14.042.319,14.042,10.622V284.05C370.438,294.354,364.129,306.441,356.4,310.9Z" transform="translate(-36.188 -58.527)" fill="#080c01"/><path d="M46.7,464.47V253.944c0-5.46,3.314-11.812,7.414-14.17L352.186,67.7c4.1-2.358,7.414.149,7.414,5.608V283.9a17.781,17.781,0,0,1-7.414,14.17L54.114,470.142C50.014,472.521,46.7,470.014,46.7,464.47Z" transform="translate(-32.467 -53.637)" fill="#fff"/><path d="M362.056,61.438a8.986,8.986,0,0,0-8.965.829L54.021,234.83C46.373,239.291,40,251.357,40,261.661V470.954c0,5.821,2.018,9.857,5.141,11.493l7.053,4.036c-3.1-1.657-5.077-5.693-5.077-11.45V265.718c0-10.282,6.373-22.37,14.042-26.831L360.208,66.218a9.156,9.156,0,0,1,8.9-.871Z" transform="translate(-40 -60.61)" fill="url(#k)"/><path d="M50.74,413.972c0,9.581,6.8,13.511,15.1,8.71l265.547-153.3a33.459,33.459,0,0,0,15.083-26.151V93L50.74,263.758Z" transform="translate(-27.924 -24.192)" fill="url(#l)"/><path d="M331.382,76.819,65.834,230.136a33.438,33.438,0,0,0-15.1,26.13v27.978L346.465,113.486V85.551C346.465,75.948,339.688,72.04,331.382,76.819Z" transform="translate(-27.935 -44.678)" fill="url(#m)"/><path d="M239.285,122.257,65.086,222.867c-3.441,1.976-6.246-.127-6.246-4.716h0a14.871,14.871,0,0,1,6.246-11.918l174.2-100.611c3.441-1.976,6.224.127,6.224,4.716h0a14.87,14.87,0,0,1-6.224,11.918Z" transform="translate(-18.817 -10.834)" fill="#fff"/><path d="M159.039,62.778l-37.729,21.8V39.155L159.039,17.38Z" transform="translate(136.377 19.413)" fill="#87d0fd"/><path d="M133.23,214.375,62.764,255.057c-4.249,2.422-7.584-.149-7.584-5.736V209.829c0-5.587,3.4-12.066,7.584-14.488l70.466-40.7c4.249-2.4,7.584.149,7.584,5.736v39.492C140.814,205.453,137.436,211.953,133.23,214.375Z" transform="translate(-22.932 44.097)" fill="url(#n)"/><path d="M94.088,127.509,17.27,171.866V168.3L94.088,123.94Z" transform="translate(19.397 139.227)" fill="#c3c3c3"/><path d="M94.088,130.379,17.27,174.736v-3.569L94.088,126.81Z" transform="translate(19.397 142.454)" fill="#c3c3c3"/><path d="M94.088,133.249,17.27,177.606v-3.569L94.088,129.68Z" transform="translate(19.397 145.681)" fill="#c3c3c3"/><path d="M178.24,188.379l-70.466,40.7c-4.249,2.4-7.584-.149-7.584-5.736V183.833c0-5.566,3.378-12.066,7.584-14.488l70.466-40.682c4.249-2.422,7.584.149,7.584,5.736V173.89C185.824,179.478,182.425,185.957,178.24,188.379Z" transform="translate(27.676 14.881)" fill="url(#o)"/><path d="M139.088,101.519,62.27,145.876v-3.569L139.088,97.95Z" transform="translate(69.994 110.005)" fill="#c3c3c3"/><path d="M117.865,110.169l-55.6,32.1v-3.59l55.6-32.078Z" transform="translate(69.994 119.73)" fill="#c3c3c3"/><path d="M110.472,115.049l-48.2,27.829v-3.569l48.2-27.829Z" transform="translate(69.994 125.217)" fill="#c3c3c3"/><path d="M184.1,75.539,107.28,119.9v-3.569L184.1,71.97Z" transform="translate(120.602 80.793)" fill="#c3c3c3"/><path d="M184.1,78.409,107.28,122.766V119.2L184.1,74.84Z" transform="translate(120.602 84.02)" fill="#c3c3c3"/><path d="M150.7,90.359,107.28,115.427v-3.569L150.7,86.79Z" transform="translate(120.602 97.456)" fill="#c3c3c3"/><path d="M261.754,211.357,85.111,313.327c-6.586,3.8-11.982-.276-11.982-9.05V284.435c0-8.774,5.4-19.119,11.982-22.88l176.642-101.97c6.586-3.8,11.96.255,11.96,9.05v19.82C273.714,197.272,268.3,207.554,261.754,211.357Z" transform="translate(-2.749 49.07)" fill="url(#p)"/><path d="M204.463,163.37l-11.9,9.942,3.038,2.124-12.746,20.8-7.457-4.907a10.049,10.049,0,0,0,.722-3.505c0-3.569-2.507-5.014-5.608-3.229a12.385,12.385,0,0,0-5.587,9.687,4.95,4.95,0,0,0,.658,2.613l-11.833,19.672a4.652,4.652,0,0,0-2.8.722,10.07,10.07,0,0,0-2.953,2.7l-8.009-3.208c0-3.569-2.507-5.014-5.608-3.229a12.385,12.385,0,0,0-5.587,9.687,4.015,4.015,0,0,0,1.445,3.463L119.02,249.471l2.528.871,11.472-23.368a5.647,5.647,0,0,0,1.36-.574,11.79,11.79,0,0,0,4.525-5.268l6.968,2.8a9.941,9.941,0,0,0-.51,2.974c0,3.569,2.507,5.014,5.587,3.229a12.343,12.343,0,0,0,5.608-9.687,4.8,4.8,0,0,0-.616-2.507l11.9-19.778a4.568,4.568,0,0,0,2.677-.722,10.241,10.241,0,0,0,2.592-2.252l9.6,6.373L197.728,176.9l3.038,2.124Z" transform="translate(48.848 54.93)" fill="#9bffd6"/><path d="M107.4,130.646v-.616l-63.8,36.837v-3L41.46,165.1v44.123L107.4,171.158v-2.486l-63.8,36.837V186.921l63.8-36.837v-.616L43.606,186.3v-9.092l63.8-36.837v-.616L43.606,176.6V172.39l63.8-36.837v-.616l-63.8,36.837v-4.291Z" transform="translate(46.596 146.075)" fill="#c3c3c3"/><path d="M52.094,177.174l-6.054,3.484V151.745l6.054-3.505Z" transform="translate(51.745 166.55)" fill="#6b5fdb"/><path d="M75.484,158.513,69.43,162V142.814l6.054-3.484Z" transform="translate(78.044 156.531)" fill="#941582"/><path d="M63.773,170.424l-6.033,3.484V145l6.033-3.505Z" transform="translate(64.9 158.96)" fill="#87d0fd"/><path d="M57.944,178.775,51.89,182.28V143.935l6.054-3.505Z" transform="translate(58.323 157.768)" fill="#9bffd6"/><path d="M69.634,169.506,63.58,172.99V139.4l6.054-3.484Z" transform="translate(71.467 152.697)" fill="#4b108a"/><g transform="translate(14.233 13.24)" opacity="0.6"><path d="M235.72,73.218V29.18L81.32,296.6l38.133-22.009Z" transform="translate(77.18 19.441)" fill="#fff"/><path d="M359.149,75.037v-1.7c0-5.46-3.314-7.966-7.414-5.608l-109.7,63.328L47.12,468.685a4.249,4.249,0,0,0,6.522,1.487l116.076-67.024Z" transform="translate(-46.228 -66.843)" fill="#fff"/><path d="M6.71,245.862v88.1L173.962,44.28,97.655,88.34Z" transform="translate(-6.71 36.42)" fill="#fff"/></g><path d="M233.25,167.6l-70.466,40.682c-4.249,2.422-7.584-.149-7.584-5.736V163.049c0-5.587,3.378-12.066,7.584-14.488l70.466-40.7c4.249-2.4,7.584.149,7.584,5.736v39.513C240.834,158.694,237.435,165.173,233.25,167.6Z" transform="translate(89.528 -8.501)" fill="url(#q)"/><path d="M228.232,102.275a4.8,4.8,0,0,0-4.971.382l-70.487,40.682c-4.249,2.422-7.584,8.9-7.584,14.488v39.492c0,3.272,1.168,5.481,2.974,6.373l20.883,10.834a6.734,6.734,0,0,1-2.592-6.033V168.9c0-5.587,3.378-12.066,7.584-14.488L244.5,113.7a5.056,5.056,0,0,1,4.631-.552Z" transform="translate(78.273 -14.347)" fill="url(#r)"/><path d="M407.544,291.778l-42.721,24.664a13.554,13.554,0,0,1-12.194-.51l-40.958-23.644c-3.611-2.124-3.994-5.247-.892-7.053l42.721-24.6a13.66,13.66,0,0,1,12.215.51l40.958,23.644C410.263,286.807,410.667,289.973,407.544,291.778Z" transform="translate(262.103 162.944)" fill="url(#s)"/><path d="M382.906,427.529V273.49h0a3.824,3.824,0,0,1-2.124,2.486L338.061,300.64a10.834,10.834,0,0,1-5.651,1.19V457.015a10.835,10.835,0,0,0,5.651-1.19l42.721-24.664A3.4,3.4,0,0,0,382.906,427.529Z" transform="translate(288.78 178.747)" fill="#ecf2fe"/><path d="M352.63,300.313l-40.958-23.581a5.5,5.5,0,0,1-2.932-3.463v154.1c-.319,1.53.68,3.25,2.932,4.546l40.958,23.644a13.871,13.871,0,0,0,6.543,1.7V302.077A13.873,13.873,0,0,1,352.63,300.313Z" transform="translate(262.101 178.5)" fill="url(#t)"/><path d="M352.63,300.313l-40.958-23.581a5.5,5.5,0,0,1-2.932-3.463v154.1c-.319,1.53.68,3.25,2.932,4.546l40.958,23.644a13.871,13.871,0,0,0,6.543,1.7V302.077A13.873,13.873,0,0,1,352.63,300.313Z" transform="translate(262.101 178.5)" fill="url(#u)"/><path d="M345.2,351.187a10.133,10.133,0,0,1-4.589,7.967c-2.528,1.466-4.589.276-4.589-2.656a10.154,10.154,0,0,1,4.589-7.945C343.158,347.087,345.2,348.276,345.2,351.187Z" transform="translate(292.839 262.439)" fill="#a0b5de"/><path d="M342.254,347.935a4.25,4.25,0,0,1,.382,1.891,10.133,10.133,0,0,1-4.589,7.966,4.249,4.249,0,0,1-1.848.616c.722,1.445,2.337,1.827,4.249.744a10.133,10.133,0,0,0,4.589-7.967C344.995,349.018,343.869,347.807,342.254,347.935Z" transform="translate(293.041 262.441)" fill="#c9d9fe"/><path d="M352.739,346.726a10.154,10.154,0,0,1-4.61,7.966c-2.528,1.466-4.589.276-4.589-2.656a10.2,10.2,0,0,1,4.589-7.967C350.678,342.647,352.739,343.815,352.739,346.726Z" transform="translate(301.294 257.425)" fill="#a0b5de"/><path d="M349.763,343.485a4.248,4.248,0,0,1,.4,1.891,10.155,10.155,0,0,1-4.61,7.966,4.249,4.249,0,0,1-1.827.616c.7,1.445,2.316,1.827,4.249.744a10.154,10.154,0,0,0,4.61-7.966C352.525,344.589,351.378,343.357,349.763,343.485Z" transform="translate(301.508 257.437)" fill="#c9d9fe"/><path d="M360.177,342.408a10.155,10.155,0,0,1-4.589,7.945c-2.549,1.466-4.589.276-4.589-2.655a10.134,10.134,0,0,1,4.589-7.945C358.117,338.286,360.177,339.476,360.177,342.408Z" transform="translate(309.682 252.545)" fill="#a0b5de"/><path d="M357.2,339.133a4.566,4.566,0,0,1,.382,1.912A10.155,10.155,0,0,1,353,348.99a4.248,4.248,0,0,1-1.848.616c.722,1.466,2.316,1.827,4.249.744a10.154,10.154,0,0,0,4.589-7.945C360.009,340.238,358.883,339.027,357.2,339.133Z" transform="translate(309.85 252.548)" fill="#c9d9fe"/><path d="M354.613,380.6a1.615,1.615,0,0,1-1.593-1.615V361.308l-15.593-8.922a1.6,1.6,0,1,1,1.593-2.783l16.421,9.475a1.657,1.657,0,0,1,.807,1.4v18.5a1.615,1.615,0,0,1-1.636,1.615Z" transform="translate(293.513 264.087)" fill="url(#v)"/><path d="M362.12,376.11a1.615,1.615,0,0,1-1.615-1.615V356.927L344.891,347.9a1.615,1.615,0,0,1-.595-2.124,1.657,1.657,0,0,1,2.124-.595l16.4,9.5a1.551,1.551,0,0,1,.807,1.381v18.5A1.614,1.614,0,0,1,362.12,376.11Z" transform="translate(301.94 259.163)" fill="url(#w)"/><path d="M369.584,371.729a1.615,1.615,0,0,1-1.615-1.593v-17.59l-15.55-9.029a1.6,1.6,0,1,1,1.615-2.762l16.4,9.475a1.551,1.551,0,0,1,.807,1.381v18.525a1.615,1.615,0,0,1-1.657,1.593Z" transform="translate(310.387 254.133)" fill="url(#x)"/><ellipse cx="18.737" cy="10.813" rx="18.737" ry="10.813" transform="translate(602.538 431.524)" fill="#9bffd6"/><path d="M355.591,276.444a29.21,29.21,0,0,1-26.47,0c-3.633-2.124-5.46-4.844-5.481-7.584v11.62c0,2.783,1.784,5.566,5.481,7.69a29.21,29.21,0,0,0,26.47,0c3.7-2.124,5.523-4.907,5.481-7.69V268.86C361.05,271.6,359.223,274.341,355.591,276.444Z" transform="translate(278.919 173.541)" fill="url(#y)"/><path d="M167.93,324.55v34.84l84.487,48.776v-34.84Z" transform="translate(188.796 364.789)" fill-rule="evenodd" fill="url(#z)"/><path d="M424.789,326.476,252.417,426,167.93,377.227,340.3,277.7Z" transform="translate(188.796 312.112)" fill-rule="evenodd" fill="url(#aa)"/><path d="M380.072,300.66V335.5L207.7,435.027v-34.84Z" transform="translate(233.512 337.927)" fill="#ecf2fe" fill-rule="evenodd"/><path d="M178.75,317.93l149.386-86.25,61.5,35.52-149.365,86.25Z" transform="translate(200.961 260.368)" fill-rule="evenodd" fill="url(#ab)"/><path d="M357.086,248.4V352.665L207.7,438.808V334.65Z" transform="translate(233.512 279.167)" fill="#ecf2fe" fill-rule="evenodd"/><path d="M178.75,272.28l61.5,35.52V411.958l-61.5-35.413Z" transform="translate(200.961 306.017)" fill-rule="evenodd" fill="url(#ac)"/><path d="M275.924,370.673l50.157-28.892a11.387,11.387,0,0,1,17,9.836v18.546a11.387,11.387,0,0,1-5.693,9.857l-50.157,28.934a11.387,11.387,0,0,1-17-9.857v-18.5a11.344,11.344,0,0,1,5.693-9.921Z" transform="translate(218.866 253.872)" fill="#c7ebf3" fill-rule="evenodd"/><path d="M273.963,401.638v-18.5a11.344,11.344,0,0,1,5.693-9.857l50.157-29a11.3,11.3,0,0,1,12.576.786c-.382-.3-.786-.552-1.19-.807l-7.01-4.61a11.217,11.217,0,0,0-11.429,0L272.6,368.5a11.344,11.344,0,0,0-5.693,9.857v18.5a11.238,11.238,0,0,0,5.693,9.857l6.989,4.631h0A11.259,11.259,0,0,1,273.963,401.638Z" transform="translate(215.133 251.374)" fill-rule="evenodd" fill="url(#ad)"/><path d="M335.6,340.64a11.533,11.533,0,0,1,.807,4.249v18.546a11.344,11.344,0,0,1-5.693,9.857l-50.157,28.934a11.174,11.174,0,0,1-9.942.68,11.387,11.387,0,0,0,16.251,5.608l50.157-28.87a11.387,11.387,0,0,0,5.693-9.857V351.177A11.323,11.323,0,0,0,335.6,340.64Z" transform="translate(219.304 254.249)" fill="#c9d9fe" fill-rule="evenodd"/><g transform="translate(495.065 604.644)"><path d="M325.406,348.011l-51.367,29.741c-.552.319-1,0-1-.744h0a2.379,2.379,0,0,1,1-1.912l51.367-29.741c.552-.319,1.02,0,1.02.744h0a2.4,2.4,0,0,1-1.02,1.912Z" transform="translate(-273.04 -345.232)" fill-rule="evenodd" fill="url(#ae)"/><path d="M325.406,350.471l-51.367,29.741c-.552.319-1,0-1-.744h0a2.379,2.379,0,0,1,1-1.912l51.367-29.741c.552-.319,1.02,0,1.02.744h0A2.4,2.4,0,0,1,325.406,350.471Z" transform="translate(-273.04 -342.466)" fill-rule="evenodd" fill="url(#af)"/><path d="M325.406,352.831l-51.367,29.741c-.552.319-1,0-1-.744h0a2.379,2.379,0,0,1,1-1.912l51.367-29.741c.552-.319,1.02,0,1.02.744h0a2.4,2.4,0,0,1-1.02,1.912Z" transform="translate(-273.04 -339.813)" fill-rule="evenodd" fill="url(#ag)"/></g><g transform="translate(422.157 236.212)"><path d="M364.866,393.593,245.688,462.38c-3.824,2.124-6.968-.149-6.968-5.247v-188.2a16.761,16.761,0,0,1,6.968-13.3l119.135-68.787c3.824-2.124,6.947.17,6.947,5.268v188.2a16.7,16.7,0,0,1-6.9,13.277Z" transform="translate(-238.72 -155.771)" fill-rule="evenodd" fill="url(#ah)"/><path d="M256.151,231.111l-11.96,6.9c-.85.51-1.551,0-1.551-1.168h0a3.718,3.718,0,0,1,1.551-2.953l11.96-6.9c.85-.489,1.551,0,1.551,1.168h0a3.7,3.7,0,0,1-1.551,2.953Z" transform="translate(-234.312 -109.961)" fill-rule="evenodd" fill="url(#ai)"/><path d="M256.151,233.831l-11.96,6.925c-.85.489-1.551,0-1.551-1.19h0a3.718,3.718,0,0,1,1.551-2.953l11.96-6.9c.85-.489,1.551,0,1.551,1.168h0a3.7,3.7,0,0,1-1.551,2.953Z" transform="translate(-234.312 -106.902)" fill-rule="evenodd" fill="url(#aj)"/><path d="M261.75,155.583l-50.9,29.38V180.82l50.9-29.38Z" transform="translate(-185.103 -66.064)" fill-rule="evenodd" fill="url(#ak)"/><path d="M262.877,147.591l-26.937,15.55V159.02l26.937-15.55Z" transform="translate(-156.892 -75.025)" fill-rule="evenodd" fill="url(#al)"/><path d="M280.87,156.931l-70.02,40.427v-4.121l70.02-40.427Z" transform="translate(-185.103 -64.524)" fill-rule="evenodd" fill="url(#am)"/><path d="M277.619,154.174,210.85,192.71v-3.633l66.769-38.557Z" transform="translate(-185.103 -67.099)" fill-rule="evenodd" fill="url(#an)"/><path d="M258.553,149.284,243.81,157.8v-3.654l14.743-8.519Z" transform="translate(-148.043 -72.597)" fill-rule="evenodd" fill="url(#ao)"/><path d="M256.151,242.941l-11.96,6.9c-.85.489-1.551,0-1.551-1.168h0a3.718,3.718,0,0,1,1.551-2.953l11.96-6.9c.85-.489,1.551,0,1.551,1.168h0a3.718,3.718,0,0,1-1.551,2.953Z" transform="translate(-234.312 -96.659)" fill-rule="evenodd" fill="url(#ap)"/><path d="M256.151,245.661l-11.96,6.9c-.85.489-1.551,0-1.551-1.168h0a3.718,3.718,0,0,1,1.551-2.953l11.96-6.9c.85-.489,1.551,0,1.551,1.168h0a3.717,3.717,0,0,1-1.551,2.953Z" transform="translate(-234.312 -93.601)" fill-rule="evenodd" fill="url(#aq)"/><path d="M256.151,249.5l-11.96,6.9c-.85.51-1.551,0-1.551-1.168h0a3.718,3.718,0,0,1,1.551-2.953l11.96-6.9c.85-.489,1.551,0,1.551,1.168h0a3.7,3.7,0,0,1-1.551,2.953Z" transform="translate(-234.312 -89.283)" fill-rule="evenodd" fill="url(#ar)"/><path d="M261.75,167.391l-50.9,29.38V192.65l50.9-29.38Z" transform="translate(-185.103 -52.763)" fill-rule="evenodd" fill="url(#as)"/><path d="M272.586,156.771l-36.646,21.18V173.83l36.646-21.18Z" transform="translate(-156.892 -64.704)" fill-rule="evenodd" fill="url(#at)"/><path d="M288.241,166.751,210.85,211.427v-4.121l77.391-44.676Z" transform="translate(-185.103 -53.482)" fill-rule="evenodd" fill="url(#au)"/><path d="M277.619,166,210.85,204.54v-3.654l66.769-38.536Z" transform="translate(-185.103 -53.797)" fill-rule="evenodd" fill="url(#av)"/><path d="M277.619,172.754,210.85,211.311v-3.654L277.619,169.1Z" transform="translate(-185.103 -46.208)" fill-rule="evenodd" fill="url(#aw)"/><path d="M258.553,161.114l-14.743,8.519v-3.654l14.743-8.519Z" transform="translate(-148.043 -59.295)" fill-rule="evenodd" fill="url(#ax)"/><path d="M256.151,257.511l-11.96,6.9c-.85.489-1.551,0-1.551-1.168h0a3.718,3.718,0,0,1,1.551-2.953l11.96-6.9c.85-.489,1.551,0,1.551,1.168h0a3.717,3.717,0,0,1-1.551,2.953Z" transform="translate(-234.312 -80.277)" fill-rule="evenodd" fill="url(#ay)"/><path d="M256.151,260.348l-11.96,6.9c-.85.489-1.551,0-1.551-1.168h0a3.718,3.718,0,0,1,1.551-2.953l11.96-7.032c.85-.489,1.551,0,1.551,1.168h0a3.717,3.717,0,0,1-1.551,3.08Z" transform="translate(-234.312 -77.23)" fill-rule="evenodd" fill="url(#az)"/><path d="M261.75,181.961l-50.9,29.38V207.22l50.9-29.38Z" transform="translate(-185.103 -36.381)" fill-rule="evenodd" fill="url(#ba)"/><path d="M262.877,173.981,235.94,189.553v-4.121l26.937-15.572Z" transform="translate(-156.892 -45.353)" fill-rule="evenodd" fill="url(#bb)"/><path d="M280.87,183.331l-70.02,40.427v-4.143l70.02-40.406Z" transform="translate(-185.103 -34.84)" fill-rule="evenodd" fill="url(#bc)"/><path d="M277.619,180.574,210.85,219.11v-3.654l66.769-38.536Z" transform="translate(-185.103 -37.415)" fill-rule="evenodd" fill="url(#bd)"/><path d="M258.553,175.684,243.81,184.2v-3.654l14.743-8.519Z" transform="translate(-148.043 -42.913)" fill-rule="evenodd" fill="url(#be)"/><path d="M256.151,269.352l-11.96,6.9c-.85.489-1.551,0-1.551-1.168h0a3.76,3.76,0,0,1,1.551-2.974l11.96-6.9c.85-.489,1.551,0,1.551,1.19h0a3.718,3.718,0,0,1-1.551,2.953Z" transform="translate(-234.312 -66.987)" fill-rule="evenodd" fill="url(#bf)"/><path d="M256.162,272.1l-11.982,6.84c-.85.489-1.551,0-1.551-1.168h0a3.7,3.7,0,0,1,1.551-2.953l11.96-6.9c.85-.51,1.551,0,1.551,1.168h0A3.718,3.718,0,0,1,256.162,272.1Z" transform="translate(-234.324 -63.956)" fill-rule="evenodd" fill="url(#bg)"/><path d="M256.151,275.9l-11.96,6.9c-.85.489-1.551,0-1.551-1.168h0a3.718,3.718,0,0,1,1.551-2.953l11.96-6.9c.85-.489,1.551,0,1.551,1.168h0a3.717,3.717,0,0,1-1.551,2.953Z" transform="translate(-234.312 -59.6)" fill-rule="evenodd" fill="url(#bh)"/><path d="M249.153,197.211l-38.3,22.115V215.2l38.3-22.115Z" transform="translate(-185.103 -19.234)" fill-rule="evenodd" fill="url(#bi)"/><path d="M278.039,183.171,231.09,210.3v-4.143l46.949-27.107Z" transform="translate(-162.345 -35.02)" fill-rule="evenodd" fill="url(#bj)"/><path d="M288.241,193.151,210.85,237.827v-4.121l77.391-44.676Z" transform="translate(-185.103 -23.799)" fill-rule="evenodd" fill="url(#bk)"/><path d="M257.8,197.784,210.85,224.891v-3.654L257.8,194.13Z" transform="translate(-185.103 -18.064)" fill-rule="evenodd" fill="url(#bl)"/><path d="M293.552,194.824l-82.7,47.735v-3.633l82.7-47.756Z" transform="translate(-185.103 -21.393)" fill-rule="evenodd" fill="url(#bm)"/><path d="M268,187.5,235.41,206.326v-3.654L268,183.85Z" transform="translate(-157.488 -29.623)" fill-rule="evenodd" fill="url(#bn)"/><path d="M256.151,283.922l-11.96,6.9c-.85.489-1.551,0-1.551-1.168h0a3.76,3.76,0,0,1,1.551-2.974l11.96-6.9c.85-.489,1.551,0,1.551,1.19h0A3.717,3.717,0,0,1,256.151,283.922Z" transform="translate(-234.312 -50.604)" fill-rule="evenodd" fill="url(#bo)"/><path d="M256.151,286.636l-11.96,6.9c-.85.489-1.551,0-1.551-1.168h0a3.7,3.7,0,0,1,1.551-2.953l11.96-6.9c.85-.51,1.551,0,1.551,1.168h0A3.718,3.718,0,0,1,256.151,286.636Z" transform="translate(-234.312 -47.54)" fill-rule="evenodd" fill="url(#bp)"/><path d="M261.75,208.361l-50.9,29.38V233.62l50.9-29.38Z" transform="translate(-185.103 -6.697)" fill-rule="evenodd" fill="url(#bq)"/><path d="M271.885,197.953,235.94,218.708v-4.143l35.945-20.755Z" transform="translate(-156.892 -18.424)" fill-rule="evenodd" fill="url(#br)"/><path d="M266.041,213.751,210.85,245.617V241.5l55.191-31.866Z" transform="translate(-185.103 -0.637)" fill-rule="evenodd" fill="url(#bs)"/><path d="M250.746,214.274,210.85,237.3v-3.654l39.9-23.028Z" transform="translate(-185.103 0.477)" fill-rule="evenodd" fill="url(#bt)"/><path d="M273.6,202.063,230.43,227v-3.654L273.6,198.43Z" transform="translate(-163.087 -13.23)" fill-rule="evenodd" fill="url(#bu)"/><path d="M256.151,295.731l-11.96,6.9c-.85.51-1.551,0-1.551-1.168h0a3.718,3.718,0,0,1,1.551-2.953l11.96-6.9c.85-.489,1.551,0,1.551,1.168h0a3.7,3.7,0,0,1-1.551,2.953Z" transform="translate(-234.312 -37.303)" fill-rule="evenodd" fill="url(#bv)"/><path d="M256.151,298.451l-11.96,6.925c-.85.489-1.551,0-1.551-1.19h0a3.718,3.718,0,0,1,1.551-2.953l11.96-6.9c.85-.489,1.551,0,1.551,1.168h0a3.7,3.7,0,0,1-1.551,2.953Z" transform="translate(-234.312 -34.245)" fill-rule="evenodd" fill="url(#bw)"/><path d="M261.75,220.2l-50.9,29.38V245.44l50.9-29.38Z" transform="translate(-185.103 6.593)" fill-rule="evenodd" fill="url(#bx)"/><path d="M272.586,209.571,235.94,230.73v-4.121l36.646-21.159Z" transform="translate(-156.892 -5.336)" fill-rule="evenodd" fill="url(#by)"/><path d="M288.241,219.551,210.85,264.227v-4.121l77.391-44.676Z" transform="translate(-185.103 5.885)" fill-rule="evenodd" fill="url(#bz)"/><path d="M277.619,218.794,210.85,257.33V253.7l66.769-38.557Z" transform="translate(-185.103 5.559)" fill-rule="evenodd" fill="url(#ca)"/><path d="M277.619,225.554,210.85,264.09v-3.654L277.619,221.9Z" transform="translate(-185.103 13.16)" fill-rule="evenodd" fill="url(#cb)"/><path d="M258.553,213.9l-14.743,8.519v-3.654l14.743-8.519Z" transform="translate(-148.043 0.061)" fill-rule="evenodd" fill="url(#cc)"/><path d="M312.834,198.035l-28.042,16.188c-5.184,3-9.432-.212-9.432-7.117h0c0-6.9,4.249-15,9.432-17.993l28.042-16.188c5.183-3,9.411.212,9.411,7.117h0C322.266,186.945,318.039,195.039,312.834,198.035Z" transform="translate(-197.523 -171.801)" fill="url(#cd)"/><path d="M288.8,194.587,282,190.7l.446-.786c3.951-6.9,6.055-10.622,6.246-10.813l.382.425.382.361c-.276.446-3.42,5.906-5.63,9.751l5.821,3.357Z" transform="translate(-190.057 -163.595)" fill="url(#ce)"/><path d="M288.094,193.208l6.734-11.642-.467-.276c-3.951-2.337-6.055-3.548-6.246-3.59l-.361.829-.4.829c.3.127,3.441,1.954,5.63,3.25l-5.8,10.07Z" transform="translate(-184.233 -165.169)" fill="url(#cf)"/></g><path d="M189.58,477.985l38.515,22.242,126.379-72.972V111.572L315.959,89.33,189.58,162.3Z" transform="translate(213.139 100.312)" fill-rule="evenodd" fill="url(#cg)"/><path d="M273.732,368.5l-42.7,24.749a13.6,13.6,0,0,1-12.215-.51L177.859,369.1c-3.611-2.124-3.994-5.247-.871-7.053L219.751,337.3a13.66,13.66,0,0,1,12.215.51l40.894,23.581C276.451,363.51,276.855,366.7,273.732,368.5Z" transform="translate(111.652 249.139)" fill="url(#ch)"/><path d="M249.073,504.261V350.18h0a3.867,3.867,0,0,1-2.124,2.486l-42.636,24.749a10.919,10.919,0,0,1-5.672,1.19V533.811a11.13,11.13,0,0,0,5.672-1.211l42.7-24.664a3.441,3.441,0,0,0,2.061-3.675Z" transform="translate(138.371 264.975)" fill="#ecf2fe"/><path d="M218.82,377.022l-40.958-23.644A5.5,5.5,0,0,1,174.931,350V504.017c-.319,1.53.68,3.25,2.932,4.546l40.958,23.644a14.148,14.148,0,0,0,6.543,1.721V378.722a13.872,13.872,0,0,1-6.543-1.7Z" transform="translate(111.648 264.773)" fill="url(#ci)"/><path d="M218.82,377.022l-40.958-23.644A5.5,5.5,0,0,1,174.931,350V504.017c-.319,1.53.68,3.25,2.932,4.546l40.958,23.644a14.148,14.148,0,0,0,6.543,1.721V378.722a13.872,13.872,0,0,1-6.543-1.7Z" transform="translate(111.648 264.773)" fill="url(#cj)"/><path d="M210.059,426.368a10.154,10.154,0,0,1-4.61,7.945c-2.528,1.466-4.589.276-4.589-2.655a10.155,10.155,0,0,1,4.589-7.945C208,422.246,210.059,423.436,210.059,426.368Z" transform="translate(140.868 346.948)" fill="#a0b5de"/><path d="M207.083,423.1a4.249,4.249,0,0,1,.4,1.891,10.154,10.154,0,0,1-4.61,7.966,4.249,4.249,0,0,1-1.827.616c.7,1.445,2.316,1.827,4.249.744a10.154,10.154,0,0,0,4.61-7.945C209.845,424.183,208.7,422.909,207.083,423.1Z" transform="translate(141.081 346.944)" fill="#c9d9fe"/><path d="M217.579,421.9a10.2,10.2,0,0,1-4.589,7.966c-2.549,1.466-4.61.276-4.61-2.655a10.112,10.112,0,0,1,4.61-7.945C215.518,417.8,217.579,418.986,217.579,421.9Z" transform="translate(149.323 341.944)" fill="#a0b5de"/><path d="M214.6,418.645a4.25,4.25,0,0,1,.4,1.891,10.2,10.2,0,0,1-4.589,7.966,4.4,4.4,0,0,1-1.848.616c.7,1.445,2.316,1.827,4.249.743a10.2,10.2,0,0,0,4.589-7.966C217.365,419.728,216.239,418.517,214.6,418.645Z" transform="translate(149.537 341.946)" fill="#c9d9fe"/><path d="M225.017,417.568a10.155,10.155,0,0,1-4.589,7.945c-2.528,1.466-4.589.276-4.589-2.634a10.2,10.2,0,0,1,4.589-7.966C222.957,413.446,225.017,414.636,225.017,417.568Z" transform="translate(157.711 337.053)" fill="#a0b5de"/><path d="M222.074,414.293a4.249,4.249,0,0,1,.382,1.912,10.091,10.091,0,0,1-4.589,7.945,4.25,4.25,0,0,1-1.848.616c.722,1.466,2.337,1.827,4.249.743a10.154,10.154,0,0,0,4.589-7.945C224.815,415.4,223.689,414.187,222.074,414.293Z" transform="translate(157.913 337.056)" fill="#c9d9fe"/><path d="M219.423,455.681a1.615,1.615,0,0,1-1.615-1.615v-17.59l-15.614-8.922a1.615,1.615,0,0,1,1.615-2.783l16.4,9.475a1.614,1.614,0,0,1,.807,1.4v18.5a1.614,1.614,0,0,1-1.593,1.53Z" transform="translate(141.594 348.671)" fill="url(#ck)"/><path d="M226.968,451.319a1.615,1.615,0,0,1-1.615-1.593v-17.59l-15.614-9.029a1.6,1.6,0,0,1,1.615-2.762l16.421,9.475a1.572,1.572,0,0,1,.786,1.381v18.525a1.615,1.615,0,0,1-1.593,1.593Z" transform="translate(149.96 343.622)" fill="url(#cl)"/><path d="M234.455,446.886a1.593,1.593,0,0,1-1.615-1.593V427.7L217.247,418.7a1.6,1.6,0,1,1,1.593-2.783l16.421,9.475a1.572,1.572,0,0,1,.786,1.381v18.525a1.572,1.572,0,0,1-1.593,1.593Z" transform="translate(158.386 338.645)" fill="url(#cm)"/><path d="M221.93,342.958c7.308,4.249,7.308,11.068,0,15.3a29.38,29.38,0,0,1-26.491,0c-7.329-4.249-7.329-11.068,0-15.3a29.253,29.253,0,0,1,26.491,0Z" transform="translate(128.592 253.29)" fill="#9bffd6"/><path d="M221.922,352.505a29.38,29.38,0,0,1-26.491,0c-3.633-2.124-5.46-4.844-5.481-7.605v11.62c0,2.8,1.784,5.587,5.481,7.712a29.253,29.253,0,0,0,26.491,0c3.675-2.124,5.5-4.907,5.481-7.712V344.9C227.4,347.662,225.576,350.4,221.922,352.505Z" transform="translate(128.601 259.039)" fill="url(#cn)"/><path d="M114.9,145.324l40.363-23.3,40.363,23.3-40.363,23.517Z" transform="translate(129.17 137.068)" fill="#c9d9fe"/><path d="M133.9,156.507v93.961l40.363-24.324V132.99Z" transform="translate(150.533 149.403)" fill="#ecf2fe"/><path d="M114.9,132.99l40.363,23.517v93.961L114.9,226.356Z" transform="translate(129.17 149.403)" fill="#becff4"/><path d="M153.74,300.933c0,.807.574,1.508,1.657,2.124.3.212,0-4.355,1.02-3.59.3.212,14.871,11.62,23.134,9.517a1.721,1.721,0,0,0,1.211-1.763v-1.848c.127-2.124-2.974-5.226-7.648-9.793-5.162-5.035-8.5-8.179-16.188-3.718-2.124,1.275-3.08,2.231-3.1,3.038Z" transform="translate(87.887 197)"/><path d="M173.09,295.559c6.224,6.076,9.645,9.666,6.373,11.514s-9.6-.935-16.188-5.885c-5.736-4.355-14.148-4.886-6.373-9.347S167.928,290.524,173.09,295.559Z" transform="translate(87.911 196.977)" fill="#4a4a67"/><path d="M172.388,319.727l-.4-47.947a5.608,5.608,0,0,0-3.611-5.2l-3.739-1.445L148.85,275.624l7.711,3.909a73.121,73.121,0,0,0,2.337,25.684s2.656,5.4,2.124,17.972C161.023,323.189,169.435,325.824,172.388,319.727Z" transform="translate(82.389 169.347)" fill="url(#co)"/><path d="M142.91,306.283c0,.807.552,1.508,1.636,2.124.3.212,0-4.355,1.02-3.59.3.212,14.871,11.62,23.134,9.517a1.763,1.763,0,0,0,1.232-1.763v-1.848c.106-2.124-2.974-5.226-7.669-9.793-5.162-5.035-8.5-8.179-16.167-3.718-2.124,1.275-3.1,2.231-3.1,3.038Z" transform="translate(75.71 203.015)"/><path d="M162.226,300.959c6.246,6.076,9.645,9.666,6.373,11.514s-9.6-.935-16.167-5.906c-5.757-4.249-14.17-4.865-6.373-9.326S157.106,295.924,162.226,300.959Z" transform="translate(75.705 203.049)" fill="#4a4a67"/><path d="M159.133,326.2l-.467-56.126-18.546,6.012,3.165,9.135a67.98,67.98,0,0,0,2.358,24.622s2.634,5.4,2.124,17.972C147.768,327.811,154.587,331.677,159.133,326.2Z" transform="translate(72.573 174.901)" fill="url(#cp)"/><path d="M142.1,270.818s20.67-18.8,8.073-52.238l-9.687,34.712Z" transform="translate(72.989 117.007)" fill="#444990"/><path d="M165.685,300.929h0a6.1,6.1,0,0,1-7.563-4.1l-16.57-56.487a6.1,6.1,0,0,1,4.1-7.563h0a6.118,6.118,0,0,1,7.563,4.121l16.57,56.466A6.1,6.1,0,0,1,165.685,300.929Z" transform="translate(73.902 132.699)" fill="url(#cq)"/><path d="M163.091,257.66l28,17.314s-9.772-2.379-34.9,24.2L128.57,283.238Z" transform="translate(59.586 160.948)" fill="url(#cr)"/><path d="M136.714,315.808a1.636,1.636,0,0,0,.786.255c4.058.319,18.695-2.868,33.353-19.374a7.754,7.754,0,0,0,1.976-4.737V245.108a7.669,7.669,0,0,0-3.293-7.138l-11-6.373a7.69,7.69,0,0,0-7.839.722l-15.019,8.667a24.452,24.452,0,0,0-11.026,19.119v47.119a2.379,2.379,0,0,0,1.062,2.252Z" transform="translate(55.16 130.8)" fill="url(#cs)"/><path d="M130.286,310.342h0a6.1,6.1,0,0,1-6.076-6.1V245.7a6.1,6.1,0,0,1,6.076-6.1h0a6.1,6.1,0,0,1,6.076,6.1v58.484a6.1,6.1,0,0,1-6.076,6.161Z" transform="translate(54.684 140.642)" fill="url(#ct)"/><path d="M131.1,244.8a3.866,3.866,0,0,0,2.273,3.229,12.194,12.194,0,0,0,10.983,0,3.866,3.866,0,0,0,2.273-3.229V234.6a3.867,3.867,0,0,0-2.273-3.229,12.194,12.194,0,0,0-10.983,0A3.866,3.866,0,0,0,131.1,234.6Z" transform="translate(62.431 129.921)" fill="#ca9270"/><path d="M167.465,235.822a21.392,21.392,0,1,1-21.371-21.392A21.392,21.392,0,0,1,167.465,235.822Z" transform="translate(55.212 112.341)" fill="url(#cu)"/><path d="M153.227,277.733s-15.912-17.526-4.865-49.987l19.8,6.819s6.8-16.868-15.593-21.754c0,0-14.871-3.229-20.118,9.092,0,0-12,.977-7.457,25.641C124.994,247.631,125.631,271,153.227,277.733Z" transform="translate(54.41 110.093)" fill="#444990"/><path d="M127.78,237.26" transform="translate(58.698 138.011)" fill="#242424"/><path d="M141.61,277.2" transform="translate(74.248 182.918)" fill="#72a3f5"/><path d="M323.574,390.889h0a5.651,5.651,0,0,0,7.457-2.8l18.185-40.045a5.651,5.651,0,0,0-2.8-7.457h0a5.651,5.651,0,0,0-7.457,2.8L320.77,383.432a5.672,5.672,0,0,0,2.8,7.457Z" transform="translate(275.139 253.625)" fill="url(#cv)"/><path d="M326.4,353.5l5.863-12.916a8.753,8.753,0,0,1,11.535-4.249h0a8.752,8.752,0,0,1,4.249,11.535l-5.863,12.916S333.368,365.523,326.4,353.5Z" transform="translate(282.022 248.527)" fill="url(#cw)"/><path d="M347.719,367.33a4.014,4.014,0,0,1,.425,1.7v19.119c0,3.718-3.739,6.819-8.5,6.9h0c-4.674,0-8.5-2.932-8.625-6.649v-24.26a2.124,2.124,0,0,1,1.466-2.124C335.759,361.042,343.492,359.512,347.719,367.33Z" transform="translate(287.215 277.376)" fill="#4556c5"/><path d="M366.669,383.725c2.273.977.743,6.862.85,12.576.127,7.924-1.572,15.423-5.056,17.526a2.316,2.316,0,0,1-2.337.234l-3.526-1.954c-2.124-1-3.441-5.651-5.332-12.6-2.124-7.626-3.356-12.47,5.035-17.5,2.4-1.445,3.781-1.784,4.589-1.381Z" transform="translate(308.225 299.028)"/><path d="M351.257,399.469c2.507,9.241,4.143,14.425,7.627,12.343s4.249-9.73,2.953-18.695c-1.1-7.839,2.847-16.209-5.545-11.153S349.175,391.843,351.257,399.469Z" transform="translate(308.235 298.983)" fill="#22223a"/><path d="M370.554,404.654a3.654,3.654,0,0,1-1.678-.489l-34.67-19.119c-3.25-1.806-4.058-6.649-1.763-10.749h0c2.273-4.1,6.777-5.969,10.048-4.249l39.152,21.86a2.125,2.125,0,0,1,1.062,2.316C381.983,397.474,379.455,404.952,370.554,404.654Z" transform="translate(287.345 286.597)" fill="url(#cx)"/><path d="M362.933,405.919c.255,2.464-5.63,3.994-10.622,6.841-6.862,3.951-14.255,6.118-17.76,4.079a2.358,2.358,0,0,1-1.36-1.933v-4.036c-.127-2.273,3.272-5.736,8.5-10.771,5.693-5.523,9.3-8.965,17.781-4.079,2.422,1.4,3.4,2.443,3.42,3.335Z" transform="translate(289.655 313.883)"/><path d="M341.644,400.07c-6.862,6.692-10.622,10.622-7.074,12.746s10.622-1.02,17.76-6.479c6.373-4.78,15.55-5.353,7.074-10.261S347.316,394.547,341.644,400.07Z" transform="translate(289.679 313.912)" fill="#22223a"/><path d="M339.974,430.04a3.632,3.632,0,0,1-.4-1.7V369.5c0-3.718,3.845-6.756,8.5-6.756h0c4.695,0,8.5,3.038,8.5,6.756v63.9a2.124,2.124,0,0,1-1.53,2.124C351.849,436.52,344.074,437.943,339.974,430.04Z" transform="translate(296.83 279.098)" fill="url(#cy)"/><path d="M363.983,412.53a1.53,1.53,0,0,1-.7.234c-3.781.3-17.335-2.656-30.888-17.93a7.074,7.074,0,0,1-1.848-4.4V347.078a7.138,7.138,0,0,1,3.123-6.564l10.2-5.948a7.138,7.138,0,0,1,7.265.68l13.893,8.03a22.646,22.646,0,0,1,10.218,17.675v43.613a2.124,2.124,0,0,1-1,2.124Z" transform="translate(286.65 246.643)" fill="url(#cz)"/><path d="M352.055,346.748a3.569,3.569,0,0,1-2.124,3,11.3,11.3,0,0,1-10.176,0,3.569,3.569,0,0,1-2.124-3v-9.432a3.569,3.569,0,0,1,2.124-3,11.3,11.3,0,0,1,10.176,0,3.569,3.569,0,0,1,2.124,3Z" transform="translate(294.649 245.783)" fill="#d5a69b"/><path d="M377.309,395.158h0a5.672,5.672,0,0,0,2.486-7.563l-19.863-39.258a5.63,5.63,0,0,0-7.563-2.486h0a5.672,5.672,0,0,0-2.486,7.563l19.863,39.259a5.651,5.651,0,0,0,7.563,2.486Z" transform="translate(307.761 259.426)" fill="url(#da)"/><path d="M353.617,366.1l-6.373-12.746a8.731,8.731,0,0,1,3.845-11.705h0a8.731,8.731,0,0,1,11.705,3.845l6.373,12.746S367.34,368.177,353.617,366.1Z" transform="translate(304.41 254.329)" fill="url(#db)"/><ellipse cx="19.799" cy="19.799" rx="19.799" ry="19.799" transform="translate(613.51 578.845) rotate(-67.63)" fill="url(#dc)"/><path d="M369.274,319.965c17,5.821,8.5,30.527-3.8,39.428-6.012-3.293,1.3-9.177-6.9-5.077-1.636-7.945,2.124-5.523-.191-15.529-8.5,4.482-25.344-.956-27.936-9.241,3-1.338,6.139-9.836,13.129-12.959C352.6,312.509,364.133,314.272,369.274,319.965Z" transform="translate(286.565 224.703)" fill="#9e6d37" fill-rule="evenodd"/><path d="M344.06,336.874c0,2.358,1.657,3.314,3.7,2.124a8.179,8.179,0,0,0,3.7-6.373c0-2.358-1.657-3.314-3.7-2.124a8.158,8.158,0,0,0-3.7,6.373Z" transform="translate(301.879 242.273)" fill="#dfaa86"/><path d="M159.472,196.938c-.127,2.422,3.505,5.8,9.071,9.007,7.372,4.249,9.985,9.666,19.119,4.4,2.613-1.508,3.7-2.719,3.76-3.76V200.91c.255-2.634-6.076-4.249-11.387-7.35-7.372-4.249-15.317-6.564-19.119-4.376a2.507,2.507,0,0,0-1.445,2.124Z" transform="translate(94.328 83.012)"/><path d="M168.542,200.209c-7.393-4.249-11.408-8.837-7.627-11.026s11.748.127,19.119,4.376,16.74,5.778,7.626,11.047S175.914,204.479,168.542,200.209Z" transform="translate(94.329 83.012)" fill="#5c2cb7"/><path d="M169.132,190.3c-.127,2.4,3.505,5.8,9.05,9.007,7.393,4.249,10.006,9.666,19.119,4.4,2.613-1.508,3.718-2.719,3.781-3.76V194.27c.255-2.634-6.076-4.249-11.387-7.35-7.372-4.249-15.338-6.586-19.119-4.4a2.507,2.507,0,0,0-1.445,2.124Z" transform="translate(105.189 75.525)"/><path d="M178.181,193.569c-7.372-4.249-11.387-8.859-7.605-11.047s11.748.149,19.119,4.4,16.74,5.778,7.605,11.047S185.574,197.839,178.181,193.569Z" transform="translate(105.19 75.525)" fill="#5c2cb7"/><path d="M173.615,190.993h0A6.054,6.054,0,0,1,170,183.239l16.188-44.463a6.076,6.076,0,0,1,7.775-3.611h0a6.055,6.055,0,0,1,3.611,7.754l-16.209,44.463A6.054,6.054,0,0,1,173.615,190.993Z" transform="translate(105.762 22.804)" fill="#f1c968"/><path d="M192.36,156.689l5.226-14.34a9.39,9.39,0,0,0-5.587-12h0a9.39,9.39,0,0,0-12,5.587l-5.226,14.34S177.978,160.683,192.36,156.689Z" transform="translate(111.533 17.169)" fill="url(#dd)"/><path d="M183.88,231.319a3.845,3.845,0,0,0,.425-1.827V166.185c0-3.994-4.249-7.265-9.177-7.265h0c-5.056,0-9.177,3.272-9.177,7.265v68.83a2.337,2.337,0,0,0,1.636,2.231C171.091,238.393,179.44,239.816,183.88,231.319Z" transform="translate(101.615 49.927)" fill="url(#de)"/><path d="M193.209,224.48a3.846,3.846,0,0,0,.425-1.827V159.347c0-3.994-4.121-7.287-9.177-7.287h0c-5.035,0-9.156,3.293-9.156,7.287v68.83a2.294,2.294,0,0,0,1.615,2.124C180.441,231.469,188.79,232.978,193.209,224.48Z" transform="translate(112.128 42.214)" fill="url(#df)"/><path d="M173.7,212.6a1.636,1.636,0,0,0,.786.255c4.058.319,18.631-2.868,33.225-19.311a7.648,7.648,0,0,0,1.976-4.716V142.092a7.648,7.648,0,0,0-3.272-7.117L195.428,128.6a7.648,7.648,0,0,0-7.818.7l-14.871,8.646a24.367,24.367,0,0,0-10.983,19.119V204a2.422,2.422,0,0,0,1.062,2.252Z" transform="translate(96.887 14.984)" fill="url(#dg)"/><path d="M169.37,141.764a3.824,3.824,0,0,0,2.273,3.208,12.109,12.109,0,0,0,10.941,0,3.8,3.8,0,0,0,2.252-3.208V131.609a3.781,3.781,0,0,0-2.252-3.208,12.109,12.109,0,0,0-10.941,0,3.8,3.8,0,0,0-2.273,3.208Z" transform="translate(105.461 14.144)" fill="#ca9270"/><path d="M205.488,132.814a21.244,21.244,0,1,1-21.244-21.244,21.244,21.244,0,0,1,21.244,21.244Z" transform="translate(98.299 -3.313)" fill="url(#dh)"/><path d="M168.636,178.91h0a6.1,6.1,0,0,1-5.885-6.246l.871-24.239a6.1,6.1,0,0,1,6.246-5.885h0a6.1,6.1,0,0,1,5.863,6.246l-.85,24.26A6.076,6.076,0,0,1,168.636,178.91Z" transform="translate(98.016 31.508)" fill="url(#di)"/><path d="M180.206,162.191l.489-15.253a9.411,9.411,0,0,0-9.071-9.666h0a9.432,9.432,0,0,0-9.666,9.071L161.49,161.6S167.8,170.561,180.206,162.191Z" transform="translate(96.601 25.582)" fill="url(#dj)"/><path d="M151.428,151.846h0a6.1,6.1,0,0,1,8.051-2.932l25.3,11.854a6.076,6.076,0,0,1,2.932,8.051h0a6.076,6.076,0,0,1-8.051,2.932L154.36,159.9a6.076,6.076,0,0,1-2.932-8.051Z" transform="translate(84.654 38.051)" fill="url(#dk)"/><path d="M196.316,155.473c-6.713,3.93-11.854.956-13.681-1.891-4.589-7.117-5.353-2.358-8.094-5.715-3.59-5.906-2.783-13.936-7.754-17.654-7.138-5.332-5.183-15.954,13.447-20.691,25.025-6.373,34.882,25.153,19.268,43.38A9.581,9.581,0,0,1,196.316,155.473Z" transform="translate(98.251 -6.555)" fill="#30190a" fill-rule="evenodd"/><path d="M171.955,132.817c-1.806,1.806-3.781,1.275-4.44-1.19a8.774,8.774,0,0,1,2.124-7.69,2.422,2.422,0,0,1,4.44,1.19A8.816,8.816,0,0,1,171.955,132.817Z" transform="translate(103.173 9.367)" fill="#dfaa86"/><path d="M286.842,430.447c-.127,2.4,3.505,5.8,9.071,9.007,7.372,4.249,9.985,9.666,19.119,4.4,2.613-1.508,3.7-2.719,3.76-3.76V434.42c.255-2.634-6.076-4.249-11.365-7.35-7.393-4.249-15.338-6.586-19.119-4.4a2.571,2.571,0,0,0-1.445,2.124Z" transform="translate(237.54 345.545)"/><path d="M295.912,433.719c-7.393-4.249-11.408-8.859-7.626-11.047s11.748.149,19.119,4.4,16.719,5.778,7.605,11.047S303.283,437.989,295.912,433.719Z" transform="translate(237.541 345.545)" fill="#2b155e"/><path d="M296.5,423.8c-.127,2.4,3.505,5.8,9.071,9.007,7.372,4.249,9.985,9.645,19.119,4.376,2.613-1.508,3.7-2.7,3.76-3.739V427.77c.255-2.634-6.076-4.249-11.387-7.35-7.372-4.249-15.317-6.586-19.119-4.4a2.549,2.549,0,0,0-1.445,2.124Z" transform="translate(248.401 338.068)"/><path d="M305.572,427.07c-7.393-4.249-11.408-8.859-7.626-11.047s11.748.128,19.119,4.4,16.74,5.778,7.626,11.047S312.943,431.319,305.572,427.07Z" transform="translate(248.402 338.066)" fill="#2b155e"/><path d="M299.981,338.239h0a6.076,6.076,0,0,1,7.9,3.293l17.993,43.762a6.076,6.076,0,0,1-3.293,7.924h0a6.118,6.118,0,0,1-7.924-3.314l-17.972-43.762a6.076,6.076,0,0,1,3.293-7.9Z" transform="translate(248.108 251.042)" fill="url(#dl)"/><path d="M302.18,364.043l5.8,14.127a9.411,9.411,0,0,0,12.236,5.1h0a9.411,9.411,0,0,0,5.1-12.236l-5.8-14.106S310.125,351.4,302.18,364.043Z" transform="translate(254.79 271.21)" fill="url(#dm)"/><path d="M311.25,464.87a3.846,3.846,0,0,0,.425-1.827V399.737c0-3.994-4.121-7.287-9.177-7.287h0c-5.035,0-9.177,3.293-9.177,7.287v68.83a2.273,2.273,0,0,0,1.636,2.124C298.482,471.838,306.81,473.368,311.25,464.87Z" transform="translate(244.828 312.503)" fill="url(#dn)"/><path d="M320.578,457.969a3.847,3.847,0,0,0,.425-1.827V392.857c0-4.015-4.121-7.287-9.156-7.287h0c-5.056,0-9.177,3.272-9.177,7.287v68.83a2.294,2.294,0,0,0,1.636,2.124C307.811,464.937,316.117,466.466,320.578,457.969Z" transform="translate(255.341 304.767)" fill="url(#do)"/><path d="M301.132,446.094a1.722,1.722,0,0,0,.765.255c4.058.319,18.631-2.868,33.225-19.311a7.52,7.52,0,0,0,1.976-4.716V375.586a7.647,7.647,0,0,0-3.272-7.117L322.864,362.1a7.669,7.669,0,0,0-7.818.722l-14.977,8.646a24.367,24.367,0,0,0-10.983,19.013V437.4a2.422,2.422,0,0,0,1.062,2.252Z" transform="translate(240.054 277.533)" fill="url(#dp)"/><path d="M296.74,375.265a3.824,3.824,0,0,0,2.273,3.208,12.109,12.109,0,0,0,10.94,0,3.8,3.8,0,0,0,2.252-3.208V365.089a3.824,3.824,0,0,0-2.252-3.208,12.108,12.108,0,0,0-10.941,0,3.866,3.866,0,0,0-2.273,3.208Z" transform="translate(248.673 276.664)" fill="#ca9270"/><circle cx="21.286" cy="21.286" r="21.286" transform="translate(523.053 625.548) rotate(-45)" fill="url(#dq)"/><path d="M276.94,349.634h0a6.076,6.076,0,0,1,8.5,1.253l26.64,37.708a6.076,6.076,0,0,1-1.253,8.5h0a6.076,6.076,0,0,1-8.5-1.232l-26.618-37.729A6.076,6.076,0,0,1,276.94,349.634Z" transform="translate(223.67 263.015)" fill="url(#dr)"/><path d="M284.26,374.917l9.114,12.236a9.39,9.39,0,0,0,13.107,1.912h0a9.39,9.39,0,0,0,1.912-13.107l-9.114-12.236S288.827,360.705,284.26,374.917Z" transform="translate(234.641 279.9)" fill="url(#ds)"/><path d="M323.656,388.973c-6.713,3.909-11.833.935-13.66-1.891-4.61-7.117-5.375-2.379-8.094-5.715-3.59-5.906-2.8-13.936-7.775-17.654-7.138-5.332-5.184-15.954,13.447-20.691,25.025-6.373,34.9,25.153,19.268,43.38A10.132,10.132,0,0,1,323.656,388.973Z" transform="translate(241.429 255.987)" fill="#444990" fill-rule="evenodd"/><path d="M299.322,366.277c-1.784,1.806-3.781,1.275-4.44-1.19a8.837,8.837,0,0,1,2.124-7.69,2.422,2.422,0,0,1,4.44,1.19,8.753,8.753,0,0,1-2.124,7.69Z" transform="translate(246.388 271.865)" fill="#dfaa86"/></g></g></svg>