<svg xmlns="http://www.w3.org/2000/svg" width="650.34" height="633.682" viewBox="0 0 650.34 633.682"><defs><style>.a{fill:#5cdb95;}</style></defs><g transform="translate(0 -6.558)"><path class="a" d="M389.174,146.572A31.792,31.792,0,1,0,363.8,133.888L311.628,206.8a31.667,31.667,0,0,0-31.5,6.938L245.349,194a31.755,31.755,0,1,0-62.085,0l-34.777,19.734a31.709,31.709,0,1,0,9.427,16.558l34.777-19.734a31.675,31.675,0,0,0,43.23,0L270.7,230.3a31.757,31.757,0,1,0,56.414-12.4l52.175-72.91A31.659,31.659,0,0,0,389.174,146.572Zm0-44.458a12.7,12.7,0,1,1-12.7,12.7A12.717,12.717,0,0,1,389.174,102.114ZM126.869,249.672a12.7,12.7,0,1,1,12.7-12.7A12.717,12.717,0,0,1,126.869,249.672ZM214.3,200.027a12.7,12.7,0,1,1,12.7-12.7A12.717,12.717,0,0,1,214.3,200.027Zm87.435,49.646a12.7,12.7,0,1,1,12.7-12.7A12.717,12.717,0,0,1,301.739,249.672Z" transform="translate(25.7 20.671)"/><path class="a" d="M531.953,467.98H26.947a7.9,7.9,0,0,1-7.894-7.894V67.063a7.9,7.9,0,0,1,7.894-7.894H71.856a9.526,9.526,0,0,0,0-19.053H26.947A26.978,26.978,0,0,0,0,67.063V460.086a26.978,26.978,0,0,0,26.947,26.947H92.633V508a21.685,21.685,0,0,0,21.661,21.661h95.359L164.763,617.3a9.526,9.526,0,1,0,16.957,8.686l49.338-96.326H336.386l49.338,96.326a9.526,9.526,0,1,0,16.957-8.686l-44.889-87.641h95.359A21.684,21.684,0,0,0,474.812,508V487.033h57.141a9.526,9.526,0,0,0,0-19.053ZM455.759,508a2.611,2.611,0,0,1-2.608,2.608H114.293A2.611,2.611,0,0,1,111.686,508V487.033H455.759Z" transform="translate(0 9.067)"/><path class="a" d="M88.6,68.236H519.131a7.9,7.9,0,0,1,7.894,7.894v90.579a9.526,9.526,0,1,0,19.053,0V76.13a26.978,26.978,0,0,0-26.947-26.947h-203.9V30.458a23.928,23.928,0,0,0-23.9-23.9H233.386a23.928,23.928,0,0,0-23.9,23.9V49.183H88.6a9.526,9.526,0,1,0,0,19.053Zm139.94-37.778a4.853,4.853,0,0,1,4.848-4.847h57.944a4.854,4.854,0,0,1,4.848,4.847V49.183H228.539V30.458Z" transform="translate(21.365 0)"/><path class="a" d="M106.928,267.576A9.526,9.526,0,0,0,97.4,277.1v84.178a9.526,9.526,0,0,0,9.526,9.526h38.648a9.526,9.526,0,0,0,9.526-9.526V277.1a9.526,9.526,0,0,0-9.526-9.526Zm29.122,84.18h-19.6V286.63h19.6Z" transform="translate(26.317 70.526)"/><path class="a" d="M175.764,229.248a9.526,9.526,0,0,0-9.526,9.526V371.638a9.526,9.526,0,0,0,9.526,9.526h38.648a9.526,9.526,0,0,0,9.526-9.526V238.774a9.526,9.526,0,0,0-9.526-9.526Zm29.123,132.864h-19.6V248.3h19.6Z" transform="translate(44.916 60.17)"/><path class="a" d="M244.6,267.576a9.526,9.526,0,0,0-9.526,9.526v84.178a9.526,9.526,0,0,0,9.526,9.526h38.648a9.526,9.526,0,0,0,9.526-9.526V277.1a9.526,9.526,0,0,0-9.526-9.526Zm29.122,84.18h-19.6V286.63h19.6Z" transform="translate(63.516 70.526)"/><path class="a" d="M313.436,311.832a9.526,9.526,0,0,0-9.527,9.527v27.966a9.526,9.526,0,0,0,9.527,9.526h38.648a9.526,9.526,0,1,0,0-19.053H322.962V321.359A9.526,9.526,0,0,0,313.436,311.832Z" transform="translate(82.115 82.483)"/><path class="a" d="M565.63,448.743,510.977,354.08a124.576,124.576,0,1,0-123.182,35.154,125.194,125.194,0,0,0,32.428,4.3,122.951,122.951,0,0,0,28.042-3.239l54.641,94.665a36.213,36.213,0,1,0,62.723-36.213Zm-172.9-77.913a105.462,105.462,0,1,1,80.023-10.536A104.776,104.776,0,0,1,392.726,370.83ZM542.851,481.709a17.179,17.179,0,0,1-23.443-6.277l-52.571-91.078a125.038,125.038,0,0,0,29.7-17.169l52.586,91.082a17.144,17.144,0,0,1-6.277,23.443Z" transform="translate(79.851 37.264)"/><path class="a" d="M499.165,288.569a90.157,90.157,0,0,0-4.51-65.308,9.526,9.526,0,1,0-17.235,8.119A71.354,71.354,0,1,1,455.908,204.8a9.526,9.526,0,1,0,11.5-15.193,90.466,90.466,0,1,0,31.761,98.964Z" transform="translate(87.084 44.497)"/></g></svg>