<svg xmlns="http://www.w3.org/2000/svg" width="1488.967" height="1450.827" viewBox="0 0 1488.967 1450.827"><defs><style>.a{fill:#5cdb95;}</style></defs><g transform="translate(0 -6.558)"><path class="a" d="M768.367,228.471a72.788,72.788,0,1,0-58.09-29.041L590.822,366.36A72.5,72.5,0,0,0,518.7,382.245l-79.622-45.181a72.7,72.7,0,1,0-142.144,0l-79.622,45.181a72.6,72.6,0,1,0,21.584,37.91l79.622-45.181a72.521,72.521,0,0,0,98.976,0l79.622,45.181a72.708,72.708,0,1,0,129.162-28.381L745.73,224.847A72.481,72.481,0,0,0,768.367,228.471Zm0-101.788a29.083,29.083,0,1,1-29.081,29.084A29.115,29.115,0,0,1,768.367,126.683ZM167.813,464.522a29.084,29.084,0,1,1,29.081-29.084A29.115,29.115,0,0,1,167.813,464.522ZM368,350.857a29.083,29.083,0,1,1,29.081-29.084A29.115,29.115,0,0,1,368,350.857ZM568.182,464.522a29.084,29.084,0,1,1,29.084-29.084A29.115,29.115,0,0,1,568.182,464.522Z" transform="translate(181.498 145.978)"/><path class="a" d="M1217.917,1019.72H61.7a18.094,18.094,0,0,1-18.074-18.074V101.812A18.094,18.094,0,0,1,61.7,83.738h102.82a21.811,21.811,0,0,0,0-43.622H61.7A61.766,61.766,0,0,0,0,101.812v899.833a61.766,61.766,0,0,0,61.7,61.7H212.085v48a49.649,49.649,0,0,0,49.593,49.593H480L377.229,1361.592a21.81,21.81,0,1,0,38.824,19.885l112.961-220.541H770.162l112.961,220.541a21.81,21.81,0,1,0,38.824-19.885L819.173,1160.936H1037.5a49.647,49.647,0,0,0,49.592-49.593v-48h130.825a21.811,21.811,0,1,0,0-43.622Zm-174.448,91.624a5.977,5.977,0,0,1-5.97,5.97H261.677a5.977,5.977,0,0,1-5.97-5.97v-48h787.762Z" transform="translate(0 64.033)"/><path class="a" d="M100.882,147.771H1086.6a18.1,18.1,0,0,1,18.074,18.074V373.228a21.811,21.811,0,1,0,43.622,0V165.846a61.766,61.766,0,0,0-61.7-61.7H619.764V61.278a54.783,54.783,0,0,0-54.722-54.72H432.378a54.785,54.785,0,0,0-54.722,54.72v42.872H100.882a21.811,21.811,0,1,0,0,43.622Zm320.4-86.494a11.111,11.111,0,0,1,11.1-11.1H565.042a11.113,11.113,0,0,1,11.1,11.1v42.872H421.281V61.278Z" transform="translate(150.878 0)"/><path class="a" d="M119.213,267.576A21.809,21.809,0,0,0,97.4,289.387V482.115a21.81,21.81,0,0,0,21.811,21.811H207.7a21.81,21.81,0,0,0,21.811-21.811V289.387A21.809,21.809,0,0,0,207.7,267.576Zm66.675,192.731H141.024V311.2h44.864Z" transform="translate(185.856 498.058)"/><path class="a" d="M188.048,229.248a21.81,21.81,0,0,0-21.811,21.811V555.253a21.81,21.81,0,0,0,21.811,21.811h88.486a21.81,21.81,0,0,0,21.811-21.811V251.059a21.81,21.81,0,0,0-21.811-21.811Zm66.678,304.194H209.862V272.87h44.864Z" transform="translate(317.203 424.923)"/><path class="a" d="M256.884,267.576a21.81,21.81,0,0,0-21.811,21.811V482.115a21.81,21.81,0,0,0,21.811,21.811H345.37a21.81,21.81,0,0,0,21.811-21.811V289.387a21.809,21.809,0,0,0-21.811-21.811Zm66.674,192.731H278.7V311.2h44.864Z" transform="translate(448.552 498.058)"/><path class="a" d="M325.72,311.832a21.81,21.81,0,0,0-21.811,21.811v64.029a21.81,21.81,0,0,0,21.811,21.811h88.486a21.811,21.811,0,1,0,0-43.622H347.532V333.643A21.81,21.81,0,0,0,325.72,311.832Z" transform="translate(579.9 582.505)"/><path class="a" d="M913.926,841.1,788.8,624.372a285.495,285.495,0,0,0,38.637-337.414c-78.595-136.139-253.29-182.939-389.42-104.347S255.075,435.9,333.67,572.031a283.227,283.227,0,0,0,173.1,132.826,286.636,286.636,0,0,0,74.245,9.835,281.494,281.494,0,0,0,64.2-7.416l125.1,216.738A82.911,82.911,0,1,0,913.926,841.1ZM518.058,662.721a239.887,239.887,0,0,1-146.614-112.5c-66.568-115.3-26.921-263.262,88.378-329.832a239.957,239.957,0,0,1,120.321-32.3c83.508,0,164.842,43.311,209.511,120.679a241.455,241.455,0,0,1-271.6,353.952Zm343.716,253.86A39.332,39.332,0,0,1,808.1,902.21L687.739,693.684a286.288,286.288,0,0,0,68.01-39.309l120.4,208.534a39.251,39.251,0,0,1-14.372,53.673Z" transform="translate(563.918 263.163)"/><path class="a" d="M727.236,439.865A206.414,206.414,0,0,0,716.909,290.34a21.81,21.81,0,1,0-39.46,18.589A163.469,163.469,0,0,1,387.913,460.146c-45.068-78.057-18.225-178.225,59.832-223.293A163.239,163.239,0,0,1,628.2,248.07a21.81,21.81,0,1,0,26.319-34.784,207.123,207.123,0,1,0,72.718,226.579Z" transform="translate(614.993 314.239)"/></g></svg>