<svg xmlns="http://www.w3.org/2000/svg" width="1450.834" height="1450.827" viewBox="0 0 1450.834 1450.827"><defs><style>.a{fill:#5cdb95;}</style></defs><g transform="translate(0 -0.001)"><g transform="translate(272.613 0.001)"><g transform="translate(0 0)"><path class="a" d="M1253.168,704.163H910.982V655.809h92.323a21.252,21.252,0,0,0,0-42.5H910.982V564.948h64.1a88.8,88.8,0,0,0,63.213-26.183l139.772-139.773a66.64,66.64,0,1,0-30.057-30.057L1008.236,508.709a46.589,46.589,0,0,1-33.159,13.735h-64.1V475.552a112.238,112.238,0,0,0-112.11-112.11H751.978V175.3a66.681,66.681,0,1,0-42.5,0V363.439H661.12V271.116a21.252,21.252,0,1,0-42.5,0v92.323H570.259V21.253a21.252,21.252,0,0,0-42.5,0V363.439H479.4V271.116a21.252,21.252,0,1,0-42.5,0v92.323H388.543V299.345a88.806,88.806,0,0,0-26.186-63.213L222.536,96.311a66.715,66.715,0,1,0-30.054,30.054L332.3,266.188a46.576,46.576,0,0,1,13.735,33.157v64.094H299.147a112.584,112.584,0,0,0-28.019,3.534,21.253,21.253,0,0,0,10.6,41.164,69.991,69.991,0,0,1,17.421-2.193H798.869a69.685,69.685,0,0,1,69.606,69.606V975.277a70.008,70.008,0,0,1-2.187,17.407,21.251,21.251,0,1,0,41.164,10.581,112.47,112.47,0,0,0,3.528-27.991V928.383h188.137a66.681,66.681,0,1,0,0-42.5H910.979V837.523H1003.3a21.252,21.252,0,0,0,0-42.5H910.979V746.667h342.189a21.252,21.252,0,1,0,0-42.5Zm-62.524-382a24.176,24.176,0,1,1-7.081,17.1A24.014,24.014,0,0,1,1190.644,322.167ZM179.949,83.783a24.167,24.167,0,1,1,0-34.194A24.21,24.21,0,0,1,179.949,83.783Zm550.776,52.5A24.177,24.177,0,1,1,754.9,112.111,24.206,24.206,0,0,1,730.726,136.288ZM1162.31,882.957a24.177,24.177,0,1,1-24.177,24.177A24.2,24.2,0,0,1,1162.31,882.957Z" transform="translate(-96.206 -0.001)"/></g></g><g transform="translate(0 431.581)"><path class="a" d="M1158.718,1057.721a66.753,66.753,0,0,0-76.778-12.53L942.12,905.367a46.575,46.575,0,0,1-13.735-33.156V808.117h46.891a112.523,112.523,0,0,0,28.013-3.534A21.253,21.253,0,0,0,992.7,763.419a69.947,69.947,0,0,1-17.418,2.191H475.551A69.685,69.685,0,0,1,405.946,696V196.278a69.911,69.911,0,0,1,2.19-17.416,21.252,21.252,0,1,0-41.162-10.6,112.356,112.356,0,0,0-3.534,28.014v46.891H175.3a66.681,66.681,0,1,0,0,42.5H363.438V334.03H271.115a21.252,21.252,0,1,0,0,42.5h92.323v48.353H21.252a21.252,21.252,0,0,0,0,42.5H363.438v48.353H271.115a21.252,21.252,0,0,0,0,42.5h92.323v48.356h-64.1a88.8,88.8,0,0,0-63.213,26.183L96.355,772.563a66.625,66.625,0,1,0,30.062,30.053L266.19,662.844a46.589,46.589,0,0,1,33.159-13.735h64.1V696a112.238,112.238,0,0,0,112.11,112.11h46.891V996.248a66.681,66.681,0,1,0,42.5,0V808.111h48.353v92.323a21.252,21.252,0,0,0,42.5,0V808.111h48.351V1150.3a21.252,21.252,0,1,0,42.5,0V808.117H795.02V900.44a21.252,21.252,0,1,0,42.5,0V808.117h48.353v64.094a88.806,88.806,0,0,0,26.186,63.213l139.821,139.821a66.66,66.66,0,1,0,106.834-17.523ZM112.11,288.6a24.177,24.177,0,1,1,24.177-24.177A24.2,24.2,0,0,1,112.11,288.6ZM83.777,849.389a24.176,24.176,0,1,1,7.081-17.1A24.014,24.014,0,0,1,83.777,849.389Zm484.095,210.056a24.177,24.177,0,1,1-24.177-24.177A24.2,24.2,0,0,1,567.872,1059.444Zm560.793,62.524a24.165,24.165,0,1,1,0-34.191A24.208,24.208,0,0,1,1128.665,1121.969Z" transform="translate(0 -152.306)"/></g><g transform="translate(499.734 477.015)"><path class="a" d="M627.723,359.957c0-45.452-33.244-83.952-78.755-96.463a72.545,72.545,0,0,0,2.094-17.113c0-43.032-38.195-78.041-85.137-78.041-25.429,0-48.271,10.283-63.885,26.537-15.613-16.254-38.458-26.537-63.885-26.537-46.945,0-85.137,35.01-85.137,78.041a72.551,72.551,0,0,0,2.094,17.113C209.6,276,176.357,314.5,176.357,359.957c0,22.213,7.861,43.171,22.383,60.479a105.088,105.088,0,0,0-22.383,64.454c-.006,36.135,19.3,69.875,51.1,90.8v.051c0,49.294,43.925,89.4,97.917,89.4,31.028,0,58.71-13.258,76.661-33.882,17.951,20.623,45.633,33.882,76.662,33.882,51.961,0,94.576-37.149,97.71-83.882,31.558-18.311,51.312-50.385,51.312-85.018,0-25.474-10.861-49.776-29.555-68.144C616.859,409.733,627.723,385.429,627.723,359.957Zm-75.216,86.936c20.479,10.807,32.7,29.257,32.7,49.351,0,14.981-6.962,29.271-18.722,39.957-11.173-20.688-30.921-37.158-55.871-45a21.252,21.252,0,0,0-12.74,40.55c21.666,6.809,36.225,24.488,36.225,43.992,0,25.857-24.857,46.894-55.412,46.894s-55.409-21.037-55.409-46.894V439.458c0-25.857,24.857-46.891,55.409-46.891a21.252,21.252,0,0,0,0-42.5,103.9,103.9,0,0,0-55.409,15.747V338.662a21.252,21.252,0,0,0-42.5,0V456.647a101.235,101.235,0,0,0-23.48-10.87,21.252,21.252,0,0,0-12.743,40.549c21.666,6.809,36.222,24.488,36.222,43.99v45.429c0,25.857-24.857,46.894-55.409,46.894s-55.412-21.037-55.412-46.894c0-11.083,4.7-21.856,13.227-30.334a21.252,21.252,0,1,0-29.963-30.147,90.4,90.4,0,0,0-13.12,16.475c-13.42-12.695-21.255-29.4-21.255-46.854,0-31.488,24.712-59.149,60.1-67.268a21.252,21.252,0,1,0-9.5-41.428,129.47,129.47,0,0,0-38.988,15.883,51.286,51.286,0,0,1-11.6-32.119c.009-31.966,30.312-57.991,67.668-58.237.19.006.38.031.567.031a21.234,21.234,0,0,0,18.033-32.437c-.161-.261-.309-.527-.479-.779-.088-.128-.193-.249-.283-.377-.329-.462-.666-.915-1.031-1.352a.5.5,0,0,0-.031-.04,31.548,31.548,0,0,1-7.776-20.382c0-19.595,19.127-35.537,42.632-35.537s42.632,15.942,42.632,35.537a21.252,21.252,0,0,0,42.5,0c0-19.595,19.127-35.537,42.632-35.537s42.632,15.942,42.632,35.537a29.887,29.887,0,0,1-3.188,13.375,118.024,118.024,0,0,0-34.879,8.745A21.253,21.253,0,0,0,487,307.665a76.721,76.721,0,0,1,29.379-5.945c.2.006.405.026.609.026s.377-.026.567-.031c37.356.244,67.659,26.271,67.659,58.237,0,20.093-12.224,38.54-32.7,49.351a21.251,21.251,0,0,0,0,37.591Z" transform="translate(-176.357 -168.34)"/></g></g></svg>