<svg xmlns="http://www.w3.org/2000/svg" width="1142.443" height="1428.054" viewBox="0 0 1142.443 1428.054"><defs><style>.a{fill:#5cdb95;}</style></defs><g transform="translate(-48)"><g transform="translate(48)"><path class="a" d="M1071.438,0H167A119.147,119.147,0,0,0,48,119V761.629a119.147,119.147,0,0,0,119,119H492.458l-33.988,119H381.212v47.6H857.23v-47.6H779.973l-33.988-119h325.453a119.147,119.147,0,0,0,119-119V119A119.147,119.147,0,0,0,1071.438,0ZM507.976,999.637l33.988-119H696.479l33.988,119Zm634.865-238.009a71.4,71.4,0,0,1-71.4,71.4H167a71.4,71.4,0,0,1-71.4-71.4v-47.6H1142.841Zm0-95.2H95.6V119A71.4,71.4,0,0,1,167,47.6h904.434a71.4,71.4,0,0,1,71.4,71.4Z" transform="translate(-48)"/></g><g transform="translate(119.403 1094.841)"><path class="a" d="M762.226,368H95.8A23.8,23.8,0,0,0,72,391.8V677.412a23.8,23.8,0,0,0,23.8,23.8H762.226a23.8,23.8,0,0,0,23.8-23.8V391.8A23.8,23.8,0,0,0,762.226,368Zm-23.8,285.611H119.6V415.6H738.425Z" transform="translate(-72 -368)"/></g><g transform="translate(214.606 1285.248)"><rect class="a" width="47.602" height="47.602"/></g><g transform="translate(214.606 1190.045)"><rect class="a" width="47.602" height="47.602"/></g><g transform="translate(309.81 1190.045)"><rect class="a" width="47.602" height="47.602"/></g><g transform="translate(405.013 1190.045)"><rect class="a" width="47.602" height="47.602"/></g><g transform="translate(595.421 1190.045)"><rect class="a" width="47.602" height="47.602"/></g><g transform="translate(500.217 1190.045)"><g transform="translate(0)"><rect class="a" width="47.602" height="47.602"/></g></g><g transform="translate(690.624 1285.248)"><rect class="a" width="47.602" height="47.602"/></g><g transform="translate(690.624 1190.045)"><rect class="a" width="47.602" height="47.602"/></g><g transform="translate(309.81 1285.248)"><rect class="a" width="333.212" height="47.602"/></g><g transform="translate(881.031 1094.841)"><path class="a" d="M447,368A119.006,119.006,0,0,0,328,487v95.2a119,119,0,1,0,238.009,0V487A119.006,119.006,0,0,0,447,368Zm71.4,214.208a71.4,71.4,0,0,1-142.805,0V487a71.4,71.4,0,1,1,142.805,0Z" transform="translate(-328 -368)"/></g><g transform="translate(976.235 1190.045)"><rect class="a" width="47.602" height="47.602"/></g><g transform="translate(548.542 208.164)"><g transform="translate(0)"><rect class="a" width="346.387" height="47.58" transform="translate(0 333.021) rotate(-74.032)"/></g></g><g transform="translate(309.82 243.531)"><g transform="translate(0)"><path class="a" d="M317.832,118.414,287.367,81.856l-142.805,119a23.8,23.8,0,0,0,0,36.558l142.805,119,30.465-36.558L196.971,219.14Z" transform="translate(-136.004 -81.856)"/></g></g><g transform="translate(746.794 243.531)"><path class="a" d="M459.185,203.9a23.763,23.763,0,0,0-3.035-3.035l-142.805-119L282.88,118.414,403.741,219.14,282.88,319.865l30.465,36.558,142.805-119A23.8,23.8,0,0,0,459.185,203.9Z" transform="translate(-282.88 -81.856)"/></g></g></svg>