<svg xmlns="http://www.w3.org/2000/svg" width="102.759" height="128.449" viewBox="0 0 102.759 128.449"><g transform="translate(-48)"><g transform="translate(48)"><path d="M140.055,0H58.7A10.717,10.717,0,0,0,48,10.7v57.8a10.717,10.717,0,0,0,10.7,10.7H87.978l-3.057,10.7H77.971V94.2h42.816V89.914h-6.949l-3.057-10.7h29.274a10.717,10.717,0,0,0,10.7-10.7V10.7A10.717,10.717,0,0,0,140.055,0ZM89.373,89.914l3.057-10.7h13.9l3.057,10.7Zm57.1-21.408a6.422,6.422,0,0,1-6.422,6.422H58.7a6.422,6.422,0,0,1-6.422-6.422V64.225h94.2Zm0-8.563h-94.2V10.7A6.422,6.422,0,0,1,58.7,4.282h81.351a6.422,6.422,0,0,1,6.422,6.422Z" transform="translate(-48)" fill="#4eba7e"/></g><g transform="translate(54.422 98.478)"><path d="M134.084,368H74.141A2.141,2.141,0,0,0,72,370.141v25.69a2.141,2.141,0,0,0,2.141,2.141h59.943a2.141,2.141,0,0,0,2.141-2.141v-25.69A2.141,2.141,0,0,0,134.084,368Zm-2.141,25.69H76.282V372.282h55.661Z" transform="translate(-72 -368)" fill="#4eba7e"/></g><g transform="translate(62.986 115.604)"><rect width="4.282" height="4.282" fill="#4eba7e"/></g><g transform="translate(62.986 107.041)"><rect width="4.282" height="4.282" fill="#4eba7e"/></g><g transform="translate(71.549 107.041)"><rect width="4.282" height="4.282" fill="#4eba7e"/></g><g transform="translate(80.112 107.041)"><rect width="4.282" height="4.282" fill="#4eba7e"/></g><g transform="translate(97.239 107.041)"><rect width="4.282" height="4.282" fill="#4eba7e"/></g><g transform="translate(88.676 107.041)"><g transform="translate(0)"><rect width="4.282" height="4.282" fill="#4eba7e"/></g></g><g transform="translate(105.802 115.604)"><rect width="4.282" height="4.282" fill="#4eba7e"/></g><g transform="translate(105.802 107.041)"><rect width="4.282" height="4.282" fill="#4eba7e"/></g><g transform="translate(71.549 115.604)"><rect width="29.971" height="4.282" fill="#4eba7e"/></g><g transform="translate(122.929 98.478)"><path d="M338.7,368A10.7,10.7,0,0,0,328,378.7v8.563a10.7,10.7,0,0,0,21.408,0V378.7A10.7,10.7,0,0,0,338.7,368Zm6.422,19.267a6.422,6.422,0,1,1-12.845,0V378.7a6.422,6.422,0,0,1,12.845,0Z" transform="translate(-328 -368)" fill="#4eba7e"/></g><g transform="translate(131.492 107.041)"><rect width="4.282" height="4.282" fill="#4eba7e"/></g><g transform="translate(93.022 18.724)"><rect width="31.156" height="4.28" transform="translate(0 29.954) rotate(-74.032)" fill="#4eba7e"/></g><g transform="translate(71.55 21.905)"><g transform="translate(0)"><path d="M152.358,85.144l-2.74-3.288-12.845,10.7a2.141,2.141,0,0,0,0,3.288l12.845,10.7,2.74-3.288L141.487,94.2Z" transform="translate(-136.004 -81.856)" fill="#4eba7e"/></g></g><g transform="translate(110.854 21.905)"><path d="M298.738,92.833a2.136,2.136,0,0,0-.273-.273l-12.845-10.7-2.74,3.288,10.871,9.06-10.871,9.06,2.74,3.288,12.845-10.7A2.141,2.141,0,0,0,298.738,92.833Z" transform="translate(-282.88 -81.856)" fill="#4eba7e"/></g></g></svg>