<svg xmlns="http://www.w3.org/2000/svg" width="1078.216" height="1347.766" viewBox="0 0 1078.216 1347.766"><defs><style>.a{fill:#fff;}</style></defs><g transform="translate(0)"><path class="a" d="M1013.9,0H160.314A112.449,112.449,0,0,0,48,112.314v606.5A112.449,112.449,0,0,0,160.314,831.123H467.471L435.394,943.437H362.48v44.925H811.736V943.437H738.822L706.745,831.123H1013.9a112.449,112.449,0,0,0,112.314-112.314v-606.5A112.449,112.449,0,0,0,1013.9,0ZM482.117,943.437l32.077-112.314H660.022L692.1,943.437Zm599.174-224.628A67.388,67.388,0,0,1,1013.9,786.2H160.314a67.388,67.388,0,0,1-67.388-67.388V673.883h988.365Zm0-89.851H92.926V112.314a67.388,67.388,0,0,1,67.388-67.388H1013.9a67.388,67.388,0,0,1,67.389,67.388Z" transform="translate(-48)"/></g><g transform="translate(67.389 1033.288)"><path class="a" d="M723.422,368H94.463A22.464,22.464,0,0,0,72,390.463V660.016a22.464,22.464,0,0,0,22.463,22.463H723.422a22.464,22.464,0,0,0,22.463-22.463V390.463A22.464,22.464,0,0,0,723.422,368ZM700.959,637.554H116.926V412.925H700.959Z" transform="translate(-72 -368)"/></g><g transform="translate(157.24 1212.99)"><rect class="a" width="44.926" height="44.926"/></g><g transform="translate(157.24 1123.139)"><rect class="a" width="44.926" height="44.926"/></g><g transform="translate(247.091 1123.139)"><rect class="a" width="44.926" height="44.926"/></g><g transform="translate(336.943 1123.139)"><rect class="a" width="44.926" height="44.926"/></g><g transform="translate(516.645 1123.139)"><rect class="a" width="44.926" height="44.926"/></g><g transform="translate(426.794 1123.139)"><g transform="translate(0)"><rect class="a" width="44.926" height="44.926"/></g></g><g transform="translate(606.496 1212.99)"><rect class="a" width="44.926" height="44.926"/></g><g transform="translate(606.496 1123.139)"><rect class="a" width="44.926" height="44.926"/></g><g transform="translate(247.091 1212.99)"><rect class="a" width="314.48" height="44.926"/></g><g transform="translate(786.199 1033.288)"><path class="a" d="M440.314,368A112.316,112.316,0,0,0,328,480.314v89.852a112.314,112.314,0,0,0,224.628,0V480.314A112.315,112.315,0,0,0,440.314,368ZM507.7,570.165a67.388,67.388,0,0,1-134.777,0V480.314a67.388,67.388,0,1,1,134.777,0Z" transform="translate(-328 -368)"/></g><g transform="translate(876.05 1123.139)"><rect class="a" width="44.926" height="44.926"/></g><g transform="translate(472.402 196.46)"><g transform="translate(0 0)"><rect class="a" width="326.913" height="44.905" transform="translate(0 314.299) rotate(-74.032)"/></g></g><g transform="translate(247.101 229.839)"><g transform="translate(0)"><path class="a" d="M307.61,116.359l-28.753-34.5L144.08,194.17a22.462,22.462,0,0,0,0,34.5L278.857,340.987l28.753-34.5L193.543,211.421Z" transform="translate(-136.004 -81.856)"/></g></g><g transform="translate(659.509 229.839)"><path class="a" d="M449.274,197.034a22.435,22.435,0,0,0-2.864-2.864L311.633,81.856l-28.753,34.5,114.067,95.062L282.88,306.484l28.753,34.5L446.41,228.673A22.464,22.464,0,0,0,449.274,197.034Z" transform="translate(-282.88 -81.856)"/></g></svg>