<svg xmlns="http://www.w3.org/2000/svg" width="98.497" height="98.5" viewBox="0 0 98.497 98.5"><g transform="translate(-0.273)"><path d="M.524,9.094,7.088,20.58a1.64,1.64,0,0,0,1.025.778l6.124,1.531,21,21,2.321-2.32L16.229,20.241a1.637,1.637,0,0,0-.761-.432L9.584,18.333,3.995,8.547,8.786,3.756,18.576,9.35l1.477,5.884a1.636,1.636,0,0,0,.431.763L41.816,37.329l2.32-2.321-21-21L21.6,7.884a1.644,1.644,0,0,0-.778-1.027L9.337.294A1.641,1.641,0,0,0,7.368.558L.8,7.122A1.641,1.641,0,0,0,.524,9.094Zm0,0" transform="translate(-0.034 -0.066)" fill="#5cdb95"/><path d="M212.4,176.039l-36.1,36.1-2.321-2.321,36.1-36.1Zm0,0" transform="translate(-143.69 -143.699)" fill="#5cdb95"/><path d="M65.569,399.631a1.64,1.64,0,0,0-1.407-.8H54.317a1.639,1.639,0,0,0-1.406.8l-4.923,8.2a1.641,1.641,0,0,0,0,1.69l4.923,8.2a1.641,1.641,0,0,0,1.406.8h9.845a1.642,1.642,0,0,0,1.407-.8l4.922-8.2a1.641,1.641,0,0,0,0-1.69Zm-2.335,15.613H55.246l-3.938-6.563,3.938-6.564h7.988l3.938,6.564Zm0,0" transform="translate(-39.275 -329.914)" fill="#5cdb95"/><path d="M79.038,39.385a19.623,19.623,0,0,0,19.087-24.45,1.64,1.64,0,0,0-2.751-.765L85.159,24.379l-8.1-2.7-2.7-8.1L84.566,3.359A1.641,1.641,0,0,0,83.8.605a19.631,19.631,0,0,0-24.45,19.089,19.26,19.26,0,0,0,.4,3.845L23.809,59.475a19.358,19.358,0,0,0-3.844-.4A19.691,19.691,0,1,0,39.655,78.767a19.31,19.31,0,0,0-.4-3.845l8.6-8.6,3.763,3.763a1.641,1.641,0,0,0,2.321,0l.82-.821a1.84,1.84,0,0,1,2.606,2.6l0,0-.82.82a1.641,1.641,0,0,0,0,2.32L76.12,94.578A13.244,13.244,0,1,0,94.934,75.934l-.084-.085L75.275,56.275a1.641,1.641,0,0,0-2.32,0l-.82.82a1.84,1.84,0,0,1-2.606-2.6l0,0,.821-.821a1.641,1.641,0,0,0,0-2.32L66.59,47.589l8.6-8.6a19.308,19.308,0,0,0,3.844.4Zm6.447,55.791a9.971,9.971,0,0,1-3.49-.637L94.81,81.724a9.951,9.951,0,0,1-9.326,13.453ZM66.9,52.529a5.121,5.121,0,0,0,7.219,7.21L92.53,78.17c.2.2.387.412.568.626l-14.03,14.03c-.215-.18-.427-.367-.627-.568L60.011,73.828a5.122,5.122,0,0,0-7.22-7.211l-2.625-2.625,14.1-14.082Zm6.626-16.5L36.3,73.242a1.643,1.643,0,0,0-.433,1.559A16.518,16.518,0,1,1,23.931,62.868a1.655,1.655,0,0,0,1.559-.433L62.706,25.218a1.64,1.64,0,0,0,.431-1.559A16.329,16.329,0,0,1,79.97,3.312l-8.656,8.659a1.639,1.639,0,0,0-.4,1.678L74.2,23.5a1.642,1.642,0,0,0,1.039,1.037l9.846,3.282a1.641,1.641,0,0,0,1.678-.4l8.656-8.656c.02.313.03.623.03.932a16.325,16.325,0,0,1-20.375,15.9,1.642,1.642,0,0,0-1.559.431h.009Zm0,0" transform="translate(0 0)" fill="#5cdb95"/><path d="M401.62,399.034l-2.321,2.321L382.89,384.946l2.32-2.321Zm0,0" transform="translate(-316.497 -316.504)" fill="#5cdb95"/></g></svg>