<svg xmlns="http://www.w3.org/2000/svg" width="99.777" height="99.7" viewBox="0 0 99.777 99.7"><g transform="translate(-429 -2326)"><path d="M184.07,417.539h27.863v12.614H184.07Zm0,0" transform="translate(280.801 1989.83)" fill="#5a5a5a"/><path d="M94.491,83.44H5.113A5.113,5.113,0,0,1,0,78.326V5.583A5.113,5.113,0,0,1,5.113.469H94.491A5.113,5.113,0,0,1,99.6,5.583V78.326A5.113,5.113,0,0,1,94.491,83.44Zm0,0" transform="translate(429 2325.622)" fill="#ffd86e"/><path d="M464.188,5.583V78.326a5.114,5.114,0,0,1-5.113,5.114h-6.247a5.114,5.114,0,0,0,5.114-5.114V5.583A5.114,5.114,0,0,0,452.828.469h6.247a5.113,5.113,0,0,1,5.113,5.114Zm0,0" transform="translate(64.418 2325.623)" fill="#ffb509"/><path d="M99.6,363.012H0v7.206a5.114,5.114,0,0,0,5.113,5.114H94.492a5.114,5.114,0,0,0,5.113-5.114Zm0,0" transform="translate(429 2033.731)" fill="#838383"/><path d="M464.188,363.008v7.207a5.113,5.113,0,0,1-5.113,5.113h-6.247a5.114,5.114,0,0,0,5.114-5.113v-7.207Zm0,0" transform="translate(64.418 2033.734)" fill="#5a5a5a"/><path d="M100.178,17.912H.57V5.581A5.113,5.113,0,0,1,5.682.469H95.065a5.113,5.113,0,0,1,5.113,5.112Zm0,0" transform="translate(428.541 2325.623)" fill="#acacac"/><path d="M464.6,5.112V17.444h-6.36V5.112A5.113,5.113,0,0,0,453.121,0h6.361A5.113,5.113,0,0,1,464.6,5.112Zm0,0" transform="translate(64.182 2326)" fill="#9c9c9c"/><path d="M40.071,32.987a2.909,2.909,0,1,1-2.909-2.909A2.909,2.909,0,0,1,40.071,32.987Zm0,0" transform="translate(401.421 2301.783)" fill="#ff5770"/><path d="M97.715,32.987a2.908,2.908,0,1,1-2.909-2.909A2.908,2.908,0,0,1,97.715,32.987Zm0,0" transform="translate(355.011 2301.783)" fill="#ffd86e"/><path d="M155.356,32.987a2.908,2.908,0,1,1-2.908-2.909A2.908,2.908,0,0,1,155.356,32.987Zm0,0" transform="translate(308.603 2301.783)" fill="#80e0dc"/><path d="M43.8,32.991a2.906,2.906,0,0,1-4.913,2.1,2.906,2.906,0,0,0,1.938-5.01c.022,0,.046,0,.069,0A2.907,2.907,0,0,1,43.8,32.991Zm0,0" transform="translate(397.688 2301.78)" fill="#ff435f"/><path d="M101.439,32.991a2.908,2.908,0,0,1-4.915,2.1,2.906,2.906,0,0,0,1.94-5.01.641.641,0,0,1,.066,0,2.907,2.907,0,0,1,2.909,2.909Zm0,0" transform="translate(351.287 2301.78)" fill="#ffb509"/><path d="M159.084,32.991a2.908,2.908,0,0,1-4.915,2.1,2.906,2.906,0,0,0,1.938-5.01c.022,0,.046,0,.069,0a2.908,2.908,0,0,1,2.909,2.909Zm0,0" transform="translate(304.875 2301.78)" fill="#00a8b0"/><path d="M179.517,477.567H133.6a1,1,0,0,1-1-1v-3.248a3.988,3.988,0,0,1,3.988-3.987h39.95a3.987,3.987,0,0,1,3.987,3.987v3.248a1,1,0,0,1-1,1Zm0,0" transform="translate(322.246 1948.133)" fill="#838383"/><path d="M343.29,473.315v3.25a1,1,0,0,1-1,1H338.75v-4.252a3.988,3.988,0,0,0-3.987-3.987H339.3A3.987,3.987,0,0,1,343.29,473.315Zm0,0" transform="translate(159.476 1948.133)" fill="#5a5a5a"/><path d="M32.191,121.159h-4a1.5,1.5,0,0,1,0-3.007h4a1.5,1.5,0,0,1,0,3.007Zm0,0" transform="translate(407.513 2230.873)" fill="#5a5a5a"/><path d="M79.33,121.159H74.777a1.5,1.5,0,0,1,0-3.007H79.33a1.5,1.5,0,0,1,0,3.007Zm0,0" transform="translate(370.006 2230.873)" fill="#5a5a5a"/><path d="M94.523,155.1H82.71a1.5,1.5,0,0,1,0-3.007H94.523a1.5,1.5,0,0,1,0,3.007Zm0,0" transform="translate(363.618 2203.543)" fill="#5a5a5a"/><path d="M33.979,155.1H28.191a1.5,1.5,0,0,1,0-3.007h5.788a1.5,1.5,0,0,1,0,3.007Zm0,0" transform="translate(407.513 2203.543)" fill="#5a5a5a"/><path d="M270.916,374.27H252.2v3.91a2.934,2.934,0,0,0,2.934,2.935h.069a2.934,2.934,0,0,1,2.934,2.934V395.8a3.422,3.422,0,1,0,6.844,0V384.048a2.934,2.934,0,0,1,2.934-2.934h.069a2.934,2.934,0,0,0,2.934-2.935v-3.91Zm0,0" transform="translate(225.949 2024.667)" fill="#e7e7e7"/><path d="M182.619,268.876H182.5a2.8,2.8,0,0,1-2.8-2.8v-8.663a2.8,2.8,0,0,1,2.8-2.8h.118a2.8,2.8,0,0,1,2.8,2.8v8.663A2.8,2.8,0,0,1,182.619,268.876Zm0,0" transform="translate(284.317 2121.002)" fill="#ff5770"/><path d="M455.889,214.939h-.118a2.8,2.8,0,0,1-2.8-2.8v-8.663a2.8,2.8,0,0,1,2.8-2.8h.118a2.8,2.8,0,0,1,2.8,2.8v8.663A2.8,2.8,0,0,1,455.889,214.939Zm0,0" transform="translate(64.301 2164.428)" fill="#ff5770"/><path d="M191.532,257.412v8.664a2.8,2.8,0,0,1-2.8,2.8h-.118a2.788,2.788,0,0,1-1.319-.329,2.8,2.8,0,0,0,1.479-2.469v-8.664a2.8,2.8,0,0,0-1.479-2.468,2.763,2.763,0,0,1,1.319-.33h.118A2.8,2.8,0,0,1,191.532,257.412Zm0,0" transform="translate(278.203 2121.005)" fill="#ff435f"/><path d="M464.8,203.478v8.662a2.8,2.8,0,0,1-2.8,2.8h-.119a2.779,2.779,0,0,1-1.317-.329,2.8,2.8,0,0,0,1.478-2.469v-8.662a2.8,2.8,0,0,0-1.478-2.469,2.788,2.788,0,0,1,1.317-.329h.119A2.8,2.8,0,0,1,464.8,203.478Zm0,0" transform="translate(58.184 2164.428)" fill="#ff435f"/><path d="M174.887,89.976V111a4.14,4.14,0,1,0,8.28,0v-5.31a3.393,3.393,0,0,1,6.786,0v27.2H208.67v-19.74a3.239,3.239,0,1,1,6.478,0v2.833a3.895,3.895,0,1,0,7.79,0v-26Zm0,0" transform="translate(288.194 2253.558)" fill="#ff5770"/><path d="M398.541,89.98v26a3.9,3.9,0,0,1-5.549,3.526,3.891,3.891,0,0,0,2.241-3.526v-26Zm0,0" transform="translate(112.593 2253.555)" fill="#ff435f"/><path d="M252.2,309.914h18.717V322.5H252.2Zm0,0" transform="translate(225.949 2076.481)" fill="#80e0dc"/></g></svg>