<svg xmlns="http://www.w3.org/2000/svg" width="99.811" height="99.7" viewBox="0 0 99.811 99.7"><g transform="translate(-1390 -2326)"><path d="M184.176,417.711h27.888v11.543H184.176Zm0,0" transform="translate(1241.728 1989.719)" fill="#5a5a5a"/><path d="M94.578,83.047H5.118A5.118,5.118,0,0,1,0,77.929V5.118A5.118,5.118,0,0,1,5.118,0h89.46A5.118,5.118,0,0,1,99.7,5.118V77.929A5.118,5.118,0,0,1,94.578,83.047Zm0,0" transform="translate(1390 2326)" fill="#ffd86e"/><path d="M464.46,5.122v72.81a5.118,5.118,0,0,1-5.118,5.118H453.09a5.118,5.118,0,0,0,5.118-5.118V5.122A5.118,5.118,0,0,0,453.09,0h6.252a5.118,5.118,0,0,1,5.118,5.118Zm0,0" transform="translate(1025.237 2325.997)" fill="#ffb509"/><path d="M99.7,362.754H0v7.212a5.118,5.118,0,0,0,5.118,5.118h89.46a5.118,5.118,0,0,0,5.118-5.118Zm0,0" transform="translate(1390 2033.963)" fill="#838383"/><path d="M464.46,362.75v7.213a5.118,5.118,0,0,1-5.118,5.118H453.09a5.118,5.118,0,0,0,5.118-5.118V362.75Zm0,0" transform="translate(1025.237 2033.966)" fill="#5a5a5a"/><path d="M100.269,17.46H.57V5.118A5.118,5.118,0,0,1,5.687,0H95.151a5.118,5.118,0,0,1,5.118,5.118Zm0,0" transform="translate(1389.541 2326)" fill="#acacac"/><path d="M464.571,5.12V17.464H458.2V5.12A5.118,5.118,0,0,0,453.086,0h6.367A5.118,5.118,0,0,1,464.571,5.12Zm0,0" transform="translate(1025.24 2325.997)" fill="#9c9c9c"/><path d="M179.639,477.375H133.675a1,1,0,0,1-1-1v-3.251a3.992,3.992,0,0,1,3.992-3.992H176.65a3.992,3.992,0,0,1,3.992,3.992v3.251a1,1,0,0,1-1,1Zm0,0" transform="translate(1283.191 1948.325)" fill="#838383"/><path d="M343.492,473.12v3.252a1,1,0,0,1-1,1h-3.541V473.12a3.992,3.992,0,0,0-3.99-3.991H339.5A3.991,3.991,0,0,1,343.492,473.12Zm0,0" transform="translate(1120.341 1948.324)" fill="#5a5a5a"/><path d="M32.955,135.451a1.458,1.458,0,0,1-1.034-.428L27.2,130.3a1.462,1.462,0,0,1,0-2.067l4.717-4.717a1.462,1.462,0,1,1,2.068,2.067l-3.684,3.684,3.684,3.684a1.462,1.462,0,0,1-1.034,2.5Zm0,0" transform="translate(1368.444 2226.904)" fill="#838383"/><path d="M110.3,135.451a1.462,1.462,0,0,1-1.034-2.5l3.684-3.684-3.684-3.684a1.462,1.462,0,1,1,2.068-2.067l4.717,4.717a1.462,1.462,0,0,1,0,2.067l-4.717,4.718a1.458,1.458,0,0,1-1.034.428Zm0,0" transform="translate(1302.382 2226.904)" fill="#838383"/><path d="M72.683,135.449a1.464,1.464,0,0,1-1.361-2l3.707-9.436a1.462,1.462,0,1,1,2.722,1.07l-3.707,9.435A1.462,1.462,0,0,1,72.683,135.449Zm0,0" transform="translate(1332.664 2226.907)" fill="#838383"/><path d="M42.744,219.705H32.607a1.462,1.462,0,1,1,0-2.924H42.744a1.462,1.462,0,1,1,0,2.924Zm0,0" transform="translate(1364.927 2151.479)" fill="#838383"/><path d="M130.777,219.705H112.954a1.462,1.462,0,1,1,0-2.924h17.823a1.462,1.462,0,1,1,0,2.924Zm0,0" transform="translate(1300.243 2151.479)" fill="#838383"/><path d="M36.925,252.26H32.607a1.462,1.462,0,1,1,0-2.924h4.318a1.462,1.462,0,1,1,0,2.924Zm0,0" transform="translate(1364.927 2125.27)" fill="#838383"/><path d="M178.768,252.26h-2.63a1.462,1.462,0,0,1,0-2.924h2.63a1.462,1.462,0,1,1,0,2.924Zm0,0" transform="translate(1249.376 2125.27)" fill="#838383"/><path d="M94.762,252.26H81.845a1.462,1.462,0,1,1,0-2.924H94.762a1.462,1.462,0,1,1,0,2.924Zm0,0" transform="translate(1325.287 2125.27)" fill="#838383"/><path d="M219.033,252.26h-4.926a1.462,1.462,0,1,1,0-2.924h4.926a1.462,1.462,0,1,1,0,2.924Zm0,0" transform="translate(1218.809 2125.27)" fill="#838383"/><path d="M169.544,148.686h-5.2a1.462,1.462,0,1,1,0-2.924h5.2a1.462,1.462,0,1,1,0,2.924Zm0,0" transform="translate(1258.867 2208.653)" fill="#838383"/><path d="M252.55,148.686h-31.7a1.462,1.462,0,1,1,0-2.924h31.7a1.462,1.462,0,1,1,0,2.924Zm0,0" transform="translate(1213.381 2208.653)" fill="#838383"/><path d="M305.736,182.651H292.9a1.462,1.462,0,0,1,0-2.924h12.84a1.462,1.462,0,0,1,0,2.924Zm0,0" transform="translate(1155.379 2181.31)" fill="#838383"/><path d="M249.962,182.651h-4.414a1.462,1.462,0,1,1,0-2.924h4.414a1.462,1.462,0,0,1,0,2.924Zm0,0" transform="translate(1193.498 2181.31)" fill="#838383"/><path d="M175.159,182.651H164.344a1.462,1.462,0,1,1,0-2.924h10.815a1.462,1.462,0,0,1,0,2.924Zm0,0" transform="translate(1258.871 2181.31)" fill="#838383"/><path d="M106.337,284.545H96.2a1.462,1.462,0,1,1,0-2.924h10.137a1.462,1.462,0,1,1,0,2.924Zm0,0" transform="translate(1313.73 2099.279)" fill="#838383"/><path d="M40.4,284.545H32.607a1.462,1.462,0,1,1,0-2.924H40.4a1.462,1.462,0,1,1,0,2.924Zm0,0" transform="translate(1364.927 2099.279)" fill="#838383"/><path d="M187.778,284.545H174.536a1.462,1.462,0,1,1,0-2.924h13.242a1.462,1.462,0,1,1,0,2.924Zm0,0" transform="translate(1250.666 2099.279)" fill="#838383"/><path d="M296.664,263.391h32.585v11.035H296.664Zm0,0" transform="translate(1151.169 2113.955)" fill="#64dcfc"/><path d="M296.664,350.871h32.585V361.1H296.664Zm0,0" transform="translate(1151.169 2043.529)" fill="#64dcfc"/><path d="M444.051,263.391H447.9v11.035h-3.853Zm0,0" transform="translate(1032.514 2113.955)" fill="#00d1fc"/><path d="M444.051,350.871H447.9V361.1h-3.853Zm0,0" transform="translate(1032.514 2043.529)" fill="#00d1fc"/><path d="M314.8,233.473H276.818a1.454,1.454,0,0,1-1.454-1.454V224.7a1.454,1.454,0,0,1,1.454-1.454H314.8a1.454,1.454,0,0,1,1.454,1.454v7.313A1.454,1.454,0,0,1,314.8,233.473Zm0,0" transform="translate(1168.317 2146.271)" fill="#0396fd"/><path d="M314.8,317.594H276.818a1.454,1.454,0,0,1-1.454-1.454v-7.313a1.454,1.454,0,0,1,1.454-1.454H314.8a1.454,1.454,0,0,1,1.454,1.454v7.313A1.454,1.454,0,0,1,314.8,317.594Zm0,0" transform="translate(1168.317 2078.549)" fill="#0396fd"/><path d="M314.8,401.715H276.818a1.454,1.454,0,0,1-1.454-1.454v-7.313a1.454,1.454,0,0,1,1.454-1.454H314.8a1.454,1.454,0,0,1,1.454,1.454v7.313A1.454,1.454,0,0,1,314.8,401.715Zm0,0" transform="translate(1168.317 2010.826)" fill="#0396fd"/><path d="M465.173,224.7v7.313a1.454,1.454,0,0,1-1.454,1.454h-3.375a1.454,1.454,0,0,0,1.454-1.454V224.7a1.454,1.454,0,0,0-1.454-1.454h3.375A1.454,1.454,0,0,1,465.173,224.7Zm0,0" transform="translate(1019.397 2146.271)" fill="#0077f0"/><path d="M465.173,308.822v7.313a1.454,1.454,0,0,1-1.454,1.455h-3.375a1.453,1.453,0,0,0,1.454-1.455v-7.313a1.454,1.454,0,0,0-1.454-1.454h3.375A1.454,1.454,0,0,1,465.173,308.822Zm0,0" transform="translate(1019.397 2078.552)" fill="#0077f0"/><path d="M465.173,392.951v7.313a1.454,1.454,0,0,1-1.454,1.454h-3.375a1.454,1.454,0,0,0,1.454-1.454v-7.313a1.453,1.453,0,0,0-1.454-1.454h3.375A1.453,1.453,0,0,1,465.173,392.951Zm0,0" transform="translate(1019.397 2010.824)" fill="#0077f0"/><path d="M304.422,244.893h-7.241a1.462,1.462,0,0,1,0-2.924h7.242a1.462,1.462,0,1,1,0,2.924Zm0,0" transform="translate(1151.93 2131.201)" fill="#e7e7e7"/><path d="M409.006,244.893H398.783a1.462,1.462,0,0,1,0-2.924h10.222a1.462,1.462,0,0,1,0,2.924Zm0,0" transform="translate(1070.135 2131.201)" fill="#e7e7e7"/><path d="M362.888,244.893h-2.343a1.462,1.462,0,1,1,0-2.924h2.343a1.462,1.462,0,1,1,0,2.924Zm0,0" transform="translate(1100.918 2131.201)" fill="#e7e7e7"/><path d="M304.422,329.014h-7.241a1.462,1.462,0,0,1,0-2.924h7.242a1.462,1.462,0,1,1,0,2.924Zm0,0" transform="translate(1151.93 2063.479)" fill="#e7e7e7"/><path d="M409.006,329.014H398.783a1.462,1.462,0,0,1,0-2.924h10.222a1.462,1.462,0,0,1,0,2.924Zm0,0" transform="translate(1070.135 2063.479)" fill="#e7e7e7"/><path d="M362.888,329.014h-2.343a1.462,1.462,0,1,1,0-2.924h2.343a1.462,1.462,0,1,1,0,2.924Zm0,0" transform="translate(1100.918 2063.479)" fill="#e7e7e7"/><path d="M304.422,413.135h-7.241a1.462,1.462,0,1,1,0-2.924h7.242a1.462,1.462,0,1,1,0,2.924Zm0,0" transform="translate(1151.93 1995.757)" fill="#e7e7e7"/><path d="M409.006,413.135H398.783a1.462,1.462,0,0,1,0-2.924h10.222a1.462,1.462,0,0,1,0,2.924Zm0,0" transform="translate(1070.135 1995.757)" fill="#e7e7e7"/><path d="M362.888,413.135h-2.343a1.462,1.462,0,1,1,0-2.924h2.343a1.462,1.462,0,1,1,0,2.924Zm0,0" transform="translate(1100.918 1995.757)" fill="#e7e7e7"/><path d="M40.1,32.54a2.912,2.912,0,1,1-2.911-2.911A2.911,2.911,0,0,1,40.1,32.54Zm0,0" transform="translate(1362.408 2302.147)" fill="#ff5770"/><path d="M97.771,32.54a2.911,2.911,0,1,1-2.911-2.911A2.911,2.911,0,0,1,97.771,32.54Zm0,0" transform="translate(1315.976 2302.147)" fill="#ffd86e"/><path d="M155.447,32.54a2.911,2.911,0,1,1-2.911-2.911A2.911,2.911,0,0,1,155.447,32.54Zm0,0" transform="translate(1269.543 2302.147)" fill="#80e0dc"/><path d="M43.828,32.544a2.909,2.909,0,0,1-4.918,2.1,2.908,2.908,0,0,0,1.94-5.014c.022,0,.046,0,.069,0a2.909,2.909,0,0,1,2.909,2.911Zm0,0" transform="translate(1358.675 2302.144)" fill="#ff435f"/><path d="M101.5,32.544a2.91,2.91,0,0,1-4.919,2.1,2.909,2.909,0,0,0,1.943-5.014.627.627,0,0,1,.066,0,2.909,2.909,0,0,1,2.91,2.911Zm0,0" transform="translate(1312.249 2302.144)" fill="#ffb509"/><path d="M159.174,32.544a2.911,2.911,0,0,1-4.92,2.1,2.908,2.908,0,0,0,1.94-5.014c.022,0,.046,0,.069,0a2.911,2.911,0,0,1,2.911,2.911Zm0,0" transform="translate(1265.817 2302.144)" fill="#00a8b0"/></g></svg>