<svg xmlns="http://www.w3.org/2000/svg" width="1451.198" height="1451.006" viewBox="0 0 1451.198 1451.006"><defs><style>.a{fill:#05386b;}</style></defs><g transform="translate(0 -0.032)"><g transform="translate(193.567 870.624)"><path class="a" d="M426.781,408.948H330.048V312.215a24.184,24.184,0,0,0-24.183-24.183H209.133a24.184,24.184,0,0,0-24.183,24.183v96.732H88.217a24.184,24.184,0,0,0-24.183,24.183v96.732a24.184,24.184,0,0,0,24.183,24.183H184.95v96.732a24.184,24.184,0,0,0,24.183,24.183h96.732a24.184,24.184,0,0,0,24.183-24.183V554.046h96.732a24.184,24.184,0,0,0,24.183-24.183V433.131A24.184,24.184,0,0,0,426.781,408.948ZM402.6,505.68H305.865a24.184,24.184,0,0,0-24.183,24.183V626.6H233.316V529.863a24.184,24.184,0,0,0-24.183-24.183H112.4V457.314h96.732a24.184,24.184,0,0,0,24.183-24.183V336.4h48.366v96.732a24.184,24.184,0,0,0,24.183,24.183H402.6Z" transform="translate(-64.034 -288.032)"/></g><g transform="translate(0 0.032)"><path class="a" d="M1448.671,1019.906c-18.548-166.646-175.061-322.554-341.852-340.329a401.437,401.437,0,0,0-42.659-2.418H798.145V580.427H749.779V532.06a96.733,96.733,0,0,0-96.732-96.732H532.131a48.366,48.366,0,1,1,0-96.732H919.06a96.732,96.732,0,0,0,0-193.465H798.145a48.365,48.365,0,0,1-48.366-48.366V.032H701.412V96.764A96.733,96.733,0,0,0,798.145,193.5H919.06a48.366,48.366,0,1,1,0,96.732H532.131a96.732,96.732,0,1,0,0,193.465H653.046a48.364,48.364,0,0,1,48.366,48.366v48.366H653.046v96.732H387.032a394.494,394.494,0,0,0-42.707,2.418c-166.863,17.9-323.28,173.8-341.78,340.45-24.295,212.31,128.119,404.118,340.432,428.413a386.935,386.935,0,0,0,247.7-55.458,236.84,236.84,0,0,1,106.14-37.508,372.963,372.963,0,0,1,56.226-.193A238.64,238.64,0,0,1,860.852,1393.2c181.781,112.343,420.218,56.053,532.561-125.731A386.934,386.934,0,0,0,1448.671,1019.906ZM701.412,628.793h48.366v48.366H701.412Zm615.1,661.021a338.345,338.345,0,0,1-430.169,62.272A285.366,285.366,0,0,0,756.5,1307.033q-15.308-1.111-30.906-1.112c-11,0-21.765.459-32.6,1.306a284.479,284.479,0,0,0-127.88,44.642c-159.01,98.38-367.665,49.234-466.048-109.776a338.566,338.566,0,0,1-48.448-216.7c15.912-143.212,155.546-282.314,298.9-297.718a347.872,347.872,0,0,1,37.508-2.152h677.127a355.713,355.713,0,0,1,37.508,2.007c143.333,15.4,282.943,154.506,298.9,297.718A336.148,336.148,0,0,1,1316.51,1289.814Z" transform="translate(0 -0.032)"/></g><g transform="translate(967.427 822.258)"><path class="a" d="M416.766,272.032A96.732,96.732,0,1,0,513.5,368.764,96.733,96.733,0,0,0,416.766,272.032Zm0,145.1a48.366,48.366,0,1,1,48.366-48.366A48.364,48.364,0,0,1,416.766,417.131Z" transform="translate(-320.034 -272.032)"/></g><g transform="translate(967.427 1112.455)"><path class="a" d="M416.766,368.032A96.732,96.732,0,1,0,513.5,464.764,96.733,96.733,0,0,0,416.766,368.032Zm0,145.1a48.366,48.366,0,1,1,48.366-48.366A48.365,48.365,0,0,1,416.766,513.131Z" transform="translate(-320.034 -368.032)"/></g><g transform="translate(798.145 967.357)"><path class="a" d="M360.766,320.032A96.732,96.732,0,1,0,457.5,416.764,96.733,96.733,0,0,0,360.766,320.032Zm0,145.1a48.366,48.366,0,1,1,48.366-48.366A48.364,48.364,0,0,1,360.766,465.131Z" transform="translate(-264.034 -320.032)"/></g><g transform="translate(1136.708 967.357)"><path class="a" d="M472.766,320.032A96.732,96.732,0,1,0,569.5,416.764,96.733,96.733,0,0,0,472.766,320.032Zm0,145.1a48.366,48.366,0,1,1,48.366-48.366A48.365,48.365,0,0,1,472.766,465.131Z" transform="translate(-376.034 -320.032)"/></g></g></svg>