<svg xmlns="http://www.w3.org/2000/svg" width="1326.247" height="1450.672" viewBox="0 0 1326.247 1450.672"><defs><style>.a{fill:#05386b;}</style></defs><g transform="translate(-21.957)"><g transform="translate(21.957)"><path class="a" d="M1347.582,767.466A268.071,268.071,0,0,0,1242.19,572.127l-134.1-101.8a21.22,21.22,0,0,0-25.664,33.8l134.1,101.8a225.695,225.695,0,0,1,23.129,339.36l-112.285,112.282a225.692,225.692,0,0,1-339.354-23.131l-6.675-8.795c-.136-.178-.289-.334-.428-.507.51-5.146.839-10.328.839-15.555,0-136.332-73.434-255.816-182.832-321.031V562.842c.232-.306.485-.586.7-.907A333.713,333.713,0,0,1,640.092,512.9l33.861-33.635a272.918,272.918,0,0,1,331.622-32.1,21.221,21.221,0,0,0,22.568-35.944,314.693,314.693,0,0,0-210.1-45.288L691.118,239a57.4,57.4,0,0,0-64.11-11.62c-26.778,12.2-65.461,34.091-109.341,71.936-43.514-47.75-71.658-112.3-82.838-141.106A89.271,89.271,0,1,0,353.9,175.231c-5.956,43.9-16.158,148.538.963,265.013-63.362,3.485-109.9,16.193-139.176,27.138a57.413,57.413,0,0,0-37.12,53.55v25.9a21.219,21.219,0,0,0,42.438,0v-25.9a14.771,14.771,0,0,1,9.537-13.8c25.378-9.489,79.676-25.4,158.2-25.4,73.814,0,130.574,16.275,157.84,25.976a14.841,14.841,0,0,1,9.894,13.923v42.826a515.689,515.689,0,0,0-167.7-27.9,557.342,557.342,0,0,0-89.579,7.069,21.221,21.221,0,0,0,6.848,41.885A514.472,514.472,0,0,1,388.772,579c76.237,0,135.932,18.264,167.7,30.679v57.131a371.527,371.527,0,0,0-148.3-30.719l-48.028.164c-.2,0-.394,0-.589.008A315.385,315.385,0,0,0,221,673.351V643.536a21.219,21.219,0,1,0-42.438,0V700.5q-10.268,7.8-19.947,16.448A315.78,315.78,0,0,0,56.957,908.75l-32.51,237.408c-19.136,139.754,73.959,271.151,211.939,299.135a21.22,21.22,0,1,0,8.438-41.593C128.723,1380.155,50.39,1269.556,66.5,1151.916L99.01,914.508A272.2,272.2,0,0,1,360.6,678.692l47.651-.162c182.549,0,331.064,148.515,331.064,331.061a116.727,116.727,0,0,1-33.654,81.8L671.794,900.358a21.219,21.219,0,1,0-41.786,7.409l39.859,224.851,2.646,19.292a225.7,225.7,0,0,1-223.607,256.321H337.319a21.22,21.22,0,0,0,0,42.441H448.907a268.136,268.136,0,0,0,265.654-304.516l-.853-6.2a159.541,159.541,0,0,0,53.459-64.082,268.064,268.064,0,0,0,182.382,89.63q9.151.625,18.261.623a268.068,268.068,0,0,0,189.57-78.537l112.288-112.282A268.1,268.1,0,0,0,1347.582,767.466ZM331.255,89.3a46.859,46.859,0,1,1,46.861,46.858A46.914,46.914,0,0,1,331.255,89.3Zm66.4,350.073c-17.844-116.053-6.531-223.094-1.094-262.336,13.05,33.181,42.982,99.7,89.984,151.136-.592.589-1.173,1.133-1.768,1.728a538.793,538.793,0,0,0-84.541,109.525C399.375,439.405,398.516,439.385,397.655,439.371Zm163.166,28.35c-2.89-1.029-6.086-2.122-9.565-3.261,10.157-12.421,20.944-24.412,32.283-35.751a514.258,514.258,0,0,1,63.11-53.9,21.221,21.221,0,0,0-24.778-34.459,557.44,557.44,0,0,0-68.34,58.344,524.53,524.53,0,0,0-46.716,53.6,536.458,536.458,0,0,0-58.746-9.755A500.083,500.083,0,0,1,514.79,359.9c55.522-55.525,105.173-82.665,129.826-93.9a14.774,14.774,0,0,1,16.5,3.012L768.8,376.7A314.542,314.542,0,0,0,644.69,448.537c-.145.133-.286.272-.422.411l-34.128,33.9q-8.1,8.109-15.691,16.717A57.424,57.424,0,0,0,560.821,467.722Z" transform="translate(-21.957)"/></g></g></svg>