<svg xmlns="http://www.w3.org/2000/svg" width="185.561" height="183" viewBox="0 0 185.561 183"><g transform="translate(0 0)"><path d="M322.53,244.455,304.5,239.539v-8.3a26.2,26.2,0,0,0,13.428-20.532h4.689a6.411,6.411,0,0,0,6.4-6.4v-6.589a6.412,6.412,0,0,0-6.4-6.4h-4.576V177.951a10.076,10.076,0,0,0-10.064-10.064,6.41,6.41,0,0,0-1.263.126A10.082,10.082,0,0,0,297,160.566H286.749A21.069,21.069,0,0,0,265.7,181.611v9.7h-4.574a6.412,6.412,0,0,0-6.4,6.4V204.3a6.411,6.411,0,0,0,6.4,6.4h4.687a26.2,26.2,0,0,0,13.43,20.532v8.3l-17.726,4.884a24.766,24.766,0,0,0-18.141,23.815v14.384a2.745,2.745,0,0,0,2.744,2.745h23.211a2.745,2.745,0,1,0,0-5.49H248.867V268.243a19.262,19.262,0,0,1,14.11-18.522l18.3-5.043,8.768,7.792a2.743,2.743,0,0,0,3.647,0l8.77-7.795,18.62,5.077a19.257,19.257,0,0,1,14.157,18.539v11.592H282.234a2.745,2.745,0,1,0,0,5.49h55.754a2.746,2.746,0,0,0,2.745-2.745V268.291a24.76,24.76,0,0,0-18.2-23.836Zm1-46.739V204.3a.916.916,0,0,1-.915.916h-4.576V196.8h4.576A.914.914,0,0,1,323.531,197.716Zm-15.555-24.339a4.579,4.579,0,0,1,4.574,4.574V191.31h-.915a4.579,4.579,0,0,1-4.574-4.574V174.292a.916.916,0,0,1,.915-.915Zm-36.783,8.235a15.573,15.573,0,0,1,15.556-15.556H297a4.581,4.581,0,0,1,4.576,4.576v16.1A4.58,4.58,0,0,1,297,191.31h-25.8ZM260.213,204.3v-6.589a.916.916,0,0,1,.916-.915H265.7v8.418h-4.574A.916.916,0,0,1,260.213,204.3Zm10.98,4.026V196.8H297a10.038,10.038,0,0,0,7.321-3.167,10.032,10.032,0,0,0,7.319,3.167h.915v11.53a20.679,20.679,0,0,1-41.357,0Zm20.679,38.417-7.137-6.344v-6.9a26.049,26.049,0,0,0,14.273,0v6.9Zm0,0" transform="translate(-155.172 -102.373)" fill="#4eba7e"/><path d="M2.745,60.251A2.745,2.745,0,0,0,5.49,57.508V17.385A11.908,11.908,0,0,1,17.385,5.49h71a11.908,11.908,0,0,1,11.895,11.895V36.646a2.745,2.745,0,0,0,5.49,0V17.385A17.405,17.405,0,0,0,88.389,0h-71A17.405,17.405,0,0,0,0,17.385V57.508a2.744,2.744,0,0,0,2.745,2.744Zm0,0" fill="#4eba7e"/><path d="M105.774,152.654V131.67a2.745,2.745,0,1,0-5.49,0v20.984a11.908,11.908,0,0,1-11.895,11.895H58.011a2.745,2.745,0,0,0-2.745,2.745v11.673L41.652,165.353a2.744,2.744,0,0,0-1.941-.8H17.385A11.908,11.908,0,0,1,5.491,152.654a2.745,2.745,0,0,0-5.49,0,17.405,17.405,0,0,0,17.385,17.385H38.575l17.5,17.5a2.745,2.745,0,0,0,4.686-1.941V170.039H88.389a17.405,17.405,0,0,0,17.385-17.385Zm0,0" transform="translate(0 -82.2)" fill="#4eba7e"/><path d="M104.026,95.251h6.534a6.6,6.6,0,0,0,6.589-6.587V81.49l.774-8.213a8.7,8.7,0,0,1,3.144-5.94,21.96,21.96,0,0,0-13.774-39.064l-.311,0a21.96,21.96,0,0,0-13.489,39.04,8.754,8.754,0,0,1,3.171,5.962l.774,8.213v7.173a6.6,6.6,0,0,0,6.587,6.587Zm7.632-6.587a1.1,1.1,0,0,1-1.1,1.1h-6.534a1.1,1.1,0,0,1-1.1-1.1V84.106h8.728v4.557ZM90.827,49.883a16.6,16.6,0,0,1,16.23-16.117h.236a16.47,16.47,0,0,1,10.328,29.3,14.218,14.218,0,0,0-5.165,9.7l-.552,5.855h-9.223l-.552-5.855a14.279,14.279,0,0,0-5.184-9.716,16.38,16.38,0,0,1-6.117-13.163Zm0,0" transform="translate(-54.407 -18.026)" fill="#4eba7e"/><path d="M42.2,67.936l8.053,2.928a2.745,2.745,0,0,0,1.876-5.16l-8.051-2.928a2.746,2.746,0,0,0-1.877,5.16Zm0,0" transform="translate(-25.754 -39.919)" fill="#4eba7e"/><path d="M40.521,134.39a2.742,2.742,0,0,0,3.449,1.784l8.051-2.562a2.745,2.745,0,1,0-1.665-5.231l-8.051,2.562a2.744,2.744,0,0,0-1.784,3.447Zm0,0" transform="translate(-25.753 -81.769)" fill="#4eba7e"/><path d="M43.14,104.709h8.051a2.745,2.745,0,1,0,0-5.49H43.14a2.745,2.745,0,1,0,0,5.49Zm0,0" transform="translate(-25.755 -63.259)" fill="#4eba7e"/><path d="M214.815,71.027a2.763,2.763,0,0,0,.939-.166l8.051-2.928a2.745,2.745,0,0,0-1.876-5.16L213.878,65.7a2.746,2.746,0,0,0,.937,5.326Zm0,0" transform="translate(-135.211 -39.917)" fill="#4eba7e"/><path d="M213.983,133.611l8.053,2.562a2.745,2.745,0,0,0,1.665-5.231l-8.053-2.562a2.745,2.745,0,0,0-1.665,5.231Zm0,0" transform="translate(-135.211 -81.769)" fill="#4eba7e"/><path d="M214.816,104.709h8.053a2.745,2.745,0,0,0,0-5.49h-8.053a2.745,2.745,0,0,0,0,5.49Zm0,0" transform="translate(-135.211 -63.259)" fill="#4eba7e"/></g></svg>