<svg xmlns="http://www.w3.org/2000/svg" width="1471.251" height="1450.947" viewBox="0 0 1471.251 1450.947"><defs><style>.a{fill:#5cdb95;}</style></defs><path class="a" d="M870.944,825.69,727.985,786.718v-65.8A207.749,207.749,0,0,0,834.452,558.125h37.177a50.832,50.832,0,0,0,50.781-50.781V455.1a50.839,50.839,0,0,0-50.781-50.781H835.35V298.406a79.886,79.886,0,0,0-79.8-79.8,50.824,50.824,0,0,0-10.012,1,79.938,79.938,0,0,0-77.047-59.042H587.25c-92.009,0-166.867,74.847-166.867,166.856v76.9H384.115A50.839,50.839,0,0,0,333.334,455.1v52.24a50.832,50.832,0,0,0,50.781,50.781H421.28A207.759,207.759,0,0,0,527.758,720.918v65.833L387.213,825.477A196.361,196.361,0,0,0,243.379,1014.3v114.044a21.761,21.761,0,0,0,21.754,21.765h184.03a21.765,21.765,0,1,0,0-43.53H286.9V1014.3A152.722,152.722,0,0,1,398.774,867.446L543.9,827.463l69.515,61.781a21.751,21.751,0,0,0,28.915,0l69.538-61.8,147.628,40.252a152.683,152.683,0,0,1,112.248,146.988v91.909H551.453a21.765,21.765,0,1,0,0,43.53H993.507a21.77,21.77,0,0,0,21.765-21.765V1014.681A196.316,196.316,0,0,0,870.943,825.69Zm7.936-370.575v52.229a7.265,7.265,0,0,1-7.251,7.263H835.35V447.864h36.278A7.248,7.248,0,0,1,878.88,455.115ZM755.553,262.139a36.3,36.3,0,0,1,36.267,36.267V404.323H784.57A36.3,36.3,0,0,1,748.3,368.056V269.39a7.263,7.263,0,0,1,7.251-7.251ZM463.912,327.433A123.475,123.475,0,0,1,587.25,204.1h81.245a36.322,36.322,0,0,1,36.278,36.279V368.056a36.312,36.312,0,0,1-36.278,36.267H463.912ZM376.852,507.344V455.1a7.265,7.265,0,0,1,7.263-7.251h36.267V514.6H384.115A7.265,7.265,0,0,1,376.852,507.344Zm87.059,31.923V447.853H668.495a79.588,79.588,0,0,0,58.043-25.11,79.545,79.545,0,0,0,58.032,25.11h7.251v91.414c0,90.4-73.545,163.949-163.949,163.949S463.912,629.671,463.912,539.267Zm163.96,304.6-56.584-50.3V738.844a206.533,206.533,0,0,0,113.168,0v54.721Zm0,0" transform="translate(455.98 300.827)"/><path class="a" d="M21.765,477.715A21.761,21.761,0,0,0,43.53,455.961V137.84a94.416,94.416,0,0,1,94.31-94.31H700.807a94.416,94.416,0,0,1,94.31,94.31V290.553a21.765,21.765,0,0,0,43.53,0V137.84c0-76-61.837-137.84-137.84-137.84H137.84C61.837,0,0,61.837,0,137.84V455.961a21.754,21.754,0,0,0,21.765,21.754Zm0,0" transform="translate(0 0)"/><path class="a" d="M838.648,317.064V150.69a21.765,21.765,0,1,0-43.53,0V317.064a94.415,94.415,0,0,1-94.31,94.31H459.947a21.763,21.763,0,0,0-21.765,21.765v92.548L330.245,417.75a21.758,21.758,0,0,0-15.389-6.376H137.841a94.416,94.416,0,0,1-94.31-94.31,21.765,21.765,0,0,0-43.53,0c0,76,61.837,137.84,137.84,137.84h168L444.557,593.619a21.766,21.766,0,0,0,37.154-15.389V454.9h219.1c76,0,137.84-61.837,137.84-137.84Zm0,0" transform="translate(0.001 241.547)"/><path class="a" d="M233.54,559.317h51.8a52.293,52.293,0,0,0,52.24-52.229V450.212l6.14-65.115a68.989,68.989,0,0,1,24.93-47.1,173.436,173.436,0,0,0,64.913-135.606c0-96.006-78.113-174.119-174.119-174.119-.831,0-1.639.011-2.469.022A174.115,174.115,0,0,0,150.027,337.83,69.407,69.407,0,0,1,175.171,385.1l6.14,65.115v56.876a52.291,52.291,0,0,0,52.229,52.229Zm60.513-52.229a8.719,8.719,0,0,1-8.71,8.71h-51.8a8.709,8.709,0,0,1-8.7-8.71V470.956h69.2v36.132ZM128.892,199.608c1.437-69.493,59.166-126.817,128.681-127.783l1.875-.011c72,0,130.578,58.571,130.578,130.578A130.07,130.07,0,0,1,341.332,304.11a112.732,112.732,0,0,0-40.948,76.9l-4.378,46.426H222.877L218.5,381.011a113.217,113.217,0,0,0-41.105-77.036,129.869,129.869,0,0,1-48.5-104.368Zm0,0" transform="translate(159.876 52.971)"/><path class="a" d="M54.719,104.835l63.847,23.213a21.767,21.767,0,0,0,14.873-40.914L69.6,63.921A21.769,21.769,0,0,0,54.72,104.835Zm0,0" transform="translate(75.679 117.303)"/><path class="a" d="M41.422,176.931a21.737,21.737,0,0,0,27.344,14.143L132.6,170.757a21.763,21.763,0,1,0-13.2-41.476L55.565,149.6a21.759,21.759,0,0,0-14.143,27.332Zm0,0" transform="translate(75.675 240.281)"/><path class="a" d="M62.159,142.748h63.835a21.765,21.765,0,1,0,0-43.53H62.159a21.765,21.765,0,1,0,0,43.53Zm0,0" transform="translate(75.681 185.89)"/><path class="a" d="M233.838,129.368a21.91,21.91,0,0,0,7.442-1.313l63.835-23.213a21.767,21.767,0,0,0-14.873-40.914L226.407,87.141a21.769,21.769,0,0,0,7.431,42.228Zm0,0" transform="translate(397.321 117.296)"/><path class="a" d="M227.235,170.758l63.847,20.317a21.763,21.763,0,0,0,13.2-41.476l-63.846-20.317a21.763,21.763,0,0,0-13.2,41.476Zm0,0" transform="translate(397.324 240.282)"/><path class="a" d="M233.836,142.748h63.847a21.765,21.765,0,0,0,0-43.53H233.836a21.765,21.765,0,1,0,0,43.53Zm0,0" transform="translate(397.323 185.89)"/></svg>