<svg xmlns="http://www.w3.org/2000/svg" width="1685.367" height="1451.006" viewBox="0 0 1685.367 1451.006"><defs><style>.a{fill:#05386b;}</style></defs><g transform="translate(0 -32.677)"><circle class="a" cx="26.895" cy="26.895" r="26.895" transform="translate(1499.997 395.193)"/><circle class="a" cx="26.895" cy="26.895" r="26.895" transform="translate(1499.997 243.048)"/><path class="a" d="M1600.578,610.6a349.661,349.661,0,0,0-493.1-493.173l-7.2-7.093a26.894,26.894,0,1,0-37.75,38.317l7.032,6.928a347.01,347.01,0,0,0-83.469,226.73q0,16.229,1.474,32.2L241.211,1248.679a26.9,26.9,0,0,0,1.026,36.954l76.07,76.071L303.013,1377c-56.939,56.946-149.595,56.943-206.541,0s-56.943-149.6,0-206.545L601.618,665.31c77.917-77.921,77.917-204.7,0-282.619s-204.7-77.914-282.612,0l-311.2,311.2L45.84,731.928l311.2-311.2c56.946-56.939,149.6-56.943,206.541,0s56.943,149.6,0,206.541L58.438,1132.42c-77.917,77.917-77.917,204.694,0,282.615a200.065,200.065,0,0,0,282.612,0l15.291-15.294,76.074,76.071a26.9,26.9,0,0,0,36.95,1.022l715.388-640.082,118.769-106.268q15.971,1.447,32.206,1.474a347.011,347.011,0,0,0,226.694-83.44l7.061,7.1a26.894,26.894,0,0,0,38.12-37.947ZM452.46,1419.779l-77.075-77.071-77.121-77.121L893.42,600.414a494.532,494.532,0,0,0,224.213,224.213L452.46,1419.779ZM1161.3,785.554a440.124,440.124,0,0,1-228.814-228.81l67.7-75.662A350.778,350.778,0,0,0,1236.959,717.86Zm174.428-107.391a295.833,295.833,0,0,1-227.717-484.7l56.7,55.863a26.894,26.894,0,0,0,37.75-38.317l-56.473-55.644a295.8,295.8,0,0,1,416.467,416.937L1278.718,287.271a26.894,26.894,0,0,0-38.12,37.947l283.73,285.029A293.614,293.614,0,0,1,1335.729,678.163Z" transform="translate(0 0)"/></g></svg>