<svg xmlns="http://www.w3.org/2000/svg" width="50.064" height="85.101" viewBox="0 0 50.064 85.101"><path d="M25.032,0A25.06,25.06,0,0,0,0,25.032V60.069a25.032,25.032,0,0,0,50.064,0V25.032A25.06,25.06,0,0,0,25.032,0ZM44.958,60.069a19.926,19.926,0,1,1-39.852,0V25.032a19.926,19.926,0,1,1,39.852,0Zm0,0" fill="#05386b"/><path d="M137.8,101.852a2.553,2.553,0,0,0-2.553,2.553v11.75a2.553,2.553,0,1,0,5.106,0V104.4A2.553,2.553,0,0,0,137.8,101.852Zm0,0" transform="translate(-112.766 -84.923)" fill="#05386b"/></svg>