<svg xmlns="http://www.w3.org/2000/svg" width="1451.001" height="1451.135" viewBox="0 0 1451.001 1451.135"><defs><style>.a{fill:#05386b;}</style></defs><g transform="translate(-0.023)"><g transform="translate(0.024 565.797)"><g transform="translate(0)"><path class="a" d="M885.221,665.573a84.6,84.6,0,0,0-25.035-54.582L752.533,503.318A112.87,112.87,0,0,0,798.4,475.565l2.738-2.741c47.442-47.443,43.636-128.437-8.483-180.558-24.8-24.8-56.878-39.563-90.327-41.584-34.759-2.1-66.786,9.659-90.228,33.1l-2.738,2.738A112.8,112.8,0,0,0,581.6,332.405L473.933,224.735c-31.727-31.726-81.433-33.642-110.813-4.271l-97.58,97.583c-11.941,11.941-16.906,29.3-13.284,46.425A55.978,55.978,0,0,0,287,405.208a87.176,87.176,0,0,1,30.312,19.908l3.092,3.092c14.993,14.993,23.9,34.051,25.086,53.663,1.108,18.321-4.79,34.918-16.6,46.731s-28.416,17.725-46.731,16.6c-19.613-1.182-38.673-10.093-53.663-25.086l-3.092-3.092A87.192,87.192,0,0,1,205.5,486.715a55.976,55.976,0,0,0-40.739-34.751c-17.127-3.622-34.484,1.343-46.428,13.284l-97.47,97.475C-8.512,592.1-6.6,641.805,25.131,673.534L132.8,781.2a112.885,112.885,0,0,0-45.881,27.758L84.176,811.7c-47.44,47.443-43.633,128.437,8.486,180.559,27.671,27.668,63.467,41.723,98.07,41.717,30.581,0,60.23-10.98,82.485-33.237L275.958,998a112.831,112.831,0,0,0,27.759-45.884l107.667,107.67a84.629,84.629,0,0,0,54.585,25.035q2.33.141,4.648.142a72.775,72.775,0,0,0,51.583-20.905l92.813-92.813a143.731,143.731,0,0,0,31.565,47.119l3.092,3.092c52.119,52.116,133.116,55.922,180.558,8.483s43.636-128.44-8.483-180.558l-3.092-3.092a143.627,143.627,0,0,0-47.119-31.565L864.457,721.8C878.938,707.321,886.505,686.83,885.221,665.573Zm-60.843,16.149L726.8,779.3c-11.938,11.94-16.906,29.295-13.284,46.422a55.976,55.976,0,0,0,34.748,40.742,87.143,87.143,0,0,1,30.312,19.91l3.092,3.092c30.017,30.018,33.824,75.051,8.483,100.392s-70.38,21.535-100.392-8.483l-3.092-3.092a87.2,87.2,0,0,1-19.911-30.309,55.971,55.971,0,0,0-40.742-34.748c-17.13-3.622-34.484,1.346-46.422,13.284l-97.47,97.472c-3.923,3.923-9.087,4.495-12.731,4.263a28.426,28.426,0,0,1-17.918-8.534L408.28,976.523l94.057-94.057a28.344,28.344,0,1,0-40.085-40.085L368.2,936.439,338.847,907.09a55.522,55.522,0,0,0-39.118-16.541,51.737,51.737,0,0,0-14.687,2.123,48.181,48.181,0,0,0-33.88,36.689,56.173,56.173,0,0,1-15.291,28.561l-2.741,2.738c-25.338,25.341-70.38,21.535-100.392-8.483s-33.824-75.051-8.486-100.392l2.741-2.741a56.176,56.176,0,0,1,28.561-15.29,48.182,48.182,0,0,0,36.692-33.886c5.549-18.743.023-39.356-14.418-53.8L65.212,633.447a28.421,28.421,0,0,1-8.537-17.918c-.221-3.642.343-8.806,4.263-12.732l92.813-92.813A143.734,143.734,0,0,0,185.316,557.1l3.092,3.092c52.122,52.119,133.116,55.922,180.561,8.483s43.636-128.437-8.486-180.558l-3.092-3.092a143.628,143.628,0,0,0-47.119-31.565L403.2,260.54c7.154-7.148,21.189-5.192,30.65,4.271L546.467,377.43c14.44,14.443,35.054,19.967,53.8,14.418a48.183,48.183,0,0,0,33.883-36.692A56.135,56.135,0,0,1,649.44,326.6l2.741-2.741c11.813-11.81,28.4-17.705,46.731-16.6,19.613,1.182,38.673,10.093,53.664,25.086,30.017,30.02,33.824,75.057,8.483,100.392l-2.738,2.741a56.178,56.178,0,0,1-28.558,15.291,48.183,48.183,0,0,0-36.7,33.883c-5.549,18.743-.026,39.359,14.418,53.8L820.107,651.073a28.409,28.409,0,0,1,8.534,17.915C828.862,672.633,828.3,677.8,824.378,681.723Z" transform="translate(-0.024 -199.629)"/></g></g><g transform="translate(526.664 1127.547)"><path class="a" d="M234.218,406.135a28.328,28.328,0,1,0,8.3,20.038A28.557,28.557,0,0,0,234.218,406.135Z" transform="translate(-185.837 -397.83)"/></g><g transform="translate(1128.532 351.63)"><path class="a" d="M446.573,132.369a28.327,28.327,0,1,0,8.3,20.038A28.556,28.556,0,0,0,446.573,132.369Z" transform="translate(-398.193 -124.065)"/></g><g transform="translate(565.687 0)"><g transform="translate(0 0)"><path class="a" d="M1023.079,651.4a144.652,144.652,0,0,0-54.055-34.207l95.015-95.015c14.48-14.477,22.048-34.975,20.763-56.231a84.615,84.615,0,0,0-25.035-54.585L954.227,305.8A112.966,112.966,0,0,0,993.8,280.235l2.741-2.741c47.44-47.442,43.636-128.437-8.485-180.558S854.941,41.014,807.5,88.454l-2.741,2.741a113.033,113.033,0,0,0-25.568,39.586L673.512,25.108C641.783-6.621,592.076-8.537,562.7,20.837l-95.015,95.015A144.649,144.649,0,0,0,433.477,61.8l-3.092-3.092C378.266,6.586,297.269,2.783,249.827,50.222s-43.636,128.439,8.48,180.553l3.1,3.1a144.676,144.676,0,0,0,54.055,34.206l-95.018,95.015c-29.374,29.374-27.458,79.081,4.28,110.819L337.442,586.549c14.446,14.443,35.068,19.964,53.8,14.418a48.192,48.192,0,0,0,33.883-36.692,56.135,56.135,0,0,1,15.291-28.558l2.741-2.741c11.813-11.813,28.439-17.717,46.731-16.6,19.613,1.185,38.671,10.1,53.664,25.089s23.9,34.051,25.086,53.664c1.108,18.323-4.79,34.921-16.6,46.734L549.3,644.6a56.177,56.177,0,0,1-28.558,15.291,48.18,48.18,0,0,0-36.692,33.881c-5.55,18.74-.028,39.351,14.409,53.794l112.517,112.6a84.274,84.274,0,0,0,59.335,25.109c19.009,0,37.537-6.893,51.481-20.837l95.015-95.015a144.668,144.668,0,0,0,34.2,54.052l3.1,3.095c52.122,52.119,133.116,55.922,180.559,8.483s43.635-128.439-8.483-180.558ZM994.57,794.962c-25.338,25.341-70.377,21.535-100.392-8.483l-3.092-3.092a87.322,87.322,0,0,1-21.4-34.513A56.545,56.545,0,0,0,829.359,711.6c-17.626-4.232-35.522.609-47.868,12.955L681.7,824.348c-3.925,3.923-9.1,4.49-12.732,4.263a28.4,28.4,0,0,1-17.909-8.528L543.488,712.429a112.877,112.877,0,0,0,45.884-27.759l2.738-2.741c23.445-23.445,35.2-55.492,33.1-90.228-2.021-33.452-16.787-65.533-41.584-90.327s-56.874-39.566-90.327-41.587c-34.754-2.086-66.786,9.659-90.228,33.1l-2.741,2.741a112.852,112.852,0,0,0-27.759,45.884L264.8,433.82a28.419,28.419,0,0,1-8.537-17.918c-.221-3.642.343-8.809,4.262-12.731L360.32,303.38c12.346-12.346,17.187-30.241,12.955-47.87A56.546,56.546,0,0,0,336,215.184a87.4,87.4,0,0,1-34.507-21.4l-3.1-3.1c-30.017-30.017-33.824-75.051-8.483-100.392s70.377-21.537,100.392,8.483l3.092,3.092a87.367,87.367,0,0,1,21.4,34.513,56.535,56.535,0,0,0,40.328,37.27c17.626,4.232,35.522-.612,47.868-12.955L602.784,60.91c7.154-7.145,21.186-5.192,30.649,4.271L743.555,175.306c13.958,13.959,34,19.653,52.286,14.846a48.322,48.322,0,0,0,34.626-34.062,55.857,55.857,0,0,1,14.372-24.817l2.741-2.741c25.335-25.341,70.377-21.537,100.392,8.483s33.824,75.051,8.483,100.392l-2.741,2.741A55.81,55.81,0,0,1,928.9,254.52a48.328,48.328,0,0,0-34.062,34.626c-4.8,18.292.887,38.327,14.846,52.289l110,110a28.422,28.422,0,0,1,8.537,17.918c.221,3.642-.343,8.809-4.265,12.731l-45.484,45.484-93.927-93.929a28.342,28.342,0,0,0-40.082,40.082l93.927,93.93-14.228,14.228c-12.343,12.346-17.187,30.241-12.955,47.867a56.546,56.546,0,0,0,37.27,40.328,87.388,87.388,0,0,1,34.513,21.4l3.092,3.092C1016.107,724.588,1019.911,769.627,994.57,794.962Z" transform="translate(-199.606 0)"/></g></g></g></svg>