<svg xmlns="http://www.w3.org/2000/svg" width="999.527" height="1417.191" viewBox="0 0 999.527 1417.191"><defs><style>.a{fill:#fff;}</style></defs><g transform="translate(169.816 791.635)"><path class="a" d="M164.478,286a27.68,27.68,0,1,0,27.68,27.68A27.69,27.69,0,0,0,164.478,286Z" transform="translate(-136.798 -286)"/></g><g transform="translate(169.816 902.353)"><path class="a" d="M164.478,326a27.679,27.679,0,0,0-27.68,27.679V702.442a27.68,27.68,0,0,0,55.359,0V353.679A27.681,27.681,0,0,0,164.478,326Z" transform="translate(-136.798 -326)"/></g><g transform="translate(0 0)"><path class="a" d="M1040.764,20.8A27.676,27.676,0,0,0,997.606,5.343c-27.66,20.248-166.784,124.4-189.445,186.626a138.089,138.089,0,0,0,7.675,111.8c-33.935,48.677-69.085,115.889-100.02,181.558V27.68A27.681,27.681,0,0,0,688.137,0H466.7a27.679,27.679,0,0,0-27.68,27.68V570.2h-4.969L386.775,386.271c-.022-.091-.047-.183-.072-.274l-42.986-160.4c0-.006,0-.011-.006-.017a27.918,27.918,0,0,0-.894-2.724c-.105-.274-.232-.537-.346-.808-.26-.623-.532-1.237-.839-1.841-.15-.293-.313-.576-.473-.864-.313-.567-.642-1.127-1-1.672-.18-.274-.365-.543-.554-.811-.379-.54-.778-1.063-1.2-1.578-.116-.141-.21-.3-.329-.435L173.834,21.311A27.679,27.679,0,0,0,125.577,33.85L75.948,284.682c-.036.185-.044.374-.078.556-.127.722-.233,1.445-.3,2.17-.03.307-.05.615-.069.922-.042.692-.058,1.378-.05,2.068,0,.321.005.642.022.963.033.706.1,1.406.191,2.106.036.288.058.573.1.858a27.9,27.9,0,0,0,.6,2.9L119.3,457.465l28.8,113.945a83.027,83.027,0,0,0-13.56,160.1v547.282c0,76.313,62.085,138.4,138.4,138.4H826.535c76.312,0,138.4-62.085,138.4-138.4V731.559a83.052,83.052,0,0,0-12.057-159.866c18.055-73.362,30.783-146.267,35.48-203.469a137.62,137.62,0,0,0,79.925-81.6C1090.986,224.274,1049.345,54.255,1040.764,20.8Zm-188.1,327.28a138.64,138.64,0,0,0,79.252,29.487c-5.55,55.187-18.266,123.9-35.737,192.627H737.955C780.224,474.416,819.267,398.84,852.667,348.084ZM494.38,55.359H660.458v63.663H605.1a27.68,27.68,0,1,0,0,55.359h55.359V229.74H605.1a27.68,27.68,0,1,0,0,55.359h55.359v55.359H605.1a27.68,27.68,0,1,0,0,55.359h55.359v55.359H605.1a27.68,27.68,0,1,0,0,55.359h55.359V570.2H494.38ZM168.746,100.873,282.307,234.681A129.026,129.026,0,0,1,134.393,274.5ZM143.771,334.906a181.885,181.885,0,0,0,37.309,3.883,185.336,185.336,0,0,0,47.985-6.355,183.4,183.4,0,0,0,75.106-40.542l29.025,108.3,43.7,170h-172L172.92,443.7c-.031-.127-.064-.255-.1-.379Zm765.8,943.888a83.133,83.133,0,0,1-83.039,83.039H272.943a83.133,83.133,0,0,1-83.039-83.039V736.276h719.67Zm55.359-625.557a27.7,27.7,0,0,1-27.679,27.68H162.225a27.68,27.68,0,0,1,0-55.359H412.407c.055,0,.108.006.16.006.036,0,.072-.006.108-.006H695.627c.044,0,.091.006.136.006s.061-.006.094-.006H917.488c.033,0,.069.006.1.006.055,0,.108-.006.163-.006h19.5A27.712,27.712,0,0,1,964.933,653.237Zm51.326-385.551A83.028,83.028,0,0,1,871.415,288.6c0-.006-.008-.011-.011-.017A82.947,82.947,0,0,1,860.18,210.9c10.374-28.488,77.893-89.233,136.657-135.439C1013,148.916,1026.614,239.251,1016.259,267.686Z" transform="translate(-75.447 0)"/></g></svg>