<svg xmlns="http://www.w3.org/2000/svg" width="1007.463" height="1428.449" viewBox="0 0 1007.463 1428.449"><defs><style>.a{fill:#5cdb95;}</style></defs><g transform="translate(-75.447)"><g transform="translate(246.612 797.923)"><path class="a" d="M164.7,286a27.9,27.9,0,1,0,27.9,27.9A27.91,27.91,0,0,0,164.7,286Z" transform="translate(-136.798 -286)"/></g><g transform="translate(246.612 909.52)"><path class="a" d="M164.7,326a27.9,27.9,0,0,0-27.9,27.9V705.432a27.9,27.9,0,0,0,55.8,0V353.9A27.9,27.9,0,0,0,164.7,326Z" transform="translate(-136.798 -326)"/></g><g transform="translate(75.447 0)"><path class="a" d="M1048.429,20.97a27.9,27.9,0,0,0-43.5-15.585C977.049,25.793,836.821,130.77,813.979,193.494a139.185,139.185,0,0,0,7.736,112.686c-34.2,49.064-69.634,116.809-100.815,183V27.9A27.9,27.9,0,0,0,693,0H469.807a27.9,27.9,0,0,0-27.9,27.9V574.728H436.9L389.248,389.339c-.022-.092-.047-.184-.073-.276L345.847,227.386c0-.006,0-.011-.006-.017a28.2,28.2,0,0,0-.9-2.745c-.106-.276-.234-.541-.349-.815-.262-.628-.536-1.247-.845-1.855-.151-.3-.315-.58-.477-.87-.315-.572-.647-1.135-1-1.685-.181-.276-.368-.547-.558-.817-.382-.544-.784-1.071-1.205-1.59-.117-.142-.212-.3-.332-.438L174.615,21.48a27.9,27.9,0,0,0-48.64,12.638L75.951,286.943c-.036.187-.045.377-.078.561-.128.728-.234,1.456-.3,2.187-.031.31-.05.619-.07.929-.042.7-.059,1.389-.05,2.084,0,.324.005.647.022.971.033.711.1,1.417.193,2.123.036.29.059.578.1.865a28.111,28.111,0,0,0,.605,2.921L119.65,461.1,148.682,575.95a83.687,83.687,0,0,0-13.668,161.373v551.629c0,76.919,62.578,139.5,139.5,139.5H832.5c76.919,0,139.5-62.578,139.5-139.5V737.37a83.712,83.712,0,0,0-12.153-161.136c18.2-73.945,31.027-147.429,35.761-205.086a138.713,138.713,0,0,0,80.559-82.247C1099.05,226.055,1057.078,54.686,1048.429,20.97ZM858.839,350.849a139.74,139.74,0,0,0,79.882,29.721C933.127,436.2,920.31,505.451,902.7,574.728H743.216C785.821,478.185,825.173,402.008,858.839,350.849ZM497.706,55.8H665.1v64.169H609.3a27.9,27.9,0,1,0,0,55.8h55.8v55.8H609.3a27.9,27.9,0,1,0,0,55.8h55.8v55.8H609.3a27.9,27.9,0,1,0,0,55.8h55.8v55.8H609.3a27.9,27.9,0,1,0,0,55.8h55.8v64.169h-167.4ZM169.487,101.674,283.95,236.545a130.051,130.051,0,0,1-149.089,40.139ZM144.313,337.566a183.334,183.334,0,0,0,37.606,3.914,186.808,186.808,0,0,0,48.366-6.406,184.854,184.854,0,0,0,75.7-40.864l29.255,109.162,44.045,171.355H205.924l-32.229-127.5c-.031-.128-.064-.257-.1-.382ZM916.2,1288.952a83.793,83.793,0,0,1-83.7,83.7H274.511a83.793,83.793,0,0,1-83.7-83.7V742.124H916.2ZM972,658.426a27.924,27.924,0,0,1-27.9,27.9H162.914a27.9,27.9,0,0,1,0-55.8H415.083c.056,0,.109.006.162.006.036,0,.073-.006.109-.006h285.2c.045,0,.092.006.137.006s.061-.006.095-.006H924.174c.033,0,.069.006.1.006.056,0,.109-.006.165-.006H944.1A27.932,27.932,0,0,1,972,658.426Zm51.734-388.613a83.687,83.687,0,0,1-145.995,21.081c0-.006-.008-.011-.011-.017a83.606,83.606,0,0,1-11.313-78.3c10.457-28.714,78.511-89.942,137.742-136.514C1020.446,150.1,1034.167,241.151,1023.73,269.813Z" transform="translate(-75.447 0)"/></g></g></svg>