<svg xmlns="http://www.w3.org/2000/svg" width="654.8" height="633.682" viewBox="0 0 654.8 633.682"><defs><style>.a{fill:#5cdb95;}</style></defs><g transform="translate(0 -0.125)"><path class="a" d="M52.806,570.439H327.4V549.312H52.806a31.685,31.685,0,0,1-31.684-31.684V52.931A31.681,31.681,0,0,1,52.806,21.247H517.5a31.676,31.676,0,0,1,31.684,31.684V295.839h21.127V52.931A52.869,52.869,0,0,0,517.5.125H52.806A52.872,52.872,0,0,0,0,52.931v464.7A52.879,52.879,0,0,0,52.806,570.439Zm0,0"/><path class="a" d="M62.344,62.469H83.463V83.588H62.344Zm0,0" transform="translate(-20.095 -20.095)"/><path class="a" d="M124.676,62.469H145.8V83.588H124.676Zm0,0" transform="translate(-40.187 -20.095)"/><path class="a" d="M187.016,62.469H208.14V83.588H187.016Zm0,0" transform="translate(-60.28 -20.095)"/><path class="a" d="M62.344,124.8H548.16v21.127H62.344Zm0,0" transform="translate(-20.095 -40.187)"/><path class="a" d="M170.9,191.707l-26.826,26.826A52.97,52.97,0,1,0,159,233.469l26.824-26.826ZM114.993,294.223a31.681,31.681,0,1,1,0-63.362,31.129,31.129,0,0,1,13.574,3.163l-21.037,21.04L122.46,270l21.053-21.026a31.1,31.1,0,0,1,3.166,13.569A31.68,31.68,0,0,1,114.993,294.223Zm0,0" transform="translate(-19.944 -61.752)"/><path class="a" d="M264.941,249.484H444.479V270.6H264.941Zm0,0" transform="translate(-85.398 -80.375)"/><path class="a" d="M264.941,311.82h73.927v21.119H264.941Zm0,0" transform="translate(-85.398 -100.468)"/><path class="a" d="M405.2,311.82H553.057v21.119H405.2Zm0,0" transform="translate(-130.608 -100.468)"/><path class="a" d="M561.047,249.484H666.661V270.6H561.047Zm0,0" transform="translate(-180.841 -80.375)"/><path class="a" d="M170.9,378.723l-26.826,26.826A52.97,52.97,0,1,0,159,420.485l26.824-26.827ZM114.993,481.242a31.685,31.685,0,0,1,0-63.371,31.165,31.165,0,0,1,13.574,3.169L107.53,442.085l14.93,14.93,21.053-21.029a31.119,31.119,0,0,1,3.166,13.572A31.682,31.682,0,0,1,114.993,481.242Zm0,0" transform="translate(-19.944 -122.033)"/><path class="a" d="M264.941,436.492H444.479v21.125H264.941Zm0,0" transform="translate(-85.398 -140.653)"/><path class="a" d="M264.941,498.836h73.927v21.122H264.941Zm0,0" transform="translate(-85.398 -160.748)"/><path class="a" d="M405.2,498.836H489.69v21.122H405.2Zm0,0" transform="translate(-130.608 -160.748)"/><path class="a" d="M561.047,436.492h42.244v21.125H561.047Zm0,0" transform="translate(-180.841 -140.653)"/><path class="a" d="M170.9,565.738l-26.826,26.827A52.967,52.967,0,1,0,159,607.5l26.824-26.823ZM114.993,668.257a31.684,31.684,0,0,1,0-63.367,31.071,31.071,0,0,1,13.574,3.166L107.53,629.1l14.93,14.931L143.513,623a31.13,31.13,0,0,1,3.166,13.572A31.682,31.682,0,0,1,114.993,668.257Zm0,0" transform="translate(-19.944 -182.313)"/><path class="a" d="M264.941,623.512H402.236v21.127H264.941Zm0,0" transform="translate(-85.398 -200.934)"/><path class="a" d="M264.941,685.852h73.927v21.122H264.941Zm0,0" transform="translate(-85.398 -221.029)"/><path class="a" d="M405.2,685.852h42.243v21.122H405.2Zm0,0" transform="translate(-130.608 -221.029)"/><path class="a" d="M657.132,784.507A158.422,158.422,0,1,0,498.711,626.086,158.418,158.418,0,0,0,657.132,784.507Zm0-295.719a137.3,137.3,0,1,1-137.3,137.3A137.3,137.3,0,0,1,657.132,488.788Zm0,0" transform="translate(-160.748 -150.701)"/><path class="a" d="M628.426,668.559,609.52,678l21.124,42.246a10.555,10.555,0,0,0,7.759,5.708,11.773,11.773,0,0,0,1.639.138,10.581,10.581,0,0,0,7.47-3.1l126.73-126.735-14.93-14.935L642.933,697.7Zm0,0" transform="translate(-196.465 -187.337)"/></g></svg>