<svg xmlns="http://www.w3.org/2000/svg" width="505.434" height="505.452" viewBox="0 0 505.434 505.452"><defs><style>.a{fill:#e7eced;}.b{fill:#5cdb95;}</style></defs><path class="a" d="M96.947,327.972,21.539,369.1a67.769,67.769,0,0,0-12.1,8.612,252.566,252.566,0,0,0,324.51.839,66.9,66.9,0,0,0-13.294-8.907L239.9,329.278a30.793,30.793,0,0,1-17.023-27.542V270.055a121.974,121.974,0,0,0,7.639-9.823,185.8,185.8,0,0,0,25.1-50.583,25.362,25.362,0,0,0,17.986-24.128V151.7a25.246,25.246,0,0,0-8.45-18.74V84.076S275.2,8,172.174,8,79.19,84.076,79.19,84.076v48.886a25.212,25.212,0,0,0-8.45,18.74V185.52A25.354,25.354,0,0,0,82.432,206.8c8.45,36.784,30.575,63.258,30.575,63.258v30.9A30.825,30.825,0,0,1,96.947,327.972Z" transform="translate(80.562 68.303)"/><g transform="translate(0 0)"><path class="b" d="M257.046.038C117.494-2.347,2.422,108.853.038,248.406-1.317,327.533,33.951,398.65,90.1,445.943a67.148,67.148,0,0,1,11.988-8.526L177.5,396.284a30.8,30.8,0,0,0,16.051-27.037v-30.9s-22.135-26.474-30.575-63.258a25.363,25.363,0,0,1-11.692-21.277V220a25.246,25.246,0,0,1,8.45-18.74V152.37S149.69,76.294,252.717,76.294,345.7,152.37,345.7,152.37v48.886a25.212,25.212,0,0,1,8.45,18.74v33.818a25.362,25.362,0,0,1-17.987,24.128,185.8,185.8,0,0,1-25.1,50.583,121.961,121.961,0,0,1-7.639,9.823v31.681a30.783,30.783,0,0,0,17.023,27.542L401.2,437.941a67.239,67.239,0,0,1,13.256,8.888A252.069,252.069,0,0,0,505.4,257.046C507.8,117.494,396.609,2.422,257.046.038Z" transform="translate(0 0)"/></g></svg>