<svg xmlns="http://www.w3.org/2000/svg" width="128.48" height="128.449" viewBox="0 0 128.48 128.449"><g transform="translate(0 -0.499)"><path d="M109.969,19.554c-12.175-12.333,11.956,12.109,0,0A65.321,65.321,0,0,0,47.3,2.668,64.639,64.639,0,0,0,2.538,82.892,65.459,65.459,0,0,0,43.98,125.737c20.914,7.029,44.823,2.28,61.681-11.885a64.483,64.483,0,0,0,12.224-13.736c.277-.421.552-.845.815-1.264a2.56,2.56,0,0,0-4.338-2.722q-.368.587-.749,1.164a59.59,59.59,0,0,1-6.279,7.935l-9.477-9.476a45.83,45.83,0,0,0,6.953-9.842,45.508,45.508,0,0,0,5.057-17.843h13.422a59.273,59.273,0,0,1-1.546,10.537,2.56,2.56,0,1,0,4.979,1.2,64.737,64.737,0,0,0-16.753-60.249ZM95.021,30.859a45.8,45.8,0,0,0-10.107-7,45.234,45.234,0,0,0-11.991-4.1A46.049,46.049,0,0,0,66.553,19V5.594A58.655,58.655,0,0,1,104.5,21.378ZM61.432,19.033a46.026,46.026,0,0,0-5.2.613,2.56,2.56,0,1,0,.889,5.042,41.024,41.024,0,0,1,16.735.46,39.379,39.379,0,0,1,13.074,5.925A41.73,41.73,0,0,1,103.264,54.1,39.828,39.828,0,0,1,104.7,64.371,40.852,40.852,0,0,1,92.478,93.932c-14.5,14.02-38.663,15-54.157,2.038a41.523,41.523,0,0,1-13.088-42.3A40.824,40.824,0,0,1,39.72,32.283,2.56,2.56,0,1,0,36.629,28.2c-1.19.9-2.342,1.864-3.443,2.881L23.708,21.6A58.638,58.638,0,0,1,61.433,5.615V19.033Zm0,104.78a58.744,58.744,0,0,1-36.9-15.224L34.021,99.1a45.512,45.512,0,0,0,27.412,11.3v13.416Zm-41.3-98.546,9.491,9.491A45.535,45.535,0,0,0,18.489,62.947H5.083a58.781,58.781,0,0,1,15.048-37.68Zm-1.552,42.8A45.5,45.5,0,0,0,30.368,95.511l-9.481,9.481A58.724,58.724,0,0,1,5.156,68.068Zm47.974,42.356A45.544,45.544,0,0,0,94.179,99.316l9.491,9.491a58.765,58.765,0,0,1-37.117,15.028Zm43.4-47.475A45.5,45.5,0,0,0,98.609,34.512l9.489-9.488a58.751,58.751,0,0,1,15.265,37.923H109.957Zm0,0" fill="#5cdb95"/><path d="M185.469,190.681c0-1.2-1.412-1.52-2.37-1.52s-2.369.324-2.369,1.52v21.461c0,2.087-.62,4.3-2.661,5.233-1.954.9-5.044.795-6.678-.708-1.535-1.412-1.639-3.756-1.635-5.84q.016-9.788.031-19.575a2.45,2.45,0,0,0-.209-1.22c-.422-.747-1.444-.837-2.3-.817-.833.02-1.845.179-2.15.956a2.163,2.163,0,0,0-.1.806q.012,9.85.025,19.7c0,2.78.077,5.776,1.752,7.995,2.53,3.351,7.78,3.972,11.6,3.113a9.126,9.126,0,0,0,5.133-2.984,10.5,10.5,0,0,0,1.927-6.659Zm0,0" transform="translate(-123.615 -141.319)" fill="#5cdb95"/><path d="M268.934,205.379,261.2,218.613c-1.376,2.355,2.977,4.443,4.292,2.192l6.527-11.894,6.618,11.893c1.3,2.342,5.638.187,4.248-2.191l-7.735-13.234,7.512-13.146c1.518-2.657-2.96-4.567-4.383-1.967l-6.26,11.446-6.17-11.446c-1.386-2.571-5.993-.766-4.427,1.967Zm0,0" transform="translate(-195.455 -141.218)" fill="#5cdb95"/><path d="M176.94,91.115a2.561,2.561,0,1,0,1.282-3.376,2.6,2.6,0,0,0-1.282,3.376Zm0,0" transform="translate(-132.388 -65.183)" fill="#5cdb95"/><path d="M477.269,343.133a2.56,2.56,0,0,0-4.747,1.92l.034.085a2.56,2.56,0,0,0,4.747-1.92Zm0,0" transform="translate(-353.811 -255.458)" fill="#5cdb95"/></g></svg>