<svg xmlns="http://www.w3.org/2000/svg" width="1428.4" height="1428.052" viewBox="0 0 1428.4 1428.052"><defs><style>.a{fill:#5cdb95;}</style></defs><g transform="translate(0 -0.499)"><path class="a" d="M1222.6,212.345c-135.362-137.117,132.921,134.621,0,0C1044.231,31.669,770.813-41.815,525.842,24.607,297.478,86.529,109.566,268.011,35.931,492.342-8.827,628.674-12.194,778.706,28.215,916.508,93.024,1137.549,271,1319.586,488.953,1392.842c232.517,78.148,498.326,25.348,685.748-132.136a716.9,716.9,0,0,0,135.907-152.712c3.084-4.675,6.135-9.394,9.056-14.047a28.466,28.466,0,0,0-48.223-30.263q-4.087,6.522-8.326,12.936a662.5,662.5,0,0,1-69.812,88.218l-105.36-105.349a509.515,509.515,0,0,0,77.3-109.414A505.937,505.937,0,0,0,1221.463,751.7h149.224A658.97,658.97,0,0,1,1353.5,868.851a28.465,28.465,0,1,0,55.35,13.317c57.432-238.837-13.753-495.112-186.255-669.826ZM1056.4,338.03a509.2,509.2,0,0,0-112.368-77.789A502.9,502.9,0,0,0,810.722,214.7a511.955,511.955,0,0,0-70.814-8.468V57.138c158.117,6.07,306.13,67.654,421.9,175.488ZM682.977,206.547a511.694,511.694,0,0,0-57.846,6.811,28.462,28.462,0,1,0,9.884,56.059c61.2-10.8,125.619-9.666,186.059,5.111A437.8,437.8,0,0,1,966.43,340.395a463.944,463.944,0,0,1,181.624,255.991,442.783,442.783,0,0,1,15.976,114.22c.959,122.535-47.58,243.229-135.9,328.647-161.157,155.872-429.843,166.726-602.094,22.657C292.355,950.1,233.093,759.417,280.531,591.636c26.569-93.972,83.063-178.746,161.059-237.78a28.464,28.464,0,1,0-34.361-45.39c-13.23,10.015-26.035,20.728-38.273,32.029L263.574,235.112C378.416,126.951,525.493,64.637,682.989,57.379v149.17Zm0,1164.9A653.1,653.1,0,0,1,272.749,1202.2l105.48-105.491a505.99,505.99,0,0,0,304.759,125.587v149.159ZM223.806,275.858,329.319,381.371a506.244,506.244,0,0,0-123.767,313.4H56.513A653.508,653.508,0,0,1,223.806,275.859ZM206.555,751.7A505.806,505.806,0,0,0,337.624,1056.81l-105.4,105.4C127.2,1049.411,65.875,905.494,57.32,751.7Zm533.352,470.9A506.342,506.342,0,0,0,1047.053,1099.1l105.513,105.513a653.324,653.324,0,0,1-412.658,167.075Zm482.557-527.814A505.806,505.806,0,0,0,1096.3,378.638l105.491-105.48C1307.24,389.492,1366.905,537.572,1371.5,694.774H1222.465Zm0,0" transform="translate(0 0)"/><path class="a" d="M392.3,206.063c0-13.306-15.693-16.9-26.351-16.9s-26.34,3.607-26.34,16.9v238.6c0,23.2-6.887,47.765-29.588,58.184-21.719,9.983-56.08,8.838-74.247-7.868-17.066-15.693-18.221-41.761-18.178-64.929q.18-108.821.349-217.63c.011-4.643-.044-9.525-2.321-13.568-4.686-8.3-16.052-9.307-25.588-9.078-9.263.218-20.51,1.994-23.9,10.625-1.111,2.823-1.122,5.928-1.111,8.958q.131,109.507.283,219.014c.044,30.906.861,64.221,19.474,88.883,28.127,37.26,86.5,44.158,129.02,34.612,21.654-4.872,42.937-15.649,57.072-33.173,16.663-20.662,21.425-48.147,21.425-74.029Zm0,0" transform="translate(295.373 337.675)"/><path class="a" d="M349.882,370.838S264.2,517.436,263.887,517.97c-15.3,26.177,33.1,49.4,47.722,24.368L384.177,410.1S457.3,541.52,457.749,542.327c14.483,26.035,62.685,2.081,47.231-24.357l-86-147.132s83.369-145.911,83.51-146.151c16.881-29.544-32.912-50.773-48.725-21.872L384.177,330.069s-68.395-126.884-68.591-127.254c-15.409-28.585-66.629-8.511-49.215,21.872Zm0,0" transform="translate(467.031 337.434)"/><path class="a" d="M178.971,127.494c5.819,14.4,23.147,21.545,37.456,15.54,14.7-6.168,20.859-23.42,14.93-37.827-5.918-14.658-23.736-21.8-38.132-15.246-14.233,6.462-20.074,23.365-14.254,37.532Zm0,0" transform="translate(316.336 155.753)"/><path class="a" d="M527.146,359.275a28.466,28.466,0,0,0-52.778,21.349l.381.948a28.466,28.466,0,0,0,52.778-21.349Zm0,0" transform="translate(845.416 610.406)"/></g></svg>